<?xml version="1.0" standalone="no"?>
<!DOCTYPE svg PUBLIC "-//W3C//DTD SVG 1.1//EN" "http://www.w3.org/Graphics/SVG/1.1/DTD/svg11.dtd" >
<svg xmlns="http://www.w3.org/2000/svg" xmlns:xlink="http://www.w3.org/1999/xlink" version="1.1">
<metadata>
Created by FontForge 20170910 at Fri Mar 29 19:16:00 2013
 By Jimmy Wärting
Copyright (c) 1995 ParaGraph Intl., (c) 1998 ParaType Inc., ParaType Ltd. All rights reserved.
</metadata>
<defs>
<font id="FuturaPTCond-Medium" horiz-adv-x="500" >
  <font-face 
    font-family="Futura PT Cond Medium"
    font-weight="450"
    font-stretch="condensed"
    units-per-em="1000"
    panose-1="2 11 6 6 2 2 4 2 2 3"
    ascent="763"
    descent="-237"
    x-height="447"
    cap-height="667"
    bbox="-221 -250 750 920"
    underline-thickness="50"
    underline-position="-200"
    unicode-range="U+0020-FB02"
  />
<missing-glyph horiz-adv-x="233" 
 />
    <glyph glyph-name="afii10017.var.accented" unicode="&#x410;`" horiz-adv-x="360" 
d="M359 0h-89l-25 130h-132l-25 -130h-87l145 667h71zM126 199h106q-40 223 -52 338q-10 -103 -54 -338zM136 755l86 129l68 -42l-107 -115z" />
    <glyph glyph-name="afii10022.var.accented" unicode="&#x415;`" horiz-adv-x="321" 
d="M290 0h-239v667h239v-76h-149v-212h132v-76h-132v-227h149v-76zM116 755l86 129l68 -42l-107 -115z" />
    <glyph glyph-name="afii10026.var.accented" unicode="&#x418;`" horiz-adv-x="410" 
d="M51 0v667h88v-273q0 -116 -19 -235q11 36 28 97.5t31 103.5l100 307h80v-667h-88v297q0 64 18 217q-49 -176 -51 -181l-107 -333h-80zM161 755l86 129l68 -42l-107 -115z" />
    <glyph glyph-name="afii10032.var.accented" unicode="&#x41e;`" horiz-adv-x="423" 
d="M385 333q0 -66 -3 -111.5t-18.5 -103t-44.5 -86.5q-41 -41 -107 -41q-67 0 -108 41q-66 67 -66 299q0 49 1.5 83.5t7.5 80.5t20.5 81.5t36.5 57.5q41 41 108 41q66 0 107 -41t53.5 -119t12.5 -182zM132 317q0 -190 37 -227q16 -16 43 -16q26 0 42 16q37 37 37 227v50
q0 176 -37 211q-16 16 -42 16q-27 0 -43 -16q-37 -35 -37 -211v-50zM167 755l86 129l68 -42l-107 -115z" />
    <glyph glyph-name="afii10037.var.accented" unicode="&#x423;`" horiz-adv-x="359" 
d="M8 667h94l41 -157q29 -115 40 -175q19 102 38 177l40 155h90l-183 -667h-88l61 213zM135 755l86 129l68 -42l-107 -115z" />
    <glyph glyph-name="afii10045.var.accented" unicode="&#x42b;`" horiz-adv-x="514" 
d="M462 0h-90v667h90v-667zM51 667h90v-285h10q91 0 135 -44q46 -47 46 -150q0 -105 -44 -149q-39 -39 -113 -39h-124v667zM141 306v-230h4q51 0 71 19q25 24 25 92q0 73 -28 99q-22 20 -69 20h-3zM213 755l86 129l68 -42l-107 -115z" />
    <glyph glyph-name="afii10047.var.accented" unicode="&#x42d;`" horiz-adv-x="369" 
d="M38 22v93q27 -37 79 -37q40 0 65 25q28 28 40.5 90t12.5 117h-155v76h154q-1 132 -49 180q-27 27 -65 27q-45 0 -82 -41v93q41 31 99 31q73 0 118 -44q76 -74 76 -263q0 -253 -84 -335q-45 -44 -113 -44q-57 0 -96 32zM110 755l86 129l68 -42l-107 -115z" />
    <glyph glyph-name="afii10048.var.accented" unicode="&#x42e;`" horiz-adv-x="597" 
d="M559 333q0 -66 -3 -111.5t-18.5 -103t-44.5 -86.5q-41 -41 -107 -41q-67 0 -108 41q-38 38 -51 108.5t-13 177.5v7h-73v-325h-90v667h90v-266h74q0 170 63 233q41 41 108 41q66 0 107 -41t53.5 -119t12.5 -182zM306 317q0 -190 37 -227q16 -16 43 -16q26 0 42 16
q37 37 37 227v50q0 176 -37 211q-16 16 -42 16q-27 0 -43 -16q-37 -35 -37 -211v-50zM254 755l86 129l68 -42l-107 -115z" />
    <glyph glyph-name="afii10049.var.accented" unicode="&#x42f;`" horiz-adv-x="356" 
d="M20 0l109 309q-39 6 -66 33q-42 41 -42 135q0 111 52 158q16 15 38 22.5t36 8.5t39 1h119v-667h-90v304l-103 -304h-92zM215 593h-24q-35 0 -54 -16q-29 -26 -29 -98t31 -94q20 -16 62 -16h14v224zM134 755l86 129l68 -42l-107 -115z" />
    <glyph glyph-name="afii10023.var.accented" unicode="&#x401;`" horiz-adv-x="321" 
d="M290 0h-239v667h239v-76h-149v-212h132v-76h-132v-227h149v-76zM116 755l79 129l50 -33l-100 -115zM106 778q0 -18 -12.5 -30.5t-29.5 -12.5q-19 0 -31 12.5t-12 30.5t12 30.5t31 12.5q17 0 29.5 -12.5t12.5 -30.5zM306 778q0 -18 -12 -30.5t-31 -12.5q-17 0 -29.5 12.5
t-12.5 30.5t12.5 30.5t29.5 12.5q19 0 31 -12.5t12 -30.5z" />
    <glyph glyph-name="afii10065.var.accented" unicode="&#x430;`" horiz-adv-x="349" 
d="M302 0h-83v57q-14 -32 -32 -48t-50 -16q-25 0 -44.5 11.5t-30.5 34t-18 44t-10 53t-3.5 49.5t-0.5 44t1 43.5t3.5 47.5t10 50.5t18.5 41t30.5 31.5t44.5 11q51 0 81 -58v51h83v-447zM222 199v48q0 132 -53 132q-54 0 -54 -125v-61q0 -126 54 -126q53 0 53 132zM130 541
l86 129l68 -42l-107 -115z" />
    <glyph glyph-name="afii10070.var.accented" unicode="&#x435;`" horiz-adv-x="326" 
d="M299 207h-188q0 -143 57 -143q51 0 51 87h77q-2 -59 -17 -90q-32 -68 -112 -68q-36 0 -62.5 15t-40.5 37t-22 55.5t-10 60t-2 61.5q0 43 4 76.5t16.5 72.5t41.5 61t73 22q36 0 62 -17.5t39.5 -42t21.5 -61.5t9.5 -64t1.5 -62zM111 267h104q-4 74 -18 96q-12 21 -34 21
q-46 0 -52 -110v-4v-3zM119 541l86 129l68 -42l-107 -115z" />
    <glyph glyph-name="afii10074.var.accented" unicode="&#x438;`" horiz-adv-x="370" 
d="M47 447h82v-223q0 -24 -3 -81q6 25 25 75l92 229h80v-447h-82v222q0 40 3 79q-9 -37 -27 -82l-90 -219h-80v447zM141 541l86 129l68 -42l-107 -115z" />
    <glyph glyph-name="afii10080.var.accented" unicode="&#x43e;`" horiz-adv-x="341" 
d="M225 192v59q0 91 -25 116q-12 12 -28 12t-28 -12q-25 -25 -25 -116v-59q0 -85 25 -110q12 -12 28 -12t28 12q25 25 25 110zM311 223q0 -146 -55 -198q-33 -32 -85 -32q-53 0 -86 32q-55 52 -55 198q0 147 55 199q33 32 86 32q52 0 85 -32q55 -52 55 -199zM126 541l86 129
l68 -42l-107 -115z" />
    <glyph glyph-name="afii10085.var.accented" unicode="&#x443;`" horiz-adv-x="326" 
d="M323 447l-185 -635h-87l71 224l-119 411h94l65 -312l77 312h84zM119 541l86 129l68 -42l-107 -115z" />
    <glyph glyph-name="afii10093.var.accented" unicode="&#x44b;`" horiz-adv-x="460" 
d="M413 0h-82v447h82v-447zM129 447v-171h14q82 0 121 -40q35 -35 35 -102q0 -68 -36 -102q-34 -32 -105 -32h-111v447h82zM129 70h20q35 0 50 14q16 16 16 50q0 36 -18 54t-58 18h-10v-136zM186 541l86 129l68 -42l-107 -115z" />
    <glyph glyph-name="afii10095.var.accented" unicode="&#x44d;`" horiz-adv-x="297" 
d="M36 15v87q11 -13 24 -21q16 -10 40 -10q28 0 45 16q32 30 32 105h-109v74h108q-2 62 -31 91q-18 18 -46 18q-21 0 -41 -13q-11 -8 -22 -21v89q31 24 80 24q60 0 96 -37q55 -57 55 -186q0 -147 -58 -204q-35 -34 -94 -34q-49 0 -79 22zM74 541l86 129l68 -42l-107 -115z
" />
    <glyph glyph-name="afii10096.var.accented" unicode="&#x44e;`" horiz-adv-x="492" 
d="M376 192v59q0 91 -25 116q-12 12 -28 12t-28 -12q-25 -25 -25 -116v-59q0 -84 25 -110q10 -12 28 -12q16 0 28 12q25 25 25 110zM462 223q0 -145 -55 -198q-34 -32 -88 -32q-52 0 -84 32q-51 51 -51 171h-55v-196h-82v447h82v-177h57q0 103 51 152q33 32 84 32
q53 0 86 -32q55 -52 55 -199zM202 541l86 129l68 -42l-107 -115z" />
    <glyph glyph-name="afii10097.var.accented" unicode="&#x44f;`" horiz-adv-x="323" 
d="M20 0l88 179q-36 7 -59 34q-25 30 -25 85q0 72 37 111q37 38 119 38h96v-447h-82v183l-83 -183h-91zM194 236v139h-18q-33 0 -49 -16q-19 -17 -19 -56q0 -36 19 -52q19 -15 50 -15h17zM117 541l86 129l68 -42l-107 -115z" />
    <glyph glyph-name="afii10071.var.accented" unicode="&#x451;`" horiz-adv-x="326" 
d="M299 207h-188q0 -143 57 -143q51 0 51 87h77q-2 -59 -17 -90q-32 -68 -112 -68q-36 0 -62.5 15t-40.5 37t-22 55.5t-10 60t-2 61.5q0 43 4 76.5t16.5 72.5t41.5 61t73 22q36 0 62 -17.5t39.5 -42t21.5 -61.5t9.5 -64t1.5 -62zM111 267h104q-4 74 -18 96q-12 21 -34 21
q-46 0 -52 -110v-4v-3zM112 541l80 129l50 -34l-101 -115zM110 573q0 -17 -11.5 -28.5t-28.5 -11.5q-16 0 -28 11.5t-12 28.5t12 28.5t28 11.5q17 0 28.5 -11.5t11.5 -28.5zM299 573q0 -17 -11.5 -28.5t-28.5 -11.5t-28.5 11.5t-11.5 28.5t11.5 28.5t28.5 11.5t28.5 -11.5
t11.5 -28.5z" />
    <glyph glyph-name="fi" unicode="fi" horiz-adv-x="373" 
d="M213 728v-87q-20 11 -35 11q-16 0 -25 -9t-10.5 -18.5t-2.5 -27.5q0 -5 -0.5 -16t-0.5 -17v-117h70v-66h-70v-381h-82v381h-42v66h42v154q0 32 3 53.5t13 43t31 32t53 10.5q26 0 56 -12zM337 581q0 -23 -16.5 -39.5t-38.5 -16.5q-23 0 -39.5 16.5t-16.5 39.5t16.5 39.5
t39.5 16.5q22 0 38.5 -16.5t16.5 -39.5zM326 0h-82v447h82v-447z" />
    <glyph glyph-name="fl" unicode="fl" horiz-adv-x="373" 
d="M213 728v-87q-20 11 -35 11q-16 0 -25 -9t-10.5 -18.5t-2.5 -27.5q0 -5 -0.5 -16t-0.5 -17v-117h70v-66h-70v-381h-82v381h-42v66h42v154q0 32 3 53.5t13 43t31 32t53 10.5q26 0 56 -12zM326 0h-82v729h82v-729z" />
    <glyph glyph-name=".notdef" horiz-adv-x="233" 
 />
    <glyph glyph-name=".null" horiz-adv-x="0" 
 />
    <glyph glyph-name="nonmarkingreturn" horiz-adv-x="333" 
 />
    <glyph glyph-name="space" unicode=" " horiz-adv-x="233" 
 />
    <glyph glyph-name="exclam" unicode="!" horiz-adv-x="246" 
d="M167 180h-87v487h87v-487zM176 47q0 -23 -15.5 -38.5t-37.5 -15.5t-37.5 16t-15.5 38t15.5 37.5t37.5 15.5t37.5 -15.5t15.5 -37.5z" />
    <glyph glyph-name="quotedbl" unicode="&#x22;" horiz-adv-x="342" 
d="M290 667l-14 -268h-61l-14 268h89zM141 667l-15 -268h-60l-15 268h90z" />
    <glyph glyph-name="numbersign" unicode="#" horiz-adv-x="600" 
d="M581 477l-11 -74h-107l-19 -126h108l-11 -74h-109l-31 -203h-84l31 203h-127l-31 -203h-83l31 203h-110l12 74h110l19 126h-110l12 74h109l30 190h83l-30 -190h127l30 190h84l-30 -190h107zM379 403h-127l-19 -126h127z" />
    <glyph glyph-name="dollar" unicode="$" horiz-adv-x="380" 
d="M339 575l-69 -33q-16 62 -77 62q-38 0 -56 -26t-18 -66q0 -41 19 -68q17 -24 54.5 -48t75 -49.5t54.5 -54.5q24 -40 24 -107q0 -84 -33 -135q-25 -41 -93 -57v-84h-60v84q-48 7 -75 29.5t-45 74.5l73 35q11 -32 27.5 -45.5t49.5 -13.5q71 0 71 100q0 47 -21 75
q-14 18 -64 49q-52 33 -78.5 55.5t-44.5 60.5t-18 91q0 69 32.5 117.5t92.5 53.5v76h60v-76q93 -11 119 -100z" />
    <glyph glyph-name="percent" unicode="%" horiz-adv-x="515" 
d="M223 497q0 -34 -3 -59.5t-12.5 -52.5t-30 -41.5t-51.5 -14.5t-51 14.5t-28.5 42t-11.5 52.5t-3 59q0 29 1.5 50t7 46t15 41t27.5 26.5t43 10.5q31 0 51.5 -14.5t30 -42t12.5 -54t3 -63.5zM164 476v49q0 92 -36 92t-36 -82v-65q0 -87 36 -87t36 93zM427 667l-291 -667h-55
l291 667h55zM483 163q0 -34 -3 -59.5t-12.5 -52.5t-30 -41.5t-51.5 -14.5t-51 14.5t-28.5 42t-11.5 52.5t-3 59q0 29 1.5 50t7 46t15 41t27.5 26.5t43 10.5q31 0 51.5 -14.5t30 -42t12.5 -54t3 -63.5zM424 142v49q0 92 -36 92t-36 -82v-65q0 -87 36 -87t36 93z" />
    <glyph glyph-name="ampersand" unicode="&#x26;" horiz-adv-x="446" 
d="M426 0h-89l-31 52q-21 -23 -46 -38q-29 -18 -68 -18q-62 0 -102 41q-50 52 -50 136q0 56 33 109q25 41 68 78q-22 32 -40 79q-16 48 -16 94q0 65 37 104q35 38 90 38q53 0 88 -35q35 -38 35 -98q0 -57 -29 -109q-28 -50 -74 -86l92 -169q31 37 55 78l44 -60
q-28 -46 -62 -83zM199 408q33 31 50 71q14 33 14 65q0 34 -15 50q-11 13 -32 13q-20 0 -34 -15q-19 -21 -19 -60q0 -28 10 -60q9 -33 26 -64zM269 113l-93 179q-52 -49 -52 -119q0 -41 19 -70q22 -32 57 -32q37 0 69 42z" />
    <glyph glyph-name="quotesingle" unicode="'" horiz-adv-x="192" 
d="M141 667l-15 -268h-60l-15 268h90z" />
    <glyph glyph-name="parenleft" unicode="(" horiz-adv-x="266" 
d="M226 -171l-87 -23q-88 252 -88 461q0 230 88 473l87 -21q-82 -263 -82 -439q0 -187 82 -451z" />
    <glyph glyph-name="parenright" unicode=")" horiz-adv-x="265" 
d="M127 -194l-87 23q82 264 82 451q0 176 -82 439l87 21q88 -243 88 -473q0 -209 -88 -461z" />
    <glyph glyph-name="asterisk" unicode="*" horiz-adv-x="387" 
d="M339 603l-107 -26l72 -89l-47 -32l-60 93l-64 -95l-45 31l70 90l-110 28l18 54l105 -38l-4 110h56l-3 -111l101 40z" />
    <glyph glyph-name="plus" unicode="+" 
d="M467 296h-176v-168h-82v168h-176v76h176v168h82v-168h176v-76z" />
    <glyph glyph-name="comma" unicode="," horiz-adv-x="180" 
d="M137 72l-78 -215l-46 13l52 223z" />
    <glyph glyph-name="hyphen" unicode="-" horiz-adv-x="255" 
d="M205 295v-78h-155v78h155z" />
    <glyph glyph-name="period" unicode="." horiz-adv-x="187" 
d="M147 47q0 -23 -15.5 -38.5t-38.5 -15.5q-22 0 -37.5 16t-15.5 38t15.5 37.5t37.5 15.5t38 -15.5t16 -37.5z" />
    <glyph glyph-name="slash" unicode="/" horiz-adv-x="397" 
d="M410 729l-396 -912h-71l397 912h70z" />
    <glyph glyph-name="zero" unicode="0" horiz-adv-x="380" 
d="M341 363q0 -70 -0.5 -101.5t-8 -91.5t-23.5 -96q-35 -82 -119 -82q-31 0 -55.5 13t-40 31.5t-26.5 48.5t-16.5 55.5t-8.5 62t-3.5 57t-0.5 51.5v20v57.5t3 62t8 66.5t16 59t27 52.5t40.5 33t56.5 13.5q35 0 62 -15t43 -43.5t26 -57t14 -70t5 -66t1 -60.5zM249 332
q0 65 -2 98q-4 165 -58 165t-58 -165q-2 -33 -2 -98q0 -69 2 -103q4 -159 58 -159t58 159q2 34 2 103z" />
    <glyph glyph-name="one" unicode="1" horiz-adv-x="380" 
d="M238 0h-86v590h-66v77h152v-667z" />
    <glyph glyph-name="two" unicode="2" horiz-adv-x="380" 
d="M49 450v26q0 47 4.5 78t19 61t45 45t77.5 15q145 0 145 -163q0 -114 -110 -318q-55 -101 -62 -117h165v-77h-293q13 29 94 197q80 164 100 228q16 52 16 90q0 33 -13.5 57.5t-44.5 24.5q-14 0 -24.5 -5.5t-16.5 -17t-9.5 -21t-4.5 -28t-1.5 -27t0.5 -27.5t1 -21h-88z" />
    <glyph glyph-name="three" unicode="3" horiz-adv-x="380" 
d="M56 488v16q0 82 27.5 126.5t104.5 44.5q79 0 110 -45.5t31 -128.5q0 -85 -24 -121q-15 -22 -50 -36q43 -14 61 -44q21 -36 21 -113q0 -93 -35 -144t-123 -51q-136 0 -136 158q0 11 1 17h84q0 -3 -0.5 -10t-0.5 -11q0 -30 14 -52.5t42 -22.5q22 0 36 12t19.5 35t6.5 38
t1 40q0 53 -16 83.5t-64 30.5q-7 0 -23 -2v78q65 0 83.5 22t18.5 89q0 100 -53 100q-18 0 -29.5 -9.5t-15.5 -28.5t-5 -31.5t-1 -33.5v-6h-85z" />
    <glyph glyph-name="four" unicode="4" horiz-adv-x="380" 
d="M341 169h-42v-169h-84v169h-182v76l182 422h84v-430h42v-68zM215 237v276l-117 -276h117z" />
    <glyph glyph-name="five" unicode="5" horiz-adv-x="380" 
d="M183 589l-22 -167q174 0 174 -191q0 -100 -44.5 -169.5t-139.5 -69.5q-45 0 -106 28l22 79q45 -24 78 -24q50 0 72.5 46t22.5 102q0 128 -110 128q-25 0 -54 -8l38 324h212v-78h-143z" />
    <glyph glyph-name="six" unicode="6" horiz-adv-x="380" 
d="M182 667h95q-13 -30 -62 -129q-31 -64 -68 -158q36 30 72 30q62 0 92 -60q22 -44 22 -153q0 -35 -2.5 -61t-11 -54.5t-23.5 -47t-41.5 -30.5t-62.5 -12q-39 0 -66.5 14.5t-42.5 35t-23.5 53.5t-10.5 60.5t-2 64.5q0 82 20 163.5t44 135.5t71 148zM247 199q0 69 -12 99
q-13 30 -44 30q-32 0 -43 -30q-13 -34 -13 -97q0 -131 56 -131t56 129z" />
    <glyph glyph-name="seven" unicode="7" horiz-adv-x="380" 
d="M348 667l-202 -667h-96l185 591h-185v76h298z" />
    <glyph glyph-name="eight" unicode="8" horiz-adv-x="380" 
d="M334 187q0 -195 -144 -195q-45 0 -75 17t-44 48.5t-19.5 64.5t-5.5 76q0 90 28 130q17 23 51 34q-37 15 -52 43q-21 38 -21 106q0 87 38 130q31 34 105 34t103.5 -43.5t29.5 -121.5q0 -67 -21 -105q-15 -28 -51 -43q34 -12 50 -34q28 -38 28 -141zM239 504q0 93 -49 93
t-49 -93q0 -103 49 -103t49 103zM245 196q0 117 -55 117q-20 0 -32.5 -13t-16.5 -38.5t-5 -38.5t-1 -38q0 -114 55 -114q10 0 18.5 3.5t14 11t10 14t6.5 19.5t3.5 19.5t2 21.5t0.5 18.5v17.5z" />
    <glyph glyph-name="nine" unicode="9" horiz-adv-x="380" 
d="M195 0h-96q14 30 42.5 87t50.5 103.5t39 89.5q-33 -27 -68 -27q-56 0 -88 49q-28 44 -28 149q0 37 2 63.5t10 59t23 53t42.5 34.5t65.5 14t65.5 -14.5t42.5 -35.5t23 -54t10 -60t2 -64q0 -96 -23 -176.5t-72 -181.5q-28 -60 -43 -89zM245 465q0 128 -56 128
q-11 0 -19.5 -4t-14 -12.5t-9.5 -16t-6.5 -21.5t-4 -21.5t-2 -24t-0.5 -20v-17.5q0 -123 56 -123q11 0 19.5 3.5t14 12t9.5 15.5t6.5 20.5t4 20.5t2 23t0.5 19.5v17.5z" />
    <glyph glyph-name="colon" unicode=":" horiz-adv-x="187" 
d="M147 400q0 -22 -16 -37.5t-38 -15.5t-37.5 15.5t-15.5 37.5t15.5 37.5t37.5 15.5t38 -15.5t16 -37.5zM147 47q0 -23 -15.5 -38.5t-38.5 -15.5q-22 0 -37.5 16t-15.5 38t15.5 37.5t37.5 15.5t38 -15.5t16 -37.5z" />
    <glyph glyph-name="semicolon" unicode=";" horiz-adv-x="180" 
d="M142 400q0 -22 -15.5 -37.5t-38.5 -15.5q-22 0 -37.5 15.5t-15.5 37.5t15.5 37.5t37.5 15.5q23 0 38.5 -15.5t15.5 -37.5zM137 72l-78 -215l-46 13l52 223z" />
    <glyph glyph-name="less" unicode="&#x3c;" 
d="M467 90l-434 206v70l434 206v-82l-347 -159l346 -160z" />
    <glyph glyph-name="equal" unicode="=" 
d="M467 383h-434v72h434v-72zM467 228h-434v72h434v-72z" />
    <glyph glyph-name="greater" unicode="&#x3e;" 
d="M467 295l-434 -205v81l347 160l-346 160l-1 81l434 -206v-71z" />
    <glyph glyph-name="question" unicode="?" horiz-adv-x="329" 
d="M40 502v25q0 75 26 111.5t98 36.5q42 0 69 -16.5t38.5 -49t14.5 -60.5t3 -71q0 -56 -6 -92q-6 -43 -25 -65t-61 -24v-117h-78v176q3 0 9.5 -0.5t9.5 -0.5q42 0 55.5 25.5t13.5 70.5q0 7 -0.5 21t-0.5 20q0 110 -48 110q-39 0 -39 -71q0 -6 0.5 -15.5t0.5 -13.5h-80z
M211 47q0 -23 -15.5 -38.5t-38.5 -15.5q-22 0 -37.5 16t-15.5 38t15.5 37.5t37.5 15.5t38 -15.5t16 -37.5z" />
    <glyph glyph-name="at" unicode="@" horiz-adv-x="733" 
d="M594 84l16 -52q-100 -45 -221 -45q-154 0 -255 95t-101 248q0 147 100.5 246.5t247.5 99.5q132 0 224 -82.5t92 -212.5q0 -49 -15 -94q-18 -56 -57.5 -98.5t-91.5 -42.5q-29 0 -49.5 17.5t-24.5 46.5q-46 -69 -124 -69q-64 0 -102 47.5t-38 112.5q0 78 49 140t125 62
q78 0 109 -71l11 59h59l-41 -207q-6 -30 -6 -45q0 -18 8.5 -31t26.5 -13q33 0 59 34t37 73q12 37 12 78q0 109 -75 176t-186 67q-124 0 -208.5 -85t-84.5 -209q0 -122 80 -205t218 -83q113 0 206 43zM458 350q0 40 -21.5 66.5t-60.5 26.5q-51 0 -83.5 -43.5t-32.5 -96.5
q0 -43 23.5 -73t64.5 -30q52 0 81 47t29 103z" />
    <glyph glyph-name="A" unicode="A" horiz-adv-x="360" 
d="M359 0h-89l-25 130h-132l-25 -130h-87l145 667h71zM126 199h106q-40 223 -52 338q-10 -103 -54 -338z" />
    <glyph glyph-name="B" unicode="B" horiz-adv-x="364" 
d="M51 667h122q143 0 143 -178q0 -71 -25 -109q-17 -27 -59 -41q41 -15 59 -35q35 -37 35 -121q0 -183 -157 -183h-118v667zM136 373h6q53 0 70 29.5t17 86.5q0 105 -78 105h-15v-221zM136 302v-225q39 0 56 8q41 19 41 101q0 60 -19.5 88t-77.5 28z" />
    <glyph glyph-name="C" unicode="C" horiz-adv-x="337" 
d="M313 92v-82q-32 -19 -73 -19q-202 0 -202 331q0 354 200 354q39 0 75 -20v-81q-31 17 -58 17q-29 0 -51 -13t-34.5 -38t-20.5 -49t-11 -59.5t-4 -55.5t-1 -50q0 -248 127 -248q27 0 53 13z" />
    <glyph glyph-name="D" unicode="D" horiz-adv-x="411" 
d="M51 667h111q53 0 87 -12t64 -49q27 -33 41 -88t16.5 -95t2.5 -99q0 -203 -64 -271q-22 -23 -56 -35.5t-61 -15t-68 -2.5h-73v667zM141 78h4q61 0 89 28t38 91q7 48 7 124q0 78 -6 130q-9 68 -34 104t-87 36h-11v-513z" />
    <glyph glyph-name="E" unicode="E" horiz-adv-x="321" 
d="M290 0h-239v667h239v-76h-149v-212h132v-76h-132v-227h149v-76z" />
    <glyph glyph-name="F" unicode="F" horiz-adv-x="309" 
d="M291 591h-150v-211h136v-76h-136v-304h-90v667h240v-76z" />
    <glyph glyph-name="G" unicode="G" horiz-adv-x="412" 
d="M374 351v-26q0 -159 -19 -226q-30 -108 -141 -108q-79 0 -115.5 47t-50.5 132q-10 66 -10 160q0 155 24 236q33 109 148 109q68 0 104 -33.5t56 -102.5l-84 -35q-6 29 -11.5 45.5t-22.5 31.5t-43 15q-35 0 -54 -35q-24 -45 -24 -228q0 -118 12 -183q7 -36 21.5 -55.5
t47.5 -19.5q26 0 43 14.5t23.5 42t8.5 47t2 47.5v49h-78v76h163z" />
    <glyph glyph-name="H" unicode="H" horiz-adv-x="414" 
d="M363 0h-90v330h-132v-330h-90v667h90v-261h132v261h90v-667z" />
    <glyph glyph-name="I" unicode="I" horiz-adv-x="193" 
d="M141 0h-90v667h90v-667z" />
    <glyph glyph-name="J" unicode="J" horiz-adv-x="259" 
d="M207 667v-518q0 -51 -10 -80q-27 -78 -122 -78q-44 0 -77 18v90q40 -23 60 -23q15 0 25.5 4t17 13.5t10 17t5 23.5t1.5 22v24v487h90z" />
    <glyph glyph-name="K" unicode="K" horiz-adv-x="372" 
d="M367 0h-101l-125 327v-327h-90v667h90v-306l125 306h91l-135 -323z" />
    <glyph glyph-name="L" unicode="L" horiz-adv-x="293" 
d="M288 0h-237v667h90v-591h147v-76z" />
    <glyph glyph-name="M" unicode="M" horiz-adv-x="504" 
d="M482 0h-87q-15 228 -17 277q0 15 -2 44.5t-2 44.5q-1 17 -0.5 31t0 31t-2.5 31q-9 -59 -85 -459h-60q-6 30 -23.5 110.5t-26 122t-20 107t-18.5 119.5l-26 -459h-84l55 667h77l58 -272q1 -8 5.5 -24t5.5 -24q13 -72 25 -162q0 2 15 94q2 12 5.5 36.5t5.5 36.5
q2 8 5.5 23.5t4.5 23.5l52 268h78z" />
    <glyph glyph-name="N" unicode="N" horiz-adv-x="413" 
d="M362 0h-84q-90 268 -110 331q-18 54 -25 82q-3 13 -10 47.5t-12 52.5q3 -22 8 -101q7 -114 11 -412h-89v667h84q5 -15 33 -96t37 -110t29.5 -91.5t33.5 -111t25 -98.5q-21 160 -21 254v253h90v-667z" />
    <glyph glyph-name="O" unicode="O" horiz-adv-x="423" 
d="M385 321q0 -92 -10 -157q-14 -83 -49.5 -128t-112.5 -45q-93 0 -134 75q-41 74 -41 283q0 170 36 245q39 81 137 81q89 0 131 -71q43 -74 43 -283zM291 346q0 125 -14 185q-14 63 -66 63q-33 0 -52 -28q-27 -38 -27 -194q0 -155 9 -211q15 -87 71 -87q44 0 62 48
q17 48 17 224z" />
    <glyph glyph-name="P" unicode="P" horiz-adv-x="351" 
d="M51 667h118q63 0 98 -21q66 -40 66 -165q0 -110 -58 -155q-39 -30 -134 -30v-296h-90v667zM141 373h8q52 0 71 26t19 80q0 112 -86 112h-12v-218z" />
    <glyph glyph-name="Q" unicode="Q" horiz-adv-x="423" 
d="M404 -10l-57 -41l-46 66q-39 -24 -86 -24q-93 0 -135 76t-42 294q0 37 0.5 57.5t3.5 58.5t9 61t19 52t30.5 45.5t45.5 28t63 11.5q92 0 131 -69q45 -77 45 -288q0 -180 -38 -250zM245 212l37 -53q9 58 9 157q0 155 -15 216t-67 61q-27 0 -44.5 -19t-23.5 -55t-7.5 -58
t-1.5 -57v-11q0 -10 -0.5 -55t0 -64t2.5 -52.5t7 -60.5q7 -39 22 -62.5t49 -23.5q20 0 36 12l-57 82z" />
    <glyph glyph-name="R" unicode="R" horiz-adv-x="373" 
d="M355 0h-92l-122 311v-311h-90v667h119q64 0 97 -25q57 -43 57 -149q0 -37 -7 -69t-30 -62t-59 -38zM141 593v-222q46 0 65 16q31 26 31 90q0 57 -18 88q-17 28 -63 28h-15z" />
    <glyph glyph-name="S" unicode="S" horiz-adv-x="330" 
d="M274 653l-1 -88q-39 30 -73 30q-37 0 -59 -26t-22 -63q0 -34 19 -64t46.5 -56t55 -54.5t46.5 -70.5t19 -93q0 -74 -41.5 -125.5t-113.5 -51.5q-56 0 -98 32v89q47 -35 87 -35q38 0 58.5 26t20.5 65q0 38 -19.5 70t-46.5 57.5t-54.5 53t-47 67.5t-19.5 89q0 75 39 122.5
t112 47.5q49 0 92 -22z" />
    <glyph glyph-name="T" unicode="T" horiz-adv-x="288" 
d="M290 588h-102v-588h-88v588h-102v79h292v-79z" />
    <glyph glyph-name="U" unicode="U" horiz-adv-x="409" 
d="M358 667v-490q0 -95 -32 -140.5t-123 -45.5q-86 0 -119 47t-33 136v493h88v-490q0 -23 2 -37.5t8 -31t20.5 -24.5t36.5 -8q19 0 32 6.5t19 14t9 24.5t3.5 25.5t0.5 30.5v490h88z" />
    <glyph glyph-name="V" unicode="V" horiz-adv-x="327" 
d="M329 667l-131 -667h-71l-129 667h89q42 -258 61 -388q12 -76 16 -114q2 27 15 108q3 17 10.5 68.5t12.5 79.5l43 246h84z" />
    <glyph glyph-name="W" unicode="W" horiz-adv-x="524" 
d="M523 667l-118 -667h-70q-2 14 -23 142.5t-31 195.5q-2 11 -5.5 33.5t-4.5 33.5l-9 90q-4 -62 -8 -93q-14 -107 -65 -402h-72l-116 667h87q49 -322 53 -356q3 -28 7.5 -79t6.5 -67q5 59 14.5 129.5t17.5 118.5t22 132.5t20 121.5h69q61 -374 73 -497q2 34 10 97
q6 49 56 400h86z" />
    <glyph glyph-name="X" unicode="X" horiz-adv-x="332" 
d="M334 0h-90q-7 20 -21.5 60t-23 64.5t-18 59.5t-15.5 65q-3 -30 -27 -103q-25 -82 -46 -146h-95l127 339l-119 328h87q5 -13 20.5 -54.5t25 -67.5t20 -61t13.5 -58q8 37 19 74.5t29.5 93.5t23.5 73h90l-123 -328z" />
    <glyph glyph-name="Y" unicode="Y" horiz-adv-x="341" 
d="M343 667l-116 -380v-287h-90v287l-139 380h95l54 -179q23 -76 33 -130q12 74 26 132l44 177h93z" />
    <glyph glyph-name="Z" unicode="Z" horiz-adv-x="334" 
d="M329 667l-201 -588h190v-79h-307l202 591h-178v76h294z" />
    <glyph glyph-name="bracketleft" unicode="[" horiz-adv-x="312" 
d="M279 -183h-212v912h212v-76h-122v-760h122v-76z" />
    <glyph glyph-name="backslash" unicode="\" horiz-adv-x="397" 
d="M-13 729h70l397 -912h-71z" />
    <glyph glyph-name="bracketright" unicode="]" horiz-adv-x="312" 
d="M33 -183v76h122v760h-122v76h212v-912h-212z" />
    <glyph glyph-name="asciicircum" unicode="^" 
d="M478 358h-88l-141 244l-139 -244h-88l174 309h108z" />
    <glyph glyph-name="underscore" unicode="_" 
d="M500 -134h-500v70h500v-70z" />
    <glyph glyph-name="grave" unicode="`" 
d="M294 541l-47 -28l-107 115l68 42z" />
    <glyph glyph-name="a" unicode="a" horiz-adv-x="349" 
d="M302 0h-83v57q-14 -32 -32 -48t-50 -16q-25 0 -44.5 11.5t-30.5 34t-18 44t-10 53t-3.5 49.5t-0.5 44t1 43.5t3.5 47.5t10 50.5t18.5 41t30.5 31.5t44.5 11q51 0 81 -58v51h83v-447zM222 199v48q0 132 -53 132q-54 0 -54 -125v-61q0 -126 54 -126q53 0 53 132z" />
    <glyph glyph-name="b" unicode="b" horiz-adv-x="349" 
d="M129 729v-333q16 30 33.5 44t47.5 14q37 0 61 -22.5t33.5 -63.5t12 -70t2.5 -69q0 -26 -0.5 -44t-3.5 -49.5t-10 -53t-18 -44t-30.5 -34t-44.5 -11.5q-32 0 -50 15.5t-33 48.5v-57h-82v729h82zM233 193v61q0 125 -54 125q-52 0 -52 -126v-60q0 -126 52 -126q54 0 54 126z
" />
    <glyph glyph-name="c" unicode="c" horiz-adv-x="253" 
d="M229 88v-77q-31 -18 -66 -18q-133 0 -133 228q0 43 4 77t16.5 73t41.5 61t73 22q33 0 64 -16v-84q-16 21 -41 21q-68 0 -68 -148q0 -156 67 -156q22 0 42 17z" />
    <glyph glyph-name="d" unicode="d" horiz-adv-x="349" 
d="M302 0h-83v57q-14 -32 -32 -48t-50 -16q-25 0 -44.5 11.5t-30.5 34t-18 44t-10 53t-3.5 49.5t-0.5 44q0 22 0.5 37t2.5 40.5t6 43.5t12 39t19.5 34t29 22t39.5 9q30 0 47.5 -14t32.5 -44v333h83v-729zM222 199v48q0 132 -53 132q-54 0 -54 -125v-61q0 -126 54 -126
q53 0 53 132z" />
    <glyph glyph-name="e" unicode="e" horiz-adv-x="326" 
d="M299 207h-188q0 -143 57 -143q51 0 51 87h77q-2 -59 -17 -90q-32 -68 -112 -68q-36 0 -62.5 15t-40.5 37t-22 55.5t-10 60t-2 61.5q0 43 4 76.5t16.5 72.5t41.5 61t73 22q36 0 62 -17.5t39.5 -42t21.5 -61.5t9.5 -64t1.5 -62zM111 267h104q-4 74 -18 96q-12 21 -34 21
q-46 0 -52 -110v-4v-3z" />
    <glyph glyph-name="f" unicode="f" horiz-adv-x="217" 
d="M213 728v-87q-20 11 -35 11q-16 0 -25 -9t-10.5 -18.5t-2.5 -27.5q0 -5 -0.5 -16t-0.5 -17v-117h70v-66h-70v-381h-82v381h-42v66h42v154q0 32 3 53.5t13 43t31 32t53 10.5q26 0 56 -12z" />
    <glyph glyph-name="g" unicode="g" horiz-adv-x="349" 
d="M303 447v-477q0 -80 -31 -119t-109 -39q-57 0 -92 34.5t-35 91.5q0 2 0.5 7t0.5 8h80q0 -72 53 -72q32 0 41 20.5t9 57.5v96q-27 -62 -81 -62q-22 0 -39.5 9t-29 22.5t-19.5 35.5t-12 40t-6 44t-2.5 41t-0.5 37q0 33 1 55t6.5 59t16 59.5t32.5 40.5t53 18q30 0 47 -15
t34 -46v54h83zM221 229q0 150 -55 150q-9 0 -16.5 -4t-13 -13t-9 -18t-6 -23.5t-4 -24.5t-2 -26.5t-0.5 -23.5v-22v-16q0 -141 56 -141q16 0 26 8.5t14.5 27t6 28.5t2.5 30q1 23 1 68z" />
    <glyph glyph-name="h" unicode="h" horiz-adv-x="358" 
d="M311 0h-82v298q-1 19 -2 29t-5 25t-14.5 22.5t-26.5 7.5q-18 0 -29.5 -8t-16 -25t-5.5 -28.5t-1 -31.5v-289h-82v729h82v-334q19 30 39.5 44.5t52.5 14.5q28 0 46.5 -10t27.5 -29t12.5 -39t3.5 -46v-330z" />
    <glyph glyph-name="i" unicode="i" horiz-adv-x="176" 
d="M140 581q0 -23 -16.5 -39.5t-38.5 -16.5q-23 0 -39.5 16.5t-16.5 39.5t16.5 39.5t39.5 16.5q22 0 38.5 -16.5t16.5 -39.5zM129 0h-82v447h82v-447z" />
    <glyph glyph-name="j" unicode="j" horiz-adv-x="176" 
d="M140 581q0 -23 -16.5 -39.5t-38.5 -16.5q-23 0 -39.5 16.5t-16.5 39.5t16.5 39.5t39.5 16.5q22 0 38.5 -16.5t16.5 -39.5zM129 -188h-82v635h82v-635z" />
    <glyph glyph-name="k" unicode="k" horiz-adv-x="346" 
d="M342 0h-96l-117 218v-218h-82v729h82v-475l105 193h93l-119 -204z" />
    <glyph glyph-name="l" unicode="l" horiz-adv-x="176" 
d="M129 0h-82v729h82v-729z" />
    <glyph glyph-name="m" unicode="m" horiz-adv-x="540" 
d="M485 0h-82v294q0 55 -12 70q-11 15 -34 15q-15 0 -25 -6t-15 -12t-7.5 -21t-2.5 -21.5v-24.5v-294h-82v294q0 21 -0.5 30t-4.5 25t-14.5 23t-27.5 7q-15 0 -25 -6t-14.5 -12t-7 -21t-2.5 -21.5v-24.5v-294h-82v447h82v-55q18 31 37 46.5t50 15.5q33 0 50.5 -14.5
t29.5 -47.5q17 32 38 47t55 15q47 0 71.5 -25.5t24.5 -72.5v-356z" />
    <glyph glyph-name="n" unicode="n" horiz-adv-x="358" 
d="M311 0h-82v290q-1 22 -2 33.5t-5 27.5t-14.5 23.5t-26.5 7.5q-18 0 -29.5 -8t-16 -25t-5.5 -28.5t-1 -31.5v-289h-82v447h82v-52q19 30 39.5 44.5t52.5 14.5q28 0 46.5 -10t27.5 -29t12.5 -39t3.5 -46v-330z" />
    <glyph glyph-name="o" unicode="o" horiz-adv-x="341" 
d="M311 223q0 -44 -4.5 -78t-18 -72t-43.5 -59t-75 -21q-36 0 -62.5 15t-41 37.5t-23 55.5t-11 60.5t-2.5 61.5t2 61.5t10.5 61t23 55.5t41.5 37.5t63 15.5q45 0 75 -21t43.5 -59t18 -72.5t4.5 -78.5zM225 197v54q0 128 -53 128t-53 -127v-54q0 -128 53 -128t53 127z" />
    <glyph glyph-name="p" unicode="p" horiz-adv-x="349" 
d="M129 447v-58q14 32 32.5 48.5t50.5 16.5q25 0 44.5 -11.5t30.5 -34t18 -44t10 -53t3.5 -49.5t0.5 -44q0 -32 -1 -54t-7 -57.5t-16.5 -57.5t-32.5 -39t-53 -17q-30 0 -47.5 14t-32.5 43v-238h-82v635h82zM233 193v61q0 125 -54 125q-52 0 -52 -133v-46q0 -133 52 -133
q54 0 54 126z" />
    <glyph glyph-name="q" unicode="q" horiz-adv-x="349" 
d="M302 -188h-83v238q-15 -29 -32.5 -43t-47.5 -14q-22 0 -39.5 9t-29 22t-19.5 34t-12 39t-6 43.5t-2.5 40.5t-0.5 37q0 26 0.5 44t3.5 49.5t10 53t18 44t30.5 34t44.5 11.5q32 0 49.5 -16t32.5 -49v58h83v-635zM222 199v48q0 132 -53 132q-54 0 -54 -125v-61
q0 -126 54 -126q53 0 53 132z" />
    <glyph glyph-name="r" unicode="r" horiz-adv-x="236" 
d="M226 457v-86q-5 1 -15 1q-48 0 -65 -25.5t-17 -75.5v-271h-82v447h82v-56q20 34 40.5 49t56.5 17z" />
    <glyph glyph-name="s" unicode="s" horiz-adv-x="260" 
d="M219 438v-77q-28 22 -63 22q-21 0 -37 -14.5t-16 -35.5q0 -20 14 -37t34.5 -31.5t41 -31.5t34.5 -45t14 -63q0 -59 -34.5 -95.5t-93.5 -36.5q-38 0 -73 21v80q35 -27 68 -27q27 0 42 14.5t15 41.5q0 22 -14.5 41t-35 34t-41 32.5t-35 44t-14.5 60.5q0 54 33 88t87 34
q39 0 74 -19z" />
    <glyph glyph-name="t" unicode="t" horiz-adv-x="196" 
d="M184 383h-45v-383h-82v383h-46v64h46v127h82v-127h45v-64z" />
    <glyph glyph-name="u" unicode="u" horiz-adv-x="359" 
d="M313 447v-302q0 -78 -30 -115.5t-107 -37.5q-70 0 -104 45q-25 33 -25 108v302h82v-268q0 -5 0.5 -15.5t0.5 -15.5q1 -25 2.5 -38t13.5 -26t34 -13q15 0 25 5.5t15.5 12.5t8 21t2.5 22t-0.5 25t-0.5 22v268h83z" />
    <glyph glyph-name="v" unicode="v" horiz-adv-x="300" 
d="M297 447l-117 -447h-56l-121 447h89q53 -237 60 -338q2 8 13 82q6 39 14 79t21 99t17 78h80z" />
    <glyph glyph-name="w" unicode="w" horiz-adv-x="449" 
d="M442 447l-105 -447h-57l-34 170q-12 60 -15 91q-1 11 -2.5 33.5t-2.5 33.5q-2 -39 -9 -87t-11.5 -73.5t-17.5 -90.5t-15 -77h-58l-108 447h87l11 -60.5t12.5 -70.5t9.5 -60q5 -38 16 -130q3 43 17 122q6 33 18.5 99.5t18.5 99.5h60q2 -13 39 -217q0 -2 12 -104
q3 38 9.5 83.5t12 75t16.5 85.5t15 77h81z" />
    <glyph glyph-name="x" unicode="x" horiz-adv-x="332" 
d="M329 0h-99q-1 3 -18 38.5t-25 54t-18 46t-12 42.5q-2 -18 -11 -44.5t-17 -45.5t-21.5 -50t-17.5 -41h-87l112 236l-112 211h98q51 -111 63 -153q8 38 57 153h87l-101 -211z" />
    <glyph glyph-name="y" unicode="y" horiz-adv-x="326" 
d="M323 447l-185 -635h-87l71 224l-119 411h94l65 -312l77 312h84z" />
    <glyph glyph-name="z" unicode="z" horiz-adv-x="298" 
d="M285 447l-150 -372h142v-75h-264l155 374h-143v73h260z" />
    <glyph glyph-name="braceleft" unicode="{" 
d="M376 -183h-38q-77 0 -108.5 35t-31.5 112v186q0 39 -11.5 61.5t-45.5 30.5v67q57 14 57 86v196q0 73 34 105.5t108 32.5q24 0 36 -1v-70q-56 -1 -76.5 -15.5t-20.5 -68.5v-184q0 -46 -12 -71.5t-49 -45.5q36 -20 48.5 -47.5t12.5 -72.5v-178q0 -61 26 -76q20 -11 71 -11
v-71z" />
    <glyph glyph-name="bar" unicode="|" 
d="M291 -250h-82v1000h82v-1000z" />
    <glyph glyph-name="braceright" unicode="}" 
d="M137 -183v71q51 0 71 11q26 15 26 76v178q0 45 12.5 72.5t48.5 47.5q-37 20 -49 45.5t-12 71.5v184q0 54 -20.5 68.5t-76.5 15.5v70q12 1 36 1q74 0 108 -32.5t34 -105.5v-196q0 -72 57 -86v-67q-34 -8 -45.5 -30.5t-11.5 -61.5v-186q0 -77 -31.5 -112t-108.5 -35h-38z
" />
    <glyph glyph-name="asciitilde" unicode="~" horiz-adv-x="667" 
d="M525 730l49 -28q-20 -42 -36 -61q-45 -55 -111 -55q-35 0 -103 31.5t-98 31.5q-50 0 -86 -70l-47 31q27 57 57 87.5t82 30.5q38 0 106.5 -31.5t99.5 -31.5q30 0 49 16.5t38 48.5z" />
    <glyph glyph-name="uni00A0" unicode="&#xa0;" horiz-adv-x="233" 
 />
    <glyph glyph-name="exclamdown" unicode="&#xa1;" horiz-adv-x="246" 
d="M176 401q0 -23 -15.5 -38.5t-37.5 -15.5t-37.5 16t-15.5 38t15.5 37.5t37.5 15.5t37.5 -15.5t15.5 -37.5zM167 -220h-87v487h87v-487z" />
    <glyph glyph-name="cent" unicode="&#xa2;" horiz-adv-x="380" 
d="M287 187v-73q-16 -10 -34 -13v-78h-60v78q-36 9 -60 48q-36 52 -36 181q0 126 36 183q19 31 60 48v92h60v-92q13 -3 34 -11v-79q-15 12 -33 12q-24 0 -39.5 -15t-21 -43t-7 -46t-1.5 -45q0 -156 67 -156q15 0 35 9z" />
    <glyph glyph-name="sterling" unicode="&#xa3;" horiz-adv-x="380" 
d="M281 96l73 -23q-11 -35 -32 -56q-26 -26 -64 -26q-24 0 -56 15l-24 11q-37 17 -53 17q-13 0 -21 -9q-7 -9 -10 -20l-68 27q9 35 28 56q21 23 52 23q6 0 16 -2q17 31 17 70q0 54 -34 113h-76v61h53q-37 84 -37 150q0 81 47 128q46 44 118 44q62 0 98 -34q38 -37 40 -98
l-70 -33q0 53 -21 75q-16 18 -49 18q-35 0 -58 -23q-24 -25 -24 -70q0 -35 13 -78q6 -21 30 -79h99v-61h-81q24 -61 24 -103q0 -57 -23 -98l14 -7q36 -18 47 -18q13 0 22 11q6 6 10 19z" />
    <glyph glyph-name="currency" unicode="&#xa4;" horiz-adv-x="667" 
d="M619 125l-45 -45l-97 96q-66 -50 -142 -50q-73 0 -144 49l-96 -95l-45 45l95 96q-50 66 -50 142q0 72 49 140l-96 97l46 45l96 -96q68 50 144 50q75 0 142 -49l96 95l45 -45l-95 -96q50 -70 50 -142q0 -71 -50 -140zM497 362q0 68 -47.5 116t-115.5 48t-116 -48t-48 -116
q0 -67 48 -115t115 -48q68 0 116 47.5t48 115.5z" />
    <glyph glyph-name="yen" unicode="&#xa5;" horiz-adv-x="380" 
d="M364 256h-123v-256h-90v256h-135v61h124l-19 52h-105v62h82l-86 236h96l43 -146q39 -131 44 -163q11 74 69 309h93l-72 -236h79v-62h-97l-16 -52h113v-61z" />
    <glyph glyph-name="brokenbar" unicode="&#xa6;" 
d="M290 345h-81v405h81v-405zM290 -250h-81v405h81v-405z" />
    <glyph glyph-name="section" unicode="&#xa7;" horiz-adv-x="380" 
d="M327 593h-75q-2 33 -18 59q-16 25 -43 25q-29 0 -45 -27q-14 -21 -14 -54q0 -43 33 -78q13 -14 60 -43q44 -26 62 -44q53 -53 53 -153q0 -74 -24 -121q-21 -40 -62 -58q36 -25 53 -60q16 -32 16 -75q0 -71 -43 -114q-36 -36 -94 -36q-52 0 -89 38q-42 45 -42 122h74
q3 -52 16 -71q14 -24 44 -24q22 0 39 15q22 21 22 70q0 45 -29 74q-15 15 -70 46q-44 26 -62 45q-49 52 -49 144q0 68 28 119q24 43 64 63q-30 25 -50 56q-23 38 -23 82q0 67 40 110q37 39 92 39q57 0 92 -35q39 -38 44 -114zM114 277q0 -85 30 -115q19 -19 46 -19t46 17
q30 28 30 106q0 91 -29 123q-19 21 -47 21q-26 0 -45 -19q-31 -30 -31 -114z" />
    <glyph glyph-name="dieresis" unicode="&#xa8;" horiz-adv-x="490" 
d="M369 563q0 -21 -14.5 -35.5t-35.5 -14.5t-35.5 14.5t-14.5 35.5t14.5 35.5t35.5 14.5t35.5 -14.5t14.5 -35.5zM221 563q0 -21 -14.5 -35.5t-35.5 -14.5t-35.5 14.5t-14.5 35.5t14.5 35.5t35.5 14.5t35.5 -14.5t14.5 -35.5z" />
    <glyph glyph-name="copyright" unicode="&#xa9;" horiz-adv-x="757" 
d="M724 333q0 -143 -101 -244.5t-244 -101.5t-244.5 101.5t-101.5 244.5t101.5 244.5t244.5 101.5q142 0 243.5 -101.5t101.5 -244.5zM670 333q0 122 -84.5 209.5t-206.5 87.5t-207 -87t-85 -209t85.5 -210t206.5 -88t206 87.5t85 209.5zM450 204v-62q-18 -14 -51 -14
q-133 0 -133 199q0 211 131 211q28 0 53 -13v-62q-22 14 -42 14q-69 0 -69 -147q0 -138 72 -138q15 0 39 12z" />
    <glyph glyph-name="ordfeminine" unicode="&#xaa;" horiz-adv-x="267" 
d="M214 372h-61v17q-15 -21 -41 -21q-25 0 -41 18q-33 35 -33 136q0 91 28 127q16 22 47 22q25 0 40 -21v17h61v-295zM214 297h-173v40h173v-40zM100 531v-13q0 -62 10 -83q6 -13 18 -13q7 0 14 7q14 17 14 76v26q0 62 -13 79q-5 7 -14 7q-10 0 -17 -9q-12 -16 -12 -77z" />
    <glyph glyph-name="guillemotleft" unicode="&#xab;" horiz-adv-x="326" 
d="M293 405l-102 -171l92 -177l-38 -21l-106 198l114 196zM185 405l-102 -171l95 -177l-42 -21l-103 198l112 196z" />
    <glyph glyph-name="logicalnot" unicode="&#xac;" 
d="M467 0h-82v193h-352v74h434v-267z" />
    <glyph glyph-name="uni00AD" unicode="&#xad;" horiz-adv-x="255" 
d="M205 295v-78h-155v78h155z" />
    <glyph glyph-name="registered" unicode="&#xae;" horiz-adv-x="757" 
d="M509 132h-73l-82 176v-176h-70v403h92q63 0 89.5 -24.5t26.5 -86.5q0 -42 -18 -71t-57 -32zM354 368h18q31 0 41.5 14t10.5 46t-11.5 45t-43.5 13h-15v-118zM670 333q0 122 -84.5 209.5t-206.5 87.5t-207 -87t-85 -209t85.5 -210t206.5 -88t206 87.5t85 209.5zM724 333
q0 -143 -101 -244.5t-244 -101.5t-244.5 101.5t-101.5 244.5t101.5 244.5t244.5 101.5q142 0 243.5 -101.5t101.5 -244.5z" />
    <glyph glyph-name="macron" unicode="&#xaf;" 
d="M362 531h-224v62h224v-62z" />
    <glyph glyph-name="degree" unicode="&#xb0;" 
d="M394 528q0 -59 -42.5 -100t-101.5 -41t-101.5 41t-42.5 100q0 58 43 99t101 41t101 -41t43 -99zM342 527q0 37 -27 63.5t-65 26.5q-37 0 -64.5 -26t-27.5 -63q0 -38 27 -64t65 -26q37 0 64.5 26t27.5 63z" />
    <glyph glyph-name="plusminus" unicode="&#xb1;" 
d="M467 347h-176v-168h-82v168h-176v76h176v168h82v-168h176v-76zM467 64h-434v76h434v-76z" />
    <glyph glyph-name="twosuperior" unicode="&#xb2;" horiz-adv-x="253" 
d="M97 532h-62q-1 7 -1 20q0 59 19.5 89.5t74.5 30.5q96 0 96 -100q0 -31 -16 -75t-27 -64t-38 -69q-19 -36 -25 -45h102v-52h-193q20 41 62 121q72 135 72 186q0 45 -34 45q-37 0 -30 -87z" />
    <glyph glyph-name="threesuperior" unicode="&#xb3;" horiz-adv-x="253" 
d="M39 555v13q0 52 19.5 78t69.5 26q90 0 90 -105q0 -23 -2 -37.5t-11 -31.5t-27 -25q28 -11 36.5 -33.5t8.5 -58.5q0 -119 -100 -119q-92 0 -92 97q0 9 1 13h60q-2 -12 -2 -18q0 -15 8.5 -27t23.5 -12q17 0 26 13.5t10 25t1 31.5q0 30 -9 47.5t-36 17.5q-6 0 -20 -2v53
q39 0 51.5 10.5t12.5 49.5q0 58 -29 58q-21 0 -26.5 -20.5t-2.5 -43.5h-61z" />
    <glyph glyph-name="acute" unicode="&#xb4;" 
d="M206 541l86 129l68 -42l-107 -115z" />
    <glyph glyph-name="mu" unicode="&#xb5;" 
d="M455 0h-80v81q-45 -93 -130 -93q-76 0 -120 71v-247h-82v635h82v-236q0 -68 18 -101q15 -27 43.5 -42t60.5 -15q66 0 103 59q24 38 24 107v228h81v-447z" />
    <glyph glyph-name="mu" unicode="&#x3bc;" 
d="M455 0h-80v81q-45 -93 -130 -93q-76 0 -120 71v-247h-82v635h82v-236q0 -68 18 -101q15 -27 43.5 -42t60.5 -15q66 0 103 59q24 38 24 107v228h81v-447z" />
    <glyph glyph-name="paragraph" unicode="&#xb6;" horiz-adv-x="594" 
d="M523 603h-62v-703h-70v703h-102v-703h-70v416q-3 0 -7 -0.5t-7 -0.5q-80 0 -131.5 47.5t-51.5 126.5q0 76 50 126q53 52 172 52h279v-64z" />
    <glyph glyph-name="periodcentered" unicode="&#xb7;" horiz-adv-x="208" 
d="M168 334q0 -26 -19 -45t-45 -19t-45 19t-19 45t19 45t45 19t45 -19t19 -45z" />
    <glyph glyph-name="cedilla" unicode="&#xb8;" 
d="M327 -74l-76 -117l-38 20l55 126z" />
    <glyph glyph-name="onesuperior" unicode="&#xb9;" horiz-adv-x="252" 
d="M170 267h-61v348h-41v52h102v-400z" />
    <glyph glyph-name="ordmasculine" unicode="&#xba;" horiz-adv-x="267" 
d="M228 523q0 -155 -92 -155q-96 0 -96 157q0 23 3.5 45t13 46.5t29.5 39.5t49 15q93 0 93 -148zM225 297h-182v40h182v-40zM165 525q0 7 -1 17.5t-3 28.5t-9 29.5t-17 11.5q-33 0 -33 -88q0 -97 32 -97q31 0 31 98z" />
    <glyph glyph-name="guillemotright" unicode="&#xbb;" horiz-adv-x="326" 
d="M293 234l-103 -198l-42 21l95 177l-102 171l40 25zM187 234l-105 -198l-39 21l92 177l-102 171l40 25z" />
    <glyph glyph-name="onequarter" unicode="&#xbc;" horiz-adv-x="630" 
d="M603 98h-27v-98h-59v98h-115v49l116 253h58v-255h27v-47zM508 667l-331 -667h-55l331 667h55zM170 267h-61v348h-41v52h102v-400zM517 145v155l-64 -155h64z" />
    <glyph glyph-name="onehalf" unicode="&#xbd;" horiz-adv-x="631" 
d="M475 265h-62q-1 7 -1 20q0 59 19.5 89t74.5 30q96 0 96 -100q0 -31 -15.5 -74t-27.5 -65.5t-38 -67.5q-19 -36 -25 -45h102v-52h-193q20 41 62 121q72 135 72 185q0 45 -34 45q-37 0 -30 -86zM508 667l-331 -667h-55l331 667h55zM170 267h-61v348h-41v52h102v-400z" />
    <glyph glyph-name="threequarters" unicode="&#xbe;" horiz-adv-x="631" 
d="M509 667l-331 -667h-55l331 667h55zM39 555v13q0 52 19.5 78t69.5 26q90 0 90 -105q0 -23 -2 -37.5t-11 -31.5t-27 -25q28 -11 36.5 -33.5t8.5 -58.5q0 -119 -100 -119q-92 0 -92 97q0 9 1 13h60q-2 -12 -2 -18q0 -15 8.5 -27t23.5 -12q17 0 26 13.5t10 25t1 31.5
q0 30 -9 47.5t-36 17.5q-6 0 -20 -2v53q39 0 51.5 10.5t12.5 49.5q0 58 -29 58q-30 0 -30 -47q0 -12 1 -17h-61zM518 145v155l-64 -155h64zM604 98h-27v-98h-59v98h-115v49l116 253h58v-255h27v-47z" />
    <glyph glyph-name="questiondown" unicode="&#xbf;" horiz-adv-x="329" 
d="M225 401q0 -22 -15.5 -38t-37.5 -16t-38 15.5t-16 38.5q0 22 16 37.5t38 15.5t37.5 -15.5t15.5 -37.5zM289 -53v-25q0 -75 -26 -111.5t-98 -36.5q-42 0 -69 16.5t-38.5 49t-14.5 60.5t-3 71q0 52 5 90q6 43 25.5 65t61.5 25v116h79v-176q-7 1 -20 1q-42 0 -55.5 -24.5
t-13.5 -68.5q0 -7 0.5 -21.5t0.5 -20.5q0 -110 48 -110q13 0 21.5 7t11.5 20t4.5 24t1.5 27.5v21.5h79z" />
    <glyph glyph-name="Agrave" unicode="&#xc0;" horiz-adv-x="360" 
d="M359 0h-89l-25 130h-132l-25 -130h-87l145 667h71zM126 199h106q-40 223 -52 338q-10 -103 -54 -338zM224 755l-47 -28l-107 115l68 42z" />
    <glyph glyph-name="Aacute" unicode="&#xc1;" horiz-adv-x="360" 
d="M359 0h-89l-25 130h-132l-25 -130h-87l145 667h71zM126 199h106q-40 223 -52 338q-10 -103 -54 -338zM136 755l86 129l68 -42l-107 -115z" />
    <glyph glyph-name="Acircumflex" unicode="&#xc2;" horiz-adv-x="360" 
d="M359 0h-89l-25 130h-132l-25 -130h-87l145 667h71zM126 199h106q-40 223 -52 338q-10 -103 -54 -338zM285 761l-41 -34l-69 74l-64 -74l-46 34l111 124z" />
    <glyph glyph-name="Atilde" unicode="&#xc3;" horiz-adv-x="360" 
d="M359 0h-89l-25 130h-132l-25 -130h-87l145 667h71zM126 199h106q-40 223 -52 338q-10 -103 -54 -338zM242 815h49q0 -88 -66 -88q-17 0 -43 14t-39 14q-20 0 -20 -24h-54q4 88 67 88q20 0 48 -15t40 -15q4 0 6.5 1t4 3t3 5t2 5.5t1 6t1.5 5.5z" />
    <glyph glyph-name="Adieresis" unicode="&#xc4;" horiz-adv-x="360" 
d="M359 0h-89l-25 130h-132l-25 -130h-87l145 667h71zM126 199h106q-40 223 -52 338q-10 -103 -54 -338zM299 771q0 -21 -14.5 -35.5t-35.5 -14.5t-35.5 14.5t-14.5 35.5t14.5 35.5t35.5 14.5t35.5 -14.5t14.5 -35.5zM151 771q0 -21 -14.5 -35.5t-35.5 -14.5t-35.5 14.5
t-14.5 35.5t14.5 35.5t35.5 14.5t35.5 -14.5t14.5 -35.5z" />
    <glyph glyph-name="Aring" unicode="&#xc5;" horiz-adv-x="360" 
d="M359 0h-89l-25 130h-132l-25 -130h-87l145 667h71zM126 199h106q-40 223 -52 338q-10 -103 -54 -338zM95 799q0 36 24.5 60.5t60.5 24.5t60.5 -24.5t24.5 -60.5t-24.5 -60.5t-60.5 -24.5t-60.5 24.5t-24.5 60.5zM140 799q0 -17 11.5 -28.5t28.5 -11.5t28.5 11.5
t11.5 28.5t-11.5 28.5t-28.5 11.5t-28.5 -11.5t-11.5 -28.5z" />
    <glyph glyph-name="AE" unicode="&#xc6;" horiz-adv-x="511" 
d="M510 0h-232l-27 131h-138l-24 -131h-88l142 667h221l17 -76h-145l45 -212h132l18 -76h-132l51 -227h142zM239 199l-32 151q-13 64 -27 190q-2 -38 -18 -143q-15 -99 -36 -198h113z" />
    <glyph glyph-name="Ccedilla" unicode="&#xc7;" horiz-adv-x="337" 
d="M313 92v-82q-32 -19 -73 -19q-202 0 -202 331q0 354 200 354q39 0 75 -20v-81q-31 17 -58 17q-29 0 -51 -13t-34.5 -38t-20.5 -49t-11 -59.5t-4 -55.5t-1 -50q0 -248 127 -248q27 0 53 13zM270 -72l-73 -118l-49 23l54 125z" />
    <glyph glyph-name="Egrave" unicode="&#xc8;" horiz-adv-x="321" 
d="M290 0h-239v667h239v-76h-149v-212h132v-76h-132v-227h149v-76zM224 755l-47 -28l-107 115l68 42z" />
    <glyph glyph-name="Eacute" unicode="&#xc9;" horiz-adv-x="321" 
d="M290 0h-239v667h239v-76h-149v-212h132v-76h-132v-227h149v-76zM117 755l86 129l68 -42l-107 -115z" />
    <glyph glyph-name="Ecircumflex" unicode="&#xca;" horiz-adv-x="321" 
d="M290 0h-239v667h239v-76h-149v-212h132v-76h-132v-227h149v-76zM285 761l-41 -34l-69 74l-64 -74l-46 34l111 124z" />
    <glyph glyph-name="Edieresis" unicode="&#xcb;" horiz-adv-x="321" 
d="M290 0h-239v667h239v-76h-149v-212h132v-76h-132v-227h149v-76zM285 771q0 -21 -14.5 -35.5t-35.5 -14.5t-35.5 14.5t-14.5 35.5t14.5 35.5t35.5 14.5t35.5 -14.5t14.5 -35.5zM137 771q0 -21 -14.5 -35.5t-35.5 -14.5t-35.5 14.5t-14.5 35.5t14.5 35.5t35.5 14.5
t35.5 -14.5t14.5 -35.5z" />
    <glyph glyph-name="Igrave" unicode="&#xcc;" horiz-adv-x="193" 
d="M141 0h-90v667h90v-667zM149 755l-47 -28l-107 115l68 42z" />
    <glyph glyph-name="Iacute" unicode="&#xcd;" horiz-adv-x="193" 
d="M141 0h-90v667h90v-667zM46 755l86 129l68 -42l-107 -115z" />
    <glyph glyph-name="Icircumflex" unicode="&#xce;" horiz-adv-x="193" 
d="M141 0h-90v667h90v-667zM207 761l-41 -34l-69 74l-64 -74l-46 34l111 124z" />
    <glyph glyph-name="Idieresis" unicode="&#xcf;" horiz-adv-x="193" 
d="M141 0h-90v667h90v-667zM216 771q0 -21 -14.5 -35.5t-35.5 -14.5t-35.5 14.5t-14.5 35.5t14.5 35.5t35.5 14.5t35.5 -14.5t14.5 -35.5zM68 771q0 -21 -14.5 -35.5t-35.5 -14.5t-35.5 14.5t-14.5 35.5t14.5 35.5t35.5 14.5t35.5 -14.5t14.5 -35.5z" />
    <glyph glyph-name="Eth" unicode="&#xd0;" horiz-adv-x="411" 
d="M51 667h111q54 0 88 -12t63 -49q60 -78 60 -279q0 -206 -64 -274q-22 -23 -56 -35.5t-61 -15t-68 -2.5h-73v330h-50v69h50v268zM141 330v-252q63 -1 92 27t39 91q7 48 7 125t-6 129q-9 69 -34 105t-88 36h-10v-192h87v-69h-87z" />
    <glyph glyph-name="Ntilde" unicode="&#xd1;" horiz-adv-x="413" 
d="M362 0h-84q-90 268 -110 331q-18 54 -25 82q-3 13 -10 47.5t-12 52.5q3 -22 8 -101q7 -114 11 -412h-89v667h84q5 -15 33 -96t37 -110t29.5 -91.5t33.5 -111t25 -98.5q-21 160 -21 254v253h90v-667zM269 815h49q0 -88 -66 -88q-16 0 -42 14t-40 14q-20 0 -20 -24h-54
q4 88 67 88q21 0 49 -15t39 -15q4 0 6.5 1t4 3t3 5t2 5.5t1 6t1.5 5.5z" />
    <glyph glyph-name="Ograve" unicode="&#xd2;" horiz-adv-x="423" 
d="M385 321q0 -92 -10 -157q-14 -83 -49.5 -128t-112.5 -45q-93 0 -134 75q-41 74 -41 283q0 170 36 245q39 81 137 81q89 0 131 -71q43 -74 43 -283zM291 346q0 125 -14 185q-14 63 -66 63q-33 0 -52 -28q-27 -38 -27 -194q0 -155 9 -211q15 -87 71 -87q44 0 62 48
q17 48 17 224zM260 755l-47 -28l-107 115l68 42z" />
    <glyph glyph-name="Oacute" unicode="&#xd3;" horiz-adv-x="423" 
d="M385 321q0 -92 -10 -157q-14 -83 -49.5 -128t-112.5 -45q-93 0 -134 75q-41 74 -41 283q0 170 36 245q39 81 137 81q89 0 131 -71q43 -74 43 -283zM291 346q0 125 -14 185q-14 63 -66 63q-33 0 -52 -28q-27 -38 -27 -194q0 -155 9 -211q15 -87 71 -87q44 0 62 48
q17 48 17 224zM162 755l86 129l68 -42l-107 -115z" />
    <glyph glyph-name="Ocircumflex" unicode="&#xd4;" horiz-adv-x="423" 
d="M385 321q0 -92 -10 -157q-14 -83 -49.5 -128t-112.5 -45q-93 0 -134 75q-41 74 -41 283q0 170 36 245q39 81 137 81q89 0 131 -71q43 -74 43 -283zM291 346q0 125 -14 185q-14 63 -66 63q-33 0 -52 -28q-27 -38 -27 -194q0 -155 9 -211q15 -87 71 -87q44 0 62 48
q17 48 17 224zM322 761l-41 -34l-69 74l-64 -74l-46 34l111 124z" />
    <glyph glyph-name="Otilde" unicode="&#xd5;" horiz-adv-x="423" 
d="M385 321q0 -92 -10 -157q-14 -83 -49.5 -128t-112.5 -45q-93 0 -134 75q-41 74 -41 283q0 170 36 245q39 81 137 81q89 0 131 -71q43 -74 43 -283zM291 346q0 125 -14 185q-14 63 -66 63q-33 0 -52 -28q-27 -38 -27 -194q0 -155 9 -211q15 -87 71 -87q44 0 62 48
q17 48 17 224zM274 815h49q0 -88 -66 -88q-17 0 -43 14t-39 14q-20 0 -20 -24h-54q4 88 67 88q20 0 48 -15t40 -15q4 0 6.5 1t4 3t3 5t2 5.5t1 6t1.5 5.5z" />
    <glyph glyph-name="Odieresis" unicode="&#xd6;" horiz-adv-x="423" 
d="M385 321q0 -92 -10 -157q-14 -83 -49.5 -128t-112.5 -45q-93 0 -134 75q-41 74 -41 283q0 170 36 245q39 81 137 81q89 0 131 -71q43 -74 43 -283zM291 346q0 125 -14 185q-14 63 -66 63q-33 0 -52 -28q-27 -38 -27 -194q0 -155 9 -211q15 -87 71 -87q44 0 62 48
q17 48 17 224zM331 771q0 -21 -14.5 -35.5t-35.5 -14.5t-35.5 14.5t-14.5 35.5t14.5 35.5t35.5 14.5t35.5 -14.5t14.5 -35.5zM183 771q0 -21 -14.5 -35.5t-35.5 -14.5t-35.5 14.5t-14.5 35.5t14.5 35.5t35.5 14.5t35.5 -14.5t14.5 -35.5z" />
    <glyph glyph-name="multiply" unicode="&#xd7;" 
d="M377 154l-127 126l-127 -126l-53 53l126 127l-126 127l53 53l127 -126l127 126l53 -53l-126 -127l126 -127z" />
    <glyph glyph-name="Oslash" unicode="&#xd8;" horiz-adv-x="454" 
d="M416 659l-43 -88q30 -70 30 -253q0 -36 -0.5 -56.5t-3.5 -60t-9 -63.5t-18.5 -55t-29.5 -49t-44 -30.5t-62 -12.5q-84 0 -119 50l-35 -71l-44 31l48 96q-30 76 -30 260q0 36 0.5 57.5t4 59.5t9.5 61.5t18.5 53t30 46t45 28.5t62.5 12q79 0 116 -49l31 61zM152 229
l143 302q-11 63 -67 63q-34 0 -52 -27q-26 -36 -26 -186q0 -105 2 -152zM305 441l-142 -301q6 -20 12 -32t21 -22.5t36 -10.5q45 0 61 47q15 44 15 184q0 94 -3 135z" />
    <glyph glyph-name="Ugrave" unicode="&#xd9;" horiz-adv-x="409" 
d="M358 667v-490q0 -95 -32 -140.5t-123 -45.5q-86 0 -119 47t-33 136v493h88v-490q0 -23 2 -37.5t8 -31t20.5 -24.5t36.5 -8q19 0 32 6.5t19 14t9 24.5t3.5 25.5t0.5 30.5v490h88zM254 755l-47 -28l-107 115l68 42z" />
    <glyph glyph-name="Uacute" unicode="&#xda;" horiz-adv-x="409" 
d="M358 667v-490q0 -95 -32 -140.5t-123 -45.5q-86 0 -119 47t-33 136v493h88v-490q0 -23 2 -37.5t8 -31t20.5 -24.5t36.5 -8q19 0 32 6.5t19 14t9 24.5t3.5 25.5t0.5 30.5v490h88zM161 755l86 129l68 -42l-107 -115z" />
    <glyph glyph-name="Ucircumflex" unicode="&#xdb;" horiz-adv-x="409" 
d="M358 667v-490q0 -95 -32 -140.5t-123 -45.5q-86 0 -119 47t-33 136v493h88v-490q0 -23 2 -37.5t8 -31t20.5 -24.5t36.5 -8q19 0 32 6.5t19 14t9 24.5t3.5 25.5t0.5 30.5v490h88zM315 761l-41 -34l-69 74l-64 -74l-46 34l111 124z" />
    <glyph glyph-name="Udieresis" unicode="&#xdc;" horiz-adv-x="409" 
d="M358 667v-490q0 -95 -32 -140.5t-123 -45.5q-86 0 -119 47t-33 136v493h88v-490q0 -23 2 -37.5t8 -31t20.5 -24.5t36.5 -8q19 0 32 6.5t19 14t9 24.5t3.5 25.5t0.5 30.5v490h88zM324 771q0 -21 -14.5 -35.5t-35.5 -14.5t-35.5 14.5t-14.5 35.5t14.5 35.5t35.5 14.5
t35.5 -14.5t14.5 -35.5zM176 771q0 -21 -14.5 -35.5t-35.5 -14.5t-35.5 14.5t-14.5 35.5t14.5 35.5t35.5 14.5t35.5 -14.5t14.5 -35.5z" />
    <glyph glyph-name="Yacute" unicode="&#xdd;" horiz-adv-x="341" 
d="M343 667l-116 -380v-287h-90v287l-139 380h95l54 -179q23 -76 33 -130q12 74 26 132l44 177h93zM122 755l86 129l68 -42l-107 -115z" />
    <glyph glyph-name="Thorn" unicode="&#xde;" horiz-adv-x="351" 
d="M141 573h28q63 0 97 -21q66 -41 66 -158q0 -146 -93 -180q-34 -12 -98 -12v-202h-90v667h90v-94zM141 279h8q50 0 70 25.5t20 77.5q0 115 -83 115h-15v-218z" />
    <glyph glyph-name="germandbls" unicode="&#xdf;" horiz-adv-x="378" 
d="M60 0v372h-50v75h50v135q0 82 30 120t109 38q76 0 105 -46t29 -148q0 -113 -63 -136q31 -9 48 -27q30 -34 30 -182q0 -112 -32 -161q-27 -41 -102 -41q-21 0 -32 1v76q35 0 49 12q26 23 26 125q0 70 -6 98q-7 33 -24.5 46.5t-49.5 14.5v75q-1 -1 6 -1q40 0 52.5 24
t12.5 68q0 43 -2.5 65.5t-14.5 39t-36 16.5q-15 0 -25.5 -6.5t-16 -15t-8 -23.5t-3 -24t-0.5 -26v-564h-82z" />
    <glyph glyph-name="agrave" unicode="&#xe0;" horiz-adv-x="349" 
d="M302 0h-83v57q-14 -32 -32 -48t-50 -16q-25 0 -44.5 11.5t-30.5 34t-18 44t-10 53t-3.5 49.5t-0.5 44t1 43.5t3.5 47.5t10 50.5t18.5 41t30.5 31.5t44.5 11q51 0 81 -58v51h83v-447zM222 199v48q0 132 -53 132q-54 0 -54 -125v-61q0 -126 54 -126q53 0 53 132zM234 541
l-47 -28l-107 115l68 42z" />
    <glyph glyph-name="aacute" unicode="&#xe1;" horiz-adv-x="349" 
d="M302 0h-83v57q-14 -32 -32 -48t-50 -16q-25 0 -44.5 11.5t-30.5 34t-18 44t-10 53t-3.5 49.5t-0.5 44t1 43.5t3.5 47.5t10 50.5t18.5 41t30.5 31.5t44.5 11q51 0 81 -58v51h83v-447zM222 199v48q0 132 -53 132q-54 0 -54 -125v-61q0 -126 54 -126q53 0 53 132zM111 541
l86 129l68 -42l-107 -115z" />
    <glyph glyph-name="acircumflex" unicode="&#xe2;" horiz-adv-x="349" 
d="M302 0h-83v57q-14 -32 -32 -48t-50 -16q-25 0 -44.5 11.5t-30.5 34t-18 44t-10 53t-3.5 49.5t-0.5 44t1 43.5t3.5 47.5t10 50.5t18.5 41t30.5 31.5t44.5 11q51 0 81 -58v51h83v-447zM222 199v48q0 132 -53 132q-54 0 -54 -125v-61q0 -126 54 -126q53 0 53 132zM280 547
l-41 -34l-69 74l-64 -74l-46 34l111 124z" />
    <glyph glyph-name="atilde" unicode="&#xe3;" horiz-adv-x="349" 
d="M302 0h-83v57q-14 -32 -32 -48t-50 -16q-25 0 -44.5 11.5t-30.5 34t-18 44t-10 53t-3.5 49.5t-0.5 44t1 43.5t3.5 47.5t10 50.5t18.5 41t30.5 31.5t44.5 11q51 0 81 -58v51h83v-447zM222 199v48q0 132 -53 132q-54 0 -54 -125v-61q0 -126 54 -126q53 0 53 132zM237 601
h49q0 -88 -66 -88q-16 0 -42 14t-40 14q-20 0 -20 -24h-54q4 88 67 88q21 0 49 -15t39 -15q4 0 6.5 1t4 3t3 5t2 5.5t1 6t1.5 5.5z" />
    <glyph glyph-name="adieresis" unicode="&#xe4;" horiz-adv-x="349" 
d="M302 0h-83v57q-14 -32 -32 -48t-50 -16q-25 0 -44.5 11.5t-30.5 34t-18 44t-10 53t-3.5 49.5t-0.5 44t1 43.5t3.5 47.5t10 50.5t18.5 41t30.5 31.5t44.5 11q51 0 81 -58v51h83v-447zM222 199v48q0 132 -53 132q-54 0 -54 -125v-61q0 -126 54 -126q53 0 53 132zM294 563
q0 -21 -14.5 -35.5t-35.5 -14.5t-35.5 14.5t-14.5 35.5t14.5 35.5t35.5 14.5t35.5 -14.5t14.5 -35.5zM146 563q0 -21 -14.5 -35.5t-35.5 -14.5t-35.5 14.5t-14.5 35.5t14.5 35.5t35.5 14.5t35.5 -14.5t14.5 -35.5z" />
    <glyph glyph-name="aring" unicode="&#xe5;" horiz-adv-x="349" 
d="M302 0h-83v57q-14 -32 -32 -48t-50 -16q-25 0 -44.5 11.5t-30.5 34t-18 44t-10 53t-3.5 49.5t-0.5 44t1 43.5t3.5 47.5t10 50.5t18.5 41t30.5 31.5t44.5 11q51 0 81 -58v51h83v-447zM222 199v48q0 132 -53 132q-54 0 -54 -125v-61q0 -126 54 -126q53 0 53 132zM80 600
q0 36 24.5 60.5t60.5 24.5t60.5 -24.5t24.5 -60.5t-24.5 -60.5t-60.5 -24.5t-60.5 24.5t-24.5 60.5zM125 600q0 -17 11.5 -28.5t28.5 -11.5t28.5 11.5t11.5 28.5t-11.5 28.5t-28.5 11.5t-28.5 -11.5t-11.5 -28.5z" />
    <glyph glyph-name="ae" unicode="&#xe6;" horiz-adv-x="505" 
d="M396 153h79q-4 -75 -32 -117.5t-97 -42.5q-77 0 -106 70q-16 -37 -39 -53.5t-62 -16.5q-109 0 -109 144q0 63 25.5 107t84.5 44q45 0 70 -29q0 5 -0.5 21.5t-1 22t-2.5 18.5t-5 18t-8 13.5t-12.5 12t-19 6.5t-25.5 3q-43 0 -84 -26v84q48 22 90 22q74 0 106 -57
q34 57 96 57q30 0 53.5 -11.5t37 -33t22.5 -44t12.5 -55t4.5 -53.5t1 -51h-184v-18q0 -127 57 -127q48 0 48 92zM392 266v20q0 100 -50 100t-50 -99v-21h100zM216 142q0 81 -52 81q-51 0 -51 -77q0 -87 51 -87q52 0 52 83z" />
    <glyph glyph-name="ccedilla" unicode="&#xe7;" horiz-adv-x="253" 
d="M229 88v-77q-31 -18 -66 -18q-133 0 -133 228q0 43 4 77t16.5 73t41.5 61t73 22q33 0 64 -16v-84q-16 21 -41 21q-68 0 -68 -148q0 -156 67 -156q22 0 42 17zM204 -74l-76 -117l-38 20l55 126z" />
    <glyph glyph-name="egrave" unicode="&#xe8;" horiz-adv-x="326" 
d="M299 207h-188q0 -143 57 -143q51 0 51 87h77q-2 -59 -17 -90q-32 -68 -112 -68q-36 0 -62.5 15t-40.5 37t-22 55.5t-10 60t-2 61.5q0 43 4 76.5t16.5 72.5t41.5 61t73 22q36 0 62 -17.5t39.5 -42t21.5 -61.5t9.5 -64t1.5 -62zM111 267h104q-4 74 -18 96q-12 21 -34 21
q-46 0 -52 -110v-4v-3zM229 541l-47 -28l-107 115l68 42z" />
    <glyph glyph-name="eacute" unicode="&#xe9;" horiz-adv-x="326" 
d="M299 207h-188q0 -143 57 -143q51 0 51 87h77q-2 -59 -17 -90q-32 -68 -112 -68q-36 0 -62.5 15t-40.5 37t-22 55.5t-10 60t-2 61.5q0 43 4 76.5t16.5 72.5t41.5 61t73 22q36 0 62 -17.5t39.5 -42t21.5 -61.5t9.5 -64t1.5 -62zM111 267h104q-4 74 -18 96q-12 21 -34 21
q-46 0 -52 -110v-4v-3zM113 541l86 129l68 -42l-107 -115z" />
    <glyph glyph-name="ecircumflex" unicode="&#xea;" horiz-adv-x="326" 
d="M299 207h-188q0 -143 57 -143q51 0 51 87h77q-2 -59 -17 -90q-32 -68 -112 -68q-36 0 -62.5 15t-40.5 37t-22 55.5t-10 60t-2 61.5q0 43 4 76.5t16.5 72.5t41.5 61t73 22q36 0 62 -17.5t39.5 -42t21.5 -61.5t9.5 -64t1.5 -62zM111 267h104q-4 74 -18 96q-12 21 -34 21
q-46 0 -52 -110v-4v-3zM273 547l-41 -34l-69 74l-64 -74l-46 34l111 124z" />
    <glyph glyph-name="edieresis" unicode="&#xeb;" horiz-adv-x="326" 
d="M299 207h-188q0 -143 57 -143q51 0 51 87h77q-2 -59 -17 -90q-32 -68 -112 -68q-36 0 -62.5 15t-40.5 37t-22 55.5t-10 60t-2 61.5q0 43 4 76.5t16.5 72.5t41.5 61t73 22q36 0 62 -17.5t39.5 -42t21.5 -61.5t9.5 -64t1.5 -62zM111 267h104q-4 74 -18 96q-12 21 -34 21
q-46 0 -52 -110v-4v-3zM282 563q0 -21 -14.5 -35.5t-35.5 -14.5t-35.5 14.5t-14.5 35.5t14.5 35.5t35.5 14.5t35.5 -14.5t14.5 -35.5zM134 563q0 -21 -14.5 -35.5t-35.5 -14.5t-35.5 14.5t-14.5 35.5t14.5 35.5t35.5 14.5t35.5 -14.5t14.5 -35.5z" />
    <glyph glyph-name="igrave" unicode="&#xec;" horiz-adv-x="176" 
d="M129 0h-82v447h82v-447zM139 541l-47 -28l-107 115l68 42z" />
    <glyph glyph-name="iacute" unicode="&#xed;" horiz-adv-x="176" 
d="M129 0h-82v447h82v-447zM36 541l86 129l68 -42l-107 -115z" />
    <glyph glyph-name="icircumflex" unicode="&#xee;" horiz-adv-x="176" 
d="M129 0h-82v447h82v-447zM198 547l-41 -34l-69 74l-64 -74l-46 34l111 124z" />
    <glyph glyph-name="idieresis" unicode="&#xef;" horiz-adv-x="176" 
d="M129 0h-82v447h82v-447zM207 563q0 -21 -14.5 -35.5t-35.5 -14.5t-35.5 14.5t-14.5 35.5t14.5 35.5t35.5 14.5t35.5 -14.5t14.5 -35.5zM59 563q0 -21 -14.5 -35.5t-35.5 -14.5t-35.5 14.5t-14.5 35.5t14.5 35.5t35.5 14.5t35.5 -14.5t14.5 -35.5z" />
    <glyph glyph-name="eth" unicode="&#xf0;" horiz-adv-x="341" 
d="M273 675l-71 -49q109 -136 109 -395q0 -36 -2 -64t-10.5 -62.5t-22.5 -57t-41.5 -38.5t-64.5 -16q-140 0 -140 228q0 45 4.5 79.5t17.5 73t43 59.5t75 21q14 0 29 -3q-15 71 -58 134l-77 -53l-31 46l75 51q-41 37 -71 59l46 52q55 -40 82 -69l75 54zM226 196v50
q0 133 -53 133q-33 0 -43.5 -39.5t-10.5 -103.5v-40q0 -128 54 -128q53 0 53 128z" />
    <glyph glyph-name="ntilde" unicode="&#xf1;" horiz-adv-x="358" 
d="M311 0h-82v290q-1 22 -2 33.5t-5 27.5t-14.5 23.5t-26.5 7.5q-18 0 -29.5 -8t-16 -25t-5.5 -28.5t-1 -31.5v-289h-82v447h82v-52q19 30 39.5 44.5t52.5 14.5q28 0 46.5 -10t27.5 -29t12.5 -39t3.5 -46v-330zM241 601h49q0 -88 -66 -88q-16 0 -42 14t-40 14q-20 0 -20 -24
h-54q4 88 67 88q21 0 49 -15t39 -15q4 0 6.5 1t4 3t3 5t2 5.5t1 6t1.5 5.5z" />
    <glyph glyph-name="ograve" unicode="&#xf2;" horiz-adv-x="341" 
d="M311 223q0 -44 -4.5 -78t-18 -72t-43.5 -59t-75 -21q-36 0 -62.5 15t-41 37.5t-23 55.5t-11 60.5t-2.5 61.5t2 61.5t10.5 61t23 55.5t41.5 37.5t63 15.5q45 0 75 -21t43.5 -59t18 -72.5t4.5 -78.5zM225 197v54q0 128 -53 128t-53 -127v-54q0 -128 53 -128t53 127z
M224 541l-47 -28l-107 115l68 42z" />
    <glyph glyph-name="oacute" unicode="&#xf3;" horiz-adv-x="341" 
d="M311 223q0 -44 -4.5 -78t-18 -72t-43.5 -59t-75 -21q-36 0 -62.5 15t-41 37.5t-23 55.5t-11 60.5t-2.5 61.5t2 61.5t10.5 61t23 55.5t41.5 37.5t63 15.5q45 0 75 -21t43.5 -59t18 -72.5t4.5 -78.5zM225 197v54q0 128 -53 128t-53 -127v-54q0 -128 53 -128t53 127z
M121 541l86 129l68 -42l-107 -115z" />
    <glyph glyph-name="ocircumflex" unicode="&#xf4;" horiz-adv-x="341" 
d="M311 223q0 -44 -4.5 -78t-18 -72t-43.5 -59t-75 -21q-36 0 -62.5 15t-41 37.5t-23 55.5t-11 60.5t-2.5 61.5t2 61.5t10.5 61t23 55.5t41.5 37.5t63 15.5q45 0 75 -21t43.5 -59t18 -72.5t4.5 -78.5zM225 197v54q0 128 -53 128t-53 -127v-54q0 -128 53 -128t53 127z
M281 547l-41 -34l-69 74l-64 -74l-46 34l111 124z" />
    <glyph glyph-name="otilde" unicode="&#xf5;" horiz-adv-x="341" 
d="M311 223q0 -44 -4.5 -78t-18 -72t-43.5 -59t-75 -21q-36 0 -62.5 15t-41 37.5t-23 55.5t-11 60.5t-2.5 61.5t2 61.5t10.5 61t23 55.5t41.5 37.5t63 15.5q45 0 75 -21t43.5 -59t18 -72.5t4.5 -78.5zM225 197v54q0 128 -53 128t-53 -127v-54q0 -128 53 -128t53 127z
M238 601h49q0 -88 -66 -88q-17 0 -43 14t-39 14q-20 0 -20 -24h-54q4 88 67 88q20 0 48 -15t40 -15q4 0 6.5 1t4 3t3 5t2 5.5t1 6t1.5 5.5z" />
    <glyph glyph-name="odieresis" unicode="&#xf6;" horiz-adv-x="341" 
d="M311 223q0 -44 -4.5 -78t-18 -72t-43.5 -59t-75 -21q-36 0 -62.5 15t-41 37.5t-23 55.5t-11 60.5t-2.5 61.5t2 61.5t10.5 61t23 55.5t41.5 37.5t63 15.5q45 0 75 -21t43.5 -59t18 -72.5t4.5 -78.5zM225 197v54q0 128 -53 128t-53 -127v-54q0 -128 53 -128t53 127z
M290 563q0 -21 -14.5 -35.5t-35.5 -14.5t-35.5 14.5t-14.5 35.5t14.5 35.5t35.5 14.5t35.5 -14.5t14.5 -35.5zM142 563q0 -21 -14.5 -35.5t-35.5 -14.5t-35.5 14.5t-14.5 35.5t14.5 35.5t35.5 14.5t35.5 -14.5t14.5 -35.5z" />
    <glyph glyph-name="divide" unicode="&#xf7;" 
d="M303 514q0 -22 -15.5 -37.5t-37.5 -15.5t-37.5 15.5t-15.5 37.5t15.5 37.5t37.5 15.5t37.5 -15.5t15.5 -37.5zM467 296h-434v76h434v-76zM303 154q0 -22 -15.5 -37.5t-37.5 -15.5t-37.5 15.5t-15.5 37.5t15.5 37.5t37.5 15.5t37.5 -15.5t15.5 -37.5z" />
    <glyph glyph-name="oslash" unicode="&#xf8;" horiz-adv-x="365" 
d="M335 441l-39 -64q24 -59 24 -164q0 -220 -141 -220q-55 0 -92 37l-23 -38l-34 22l34 55q-25 58 -25 163q0 222 140 222q54 0 92 -37l28 45zM129 174l93 167q-7 19 -16 28.5t-27 9.5q-52 0 -52 -123q0 -28 2 -82zM232 273l-94 -168q11 -41 44 -41q9 0 17 3.5t13 11t9 14.5
t6.5 19.5t4 20.5t2 22.5t0.5 20v19.5v15q0 21 -2 63z" />
    <glyph glyph-name="ugrave" unicode="&#xf9;" horiz-adv-x="359" 
d="M313 447v-302q0 -78 -30 -115.5t-107 -37.5q-70 0 -104 45q-25 33 -25 108v302h82v-268q0 -5 0.5 -15.5t0.5 -15.5q1 -25 2.5 -38t13.5 -26t34 -13q15 0 25 5.5t15.5 12.5t8 21t2.5 22t-0.5 25t-0.5 22v268h83zM234 541l-47 -28l-107 115l68 42z" />
    <glyph glyph-name="uacute" unicode="&#xfa;" horiz-adv-x="359" 
d="M313 447v-302q0 -78 -30 -115.5t-107 -37.5q-70 0 -104 45q-25 33 -25 108v302h82v-268q0 -5 0.5 -15.5t0.5 -15.5q1 -25 2.5 -38t13.5 -26t34 -13q15 0 25 5.5t15.5 12.5t8 21t2.5 22t-0.5 25t-0.5 22v268h83zM126 541l86 129l68 -42l-107 -115z" />
    <glyph glyph-name="ucircumflex" unicode="&#xfb;" horiz-adv-x="359" 
d="M313 447v-302q0 -78 -30 -115.5t-107 -37.5q-70 0 -104 45q-25 33 -25 108v302h82v-268q0 -5 0.5 -15.5t0.5 -15.5q1 -25 2.5 -38t13.5 -26t34 -13q15 0 25 5.5t15.5 12.5t8 21t2.5 22t-0.5 25t-0.5 22v268h83zM290 547l-41 -34l-69 74l-64 -74l-46 34l111 124z" />
    <glyph glyph-name="udieresis" unicode="&#xfc;" horiz-adv-x="359" 
d="M313 447v-302q0 -78 -30 -115.5t-107 -37.5q-70 0 -104 45q-25 33 -25 108v302h82v-268q0 -5 0.5 -15.5t0.5 -15.5q1 -25 2.5 -38t13.5 -26t34 -13q15 0 25 5.5t15.5 12.5t8 21t2.5 22t-0.5 25t-0.5 22v268h83zM299 563q0 -21 -14.5 -35.5t-35.5 -14.5t-35.5 14.5
t-14.5 35.5t14.5 35.5t35.5 14.5t35.5 -14.5t14.5 -35.5zM151 563q0 -21 -14.5 -35.5t-35.5 -14.5t-35.5 14.5t-14.5 35.5t14.5 35.5t35.5 14.5t35.5 -14.5t14.5 -35.5z" />
    <glyph glyph-name="yacute" unicode="&#xfd;" horiz-adv-x="326" 
d="M323 447l-185 -635h-87l71 224l-119 411h94l65 -312l77 312h84zM119 541l86 129l68 -42l-107 -115z" />
    <glyph glyph-name="thorn" unicode="&#xfe;" horiz-adv-x="349" 
d="M130 729v-340q15 33 32.5 49t50.5 16q30 0 51.5 -19t31.5 -42.5t15.5 -61.5t6.5 -59.5t1 -53.5q0 -25 -1 -43t-3.5 -47.5t-10 -50.5t-18.5 -41.5t-30.5 -31.5t-44.5 -11q-30 0 -47.5 13.5t-33.5 43.5v-238h-83v917h83zM234 224v15v20t-0.5 21.5t-2 24t-4 22t-7 21
t-9.5 16t-13 12t-18 3.5q-54 0 -53 -148v-7q0 -111 24 -141q12 -15 29 -15q10 0 18 3.5t13 12t9.5 16t7 21t4 22t2 24.5t0.5 22v20v15z" />
    <glyph glyph-name="ydieresis" unicode="&#xff;" horiz-adv-x="326" 
d="M323 447l-185 -635h-87l71 224l-119 411h94l65 -312l77 312h84zM282 563q0 -21 -14.5 -35.5t-35.5 -14.5t-35.5 14.5t-14.5 35.5t14.5 35.5t35.5 14.5t35.5 -14.5t14.5 -35.5zM134 563q0 -21 -14.5 -35.5t-35.5 -14.5t-35.5 14.5t-14.5 35.5t14.5 35.5t35.5 14.5
t35.5 -14.5t14.5 -35.5z" />
    <glyph glyph-name="Amacron" unicode="&#x100;" horiz-adv-x="360" 
d="M359 0h-89l-25 130h-132l-25 -130h-87l145 667h71zM126 199h106q-40 223 -52 338q-10 -103 -54 -338zM292 732h-224v62h224v-62z" />
    <glyph glyph-name="amacron" unicode="&#x101;" horiz-adv-x="349" 
d="M302 0h-83v57q-14 -32 -32 -48t-50 -16q-25 0 -44.5 11.5t-30.5 34t-18 44t-10 53t-3.5 49.5t-0.5 44t1 43.5t3.5 47.5t10 50.5t18.5 41t30.5 31.5t44.5 11q51 0 81 -58v51h83v-447zM222 199v48q0 132 -53 132q-54 0 -54 -125v-61q0 -126 54 -126q53 0 53 132zM287 531
h-224v62h224v-62z" />
    <glyph glyph-name="Abreve" unicode="&#x102;" horiz-adv-x="360" 
d="M359 0h-89l-25 130h-132l-25 -130h-87l145 667h71zM126 199h106q-40 223 -52 338q-10 -103 -54 -338zM248 811h55q-5 -46 -39.5 -69.5t-83.5 -23.5t-83.5 23.5t-39.5 69.5h55q16 -35 68 -35t68 35z" />
    <glyph glyph-name="abreve" unicode="&#x103;" horiz-adv-x="349" 
d="M302 0h-83v57q-14 -32 -32 -48t-50 -16q-25 0 -44.5 11.5t-30.5 34t-18 44t-10 53t-3.5 49.5t-0.5 44t1 43.5t3.5 47.5t10 50.5t18.5 41t30.5 31.5t44.5 11q51 0 81 -58v51h83v-447zM222 199v48q0 132 -53 132q-54 0 -54 -125v-61q0 -126 54 -126q53 0 53 132zM238 606
h55q-5 -46 -39.5 -69.5t-83.5 -23.5t-83.5 23.5t-39.5 69.5h55q16 -35 68 -35t68 35z" />
    <glyph glyph-name="Aogonek" unicode="&#x104;" horiz-adv-x="357" 
d="M146 667h71l142 -667h-44q-11 -11 -27 -36q-13 -22 -13 -37q0 -13 8 -21q7 -9 24 -9q20 0 34 11v-51q-20 -12 -45 -12q-31 0 -51 16q-23 19 -23 50q0 23 15 48q14 22 33 41l-25 130h-132l-25 -130h-87zM126 199h106l-6 33q-2 10 -23 136q-12 69 -23 169q-4 -49 -21 -157
q-4 -29 -9.5 -57.5t-11 -56.5t-7.5 -40z" />
    <glyph glyph-name="aogonek" unicode="&#x105;" horiz-adv-x="349" 
d="M219 447h83v-447h-37q-13 -16 -23 -36q-11 -20 -11 -38q0 -15 8 -21q10 -8 24 -8q21 0 37 11v-51q-24 -12 -47 -12q-31 0 -51 16q-24 19 -24 51q0 22 14 48q11 20 27 40v57q-12 -29 -27 -44q-20 -20 -55 -20q-34 0 -57 22q-50 48 -50 214v23q0 130 46 177q25 25 62 25
q30 0 52 -18q15 -12 29 -40v51zM222 199v48q0 94 -26 120q-12 12 -27 12q-18 0 -30 -14q-24 -29 -24 -111v-61q0 -88 26 -114q12 -12 28 -12q17 0 26 11q27 29 27 121z" />
    <glyph glyph-name="Cacute" unicode="&#x106;" horiz-adv-x="337" 
d="M313 92v-82q-32 -19 -73 -19q-202 0 -202 331q0 354 200 354q39 0 75 -20v-81q-31 17 -58 17q-29 0 -51 -13t-34.5 -38t-20.5 -49t-11 -59.5t-4 -55.5t-1 -50q0 -248 127 -248q27 0 53 13zM191 755l86 129l68 -42l-107 -115z" />
    <glyph glyph-name="cacute" unicode="&#x107;" horiz-adv-x="253" 
d="M229 88v-77q-31 -18 -66 -18q-133 0 -133 228q0 43 4 77t16.5 73t41.5 61t73 22q33 0 64 -16v-84q-16 21 -41 21q-68 0 -68 -148q0 -156 67 -156q22 0 42 17zM116 541l86 129l68 -42l-107 -115z" />
    <glyph glyph-name="Ccircumflex" unicode="&#x108;" horiz-adv-x="337" 
d="M313 92v-82q-32 -19 -73 -19q-202 0 -202 331q0 354 200 354q39 0 75 -20v-81q-31 17 -58 17q-29 0 -51 -13t-34.5 -38t-20.5 -49t-11 -59.5t-4 -55.5t-1 -50q0 -248 127 -248q27 0 53 13zM350 761l-41 -34l-69 74l-64 -74l-46 34l111 124z" />
    <glyph glyph-name="ccircumflex" unicode="&#x109;" horiz-adv-x="253" 
d="M229 88v-77q-31 -18 -66 -18q-133 0 -133 228q0 43 4 77t16.5 73t41.5 61t73 22q33 0 64 -16v-84q-16 21 -41 21q-68 0 -68 -148q0 -156 67 -156q22 0 42 17zM270 547l-41 -34l-69 74l-64 -74l-46 34l111 124z" />
    <glyph glyph-name="Cdotaccent" unicode="&#x10a;" horiz-adv-x="337" 
d="M313 92v-82q-32 -19 -73 -19q-202 0 -202 331q0 354 200 354q39 0 75 -20v-81q-31 17 -58 17q-29 0 -51 -13t-34.5 -38t-20.5 -49t-11 -59.5t-4 -55.5t-1 -50q0 -248 127 -248q27 0 53 13zM287 773q0 -22 -15.5 -37t-37.5 -15t-37.5 15t-15.5 37t15.5 37.5t37.5 15.5
t37.5 -15.5t15.5 -37.5z" />
    <glyph glyph-name="cdotaccent" unicode="&#x10b;" horiz-adv-x="253" 
d="M229 88v-77q-31 -18 -66 -18q-133 0 -133 228q0 43 4 77t16.5 73t41.5 61t73 22q33 0 64 -16v-84q-16 21 -41 21q-68 0 -68 -148q0 -156 67 -156q22 0 42 17zM218 565q0 -22 -15.5 -37t-37.5 -15t-37.5 15t-15.5 37t15.5 37.5t37.5 15.5t37.5 -15.5t15.5 -37.5z" />
    <glyph glyph-name="Ccaron" unicode="&#x10c;" horiz-adv-x="337" 
d="M313 92v-82q-32 -19 -73 -19q-202 0 -202 331q0 354 200 354q39 0 75 -20v-81q-31 17 -58 17q-29 0 -51 -13t-34.5 -38t-20.5 -49t-11 -59.5t-4 -55.5t-1 -50q0 -248 127 -248q27 0 53 13zM350 851l-109 -124l-111 124l46 34l64 -74l69 74z" />
    <glyph glyph-name="ccaron" unicode="&#x10d;" horiz-adv-x="253" 
d="M229 88v-77q-31 -18 -66 -18q-133 0 -133 228q0 43 4 77t16.5 73t41.5 61t73 22q33 0 64 -16v-84q-16 21 -41 21q-68 0 -68 -148q0 -156 67 -156q22 0 42 17zM275 637l-109 -124l-111 124l46 34l64 -74l69 74z" />
    <glyph glyph-name="Dcaron" unicode="&#x10e;" horiz-adv-x="411" 
d="M51 667h111q53 0 87 -12t64 -49q27 -33 41 -88t16.5 -95t2.5 -99q0 -203 -64 -271q-22 -23 -56 -35.5t-61 -15t-68 -2.5h-73v667zM141 78h4q61 0 89 28t38 91q7 48 7 124q0 78 -6 130q-9 68 -34 104t-87 36h-11v-513zM300 851l-109 -124l-111 124l46 34l64 -74l69 74z
" />
    <glyph glyph-name="dcaron" unicode="&#x10f;" horiz-adv-x="443" 
d="M302 0h-83v57q-14 -32 -32 -48t-50 -16q-25 0 -44.5 11.5t-30.5 34t-18 44t-10 53t-3.5 49.5t-0.5 44q0 22 0.5 37t2.5 40.5t6 43.5t12 39t19.5 34t29 22t39.5 9q30 0 47.5 -14t32.5 -44v333h83v-729zM222 199v48q0 132 -53 132q-54 0 -54 -125v-61q0 -126 54 -126
q53 0 53 132zM453 667l-71 -189l-45 13l44 197z" />
    <glyph glyph-name="Dcroat" unicode="&#x110;" horiz-adv-x="411" 
d="M51 667h111q54 0 88 -12t63 -49q60 -78 60 -279q0 -206 -64 -274q-22 -23 -56 -35.5t-61 -15t-68 -2.5h-73v330h-50v69h50v268zM141 330v-252q63 -1 92 27t39 91q7 48 7 125t-6 129q-9 69 -34 105t-88 36h-10v-192h87v-69h-87z" />
    <glyph glyph-name="dcroat" unicode="&#x111;" horiz-adv-x="357" 
d="M302 521v-521h-83v57q-14 -32 -32 -48t-50 -16q-107 0 -107 226q0 211 109 211q30 0 47.5 -14t32.5 -44v149h-106v64h106v144h83v-144h50v-64h-50zM222 199v24q0 132 -53 132q-54 0 -54 -125v-37q0 -126 54 -126q53 0 53 132z" />
    <glyph glyph-name="Emacron" unicode="&#x112;" horiz-adv-x="321" 
d="M290 0h-239v667h239v-76h-149v-212h132v-76h-132v-227h149v-76zM282 732h-224v62h224v-62z" />
    <glyph glyph-name="emacron" unicode="&#x113;" horiz-adv-x="326" 
d="M299 207h-188q0 -143 57 -143q51 0 51 87h77q-2 -59 -17 -90q-32 -68 -112 -68q-36 0 -62.5 15t-40.5 37t-22 55.5t-10 60t-2 61.5q0 43 4 76.5t16.5 72.5t41.5 61t73 22q36 0 62 -17.5t39.5 -42t21.5 -61.5t9.5 -64t1.5 -62zM111 267h104q-4 74 -18 96q-12 21 -34 21
q-46 0 -52 -110v-4v-3zM275 531h-224v62h224v-62z" />
    <glyph glyph-name="Edotaccent" unicode="&#x116;" horiz-adv-x="321" 
d="M290 0h-239v667h239v-76h-149v-212h132v-76h-132v-227h149v-76zM223 773q0 -22 -15.5 -37t-37.5 -15t-37.5 15t-15.5 37t15.5 37.5t37.5 15.5t37.5 -15.5t15.5 -37.5z" />
    <glyph glyph-name="edotaccent" unicode="&#x117;" horiz-adv-x="326" 
d="M299 207h-188q0 -143 57 -143q51 0 51 87h77q-2 -59 -17 -90q-32 -68 -112 -68q-36 0 -62.5 15t-40.5 37t-22 55.5t-10 60t-2 61.5q0 43 4 76.5t16.5 72.5t41.5 61t73 22q36 0 62 -17.5t39.5 -42t21.5 -61.5t9.5 -64t1.5 -62zM111 267h104q-4 74 -18 96q-12 21 -34 21
q-46 0 -52 -110v-4v-3zM216 565q0 -22 -15.5 -37t-37.5 -15t-37.5 15t-15.5 37t15.5 37.5t37.5 15.5t37.5 -15.5t15.5 -37.5z" />
    <glyph glyph-name="Eogonek" unicode="&#x118;" horiz-adv-x="321" 
d="M51 667h239v-76h-149v-212h132v-76h-132v-227h149v-76h-26q-11 -11 -27 -36q-13 -22 -13 -37q0 -13 8 -21q8 -9 24 -9q20 0 34 11v-51q-20 -12 -45 -12q-31 0 -51 16q-23 19 -23 50q0 23 15 48q14 22 33 41h-168v667z" />
    <glyph glyph-name="eogonek" unicode="&#x119;" horiz-adv-x="326" 
d="M299 207h-188v-4q0 -100 29 -128q12 -11 28 -11q18 0 29 11q22 20 22 76h77q0 -41 -11 -77q-9 -30 -37 -61q-46 -52 -48 -55q-12 -18 -12 -32q0 -11 7 -20t23 -9q18 0 39 11v-51q-20 -12 -45 -12q-33 0 -53 16q-24 19 -24 51q0 22 17 48q10 15 29 34q-7 -1 -19 -1
q-49 0 -81 32q-51 51 -51 197q0 147 51 199q32 33 85 33q47 0 78 -30q55 -53 55 -194v-23zM111 267h104q-5 86 -26 107q-10 10 -25 10q-18 0 -28 -12q-22 -23 -25 -105z" />
    <glyph glyph-name="Ecaron" unicode="&#x11a;" horiz-adv-x="321" 
d="M290 0h-239v667h239v-76h-149v-212h132v-76h-132v-227h149v-76zM280 851l-109 -124l-111 124l46 34l64 -74l69 74z" />
    <glyph glyph-name="ecaron" unicode="&#x11b;" horiz-adv-x="326" 
d="M299 207h-188q0 -143 57 -143q51 0 51 87h77q-2 -59 -17 -90q-32 -68 -112 -68q-36 0 -62.5 15t-40.5 37t-22 55.5t-10 60t-2 61.5q0 43 4 76.5t16.5 72.5t41.5 61t73 22q36 0 62 -17.5t39.5 -42t21.5 -61.5t9.5 -64t1.5 -62zM111 267h104q-4 74 -18 96q-12 21 -34 21
q-46 0 -52 -110v-4v-3zM273 637l-109 -124l-111 124l46 34l64 -74l69 74z" />
    <glyph glyph-name="Gcircumflex" unicode="&#x11c;" horiz-adv-x="412" 
d="M374 351v-26q0 -159 -19 -226q-30 -108 -141 -108q-79 0 -115.5 47t-50.5 132q-10 66 -10 160q0 155 24 236q33 109 148 109q68 0 104 -33.5t56 -102.5l-84 -35q-6 29 -11.5 45.5t-22.5 31.5t-43 15q-35 0 -54 -35q-24 -45 -24 -228q0 -118 12 -183q7 -36 21.5 -55.5
t47.5 -19.5q26 0 43 14.5t23.5 42t8.5 47t2 47.5v49h-78v76h163zM316 761l-41 -34l-69 74l-64 -74l-46 34l111 124z" />
    <glyph glyph-name="gcircumflex" unicode="&#x11d;" horiz-adv-x="349" 
d="M303 447v-477q0 -80 -31 -119t-109 -39q-57 0 -92 34.5t-35 91.5q0 2 0.5 7t0.5 8h80q0 -72 53 -72q32 0 41 20.5t9 57.5v96q-27 -62 -81 -62q-22 0 -39.5 9t-29 22.5t-19.5 35.5t-12 40t-6 44t-2.5 41t-0.5 37q0 33 1 55t6.5 59t16 59.5t32.5 40.5t53 18q30 0 47 -15
t34 -46v54h83zM221 229q0 150 -55 150q-9 0 -16.5 -4t-13 -13t-9 -18t-6 -23.5t-4 -24.5t-2 -26.5t-0.5 -23.5v-22v-16q0 -141 56 -141q16 0 26 8.5t14.5 27t6 28.5t2.5 30q1 23 1 68zM285 547l-41 -34l-69 74l-64 -74l-46 34l111 124z" />
    <glyph glyph-name="Gbreve" unicode="&#x11e;" horiz-adv-x="412" 
d="M374 351v-26q0 -159 -19 -226q-30 -108 -141 -108q-79 0 -115.5 47t-50.5 132q-10 66 -10 160q0 155 24 236q33 109 148 109q68 0 104 -33.5t56 -102.5l-84 -35q-6 29 -11.5 45.5t-22.5 31.5t-43 15q-35 0 -54 -35q-24 -45 -24 -228q0 -118 12 -183q7 -36 21.5 -55.5
t47.5 -19.5q26 0 43 14.5t23.5 42t8.5 47t2 47.5v49h-78v76h163zM274 811h55q-5 -46 -39.5 -69.5t-83.5 -23.5t-83.5 23.5t-39.5 69.5h55q16 -35 68 -35t68 35z" />
    <glyph glyph-name="gbreve" unicode="&#x11f;" horiz-adv-x="349" 
d="M303 447v-477q0 -80 -31 -119t-109 -39q-57 0 -92 34.5t-35 91.5q0 2 0.5 7t0.5 8h80q0 -72 53 -72q32 0 41 20.5t9 57.5v96q-27 -62 -81 -62q-22 0 -39.5 9t-29 22.5t-19.5 35.5t-12 40t-6 44t-2.5 41t-0.5 37q0 33 1 55t6.5 59t16 59.5t32.5 40.5t53 18q30 0 47 -15
t34 -46v54h83zM221 229q0 150 -55 150q-9 0 -16.5 -4t-13 -13t-9 -18t-6 -23.5t-4 -24.5t-2 -26.5t-0.5 -23.5v-22v-16q0 -141 56 -141q16 0 26 8.5t14.5 27t6 28.5t2.5 30q1 23 1 68zM238 606h55q-5 -46 -39.5 -69.5t-83.5 -23.5t-83.5 23.5t-39.5 69.5h55q16 -35 68 -35
t68 35z" />
    <glyph glyph-name="Gdotaccent" unicode="&#x120;" horiz-adv-x="412" 
d="M374 351v-26q0 -159 -19 -226q-30 -108 -141 -108q-79 0 -115.5 47t-50.5 132q-10 66 -10 160q0 155 24 236q33 109 148 109q68 0 104 -33.5t56 -102.5l-84 -35q-6 29 -11.5 45.5t-22.5 31.5t-43 15q-35 0 -54 -35q-24 -45 -24 -228q0 -118 12 -183q7 -36 21.5 -55.5
t47.5 -19.5q26 0 43 14.5t23.5 42t8.5 47t2 47.5v49h-78v76h163zM259 773q0 -22 -15.5 -37t-37.5 -15t-37.5 15t-15.5 37t15.5 37.5t37.5 15.5t37.5 -15.5t15.5 -37.5z" />
    <glyph glyph-name="gdotaccent" unicode="&#x121;" horiz-adv-x="349" 
d="M303 447v-477q0 -80 -31 -119t-109 -39q-57 0 -92 34.5t-35 91.5q0 2 0.5 7t0.5 8h80q0 -72 53 -72q32 0 41 20.5t9 57.5v96q-27 -62 -81 -62q-22 0 -39.5 9t-29 22.5t-19.5 35.5t-12 40t-6 44t-2.5 41t-0.5 37q0 33 1 55t6.5 59t16 59.5t32.5 40.5t53 18q30 0 47 -15
t34 -46v54h83zM221 229q0 150 -55 150q-9 0 -16.5 -4t-13 -13t-9 -18t-6 -23.5t-4 -24.5t-2 -26.5t-0.5 -23.5v-22v-16q0 -141 56 -141q16 0 26 8.5t14.5 27t6 28.5t2.5 30q1 23 1 68zM208 565q0 -22 -15.5 -37t-37.5 -15t-37.5 15t-15.5 37t15.5 37.5t37.5 15.5t37.5 -15.5
t15.5 -37.5z" />
    <glyph glyph-name="Gcommaaccent" unicode="&#x122;" horiz-adv-x="412" 
d="M374 351v-26q0 -159 -19 -226q-30 -108 -141 -108q-79 0 -115.5 47t-50.5 132q-10 66 -10 160q0 155 24 236q33 109 148 109q68 0 104 -33.5t56 -102.5l-84 -35q-6 29 -11.5 45.5t-22.5 31.5t-43 15q-35 0 -54 -35q-24 -45 -24 -228q0 -118 12 -183q7 -36 21.5 -55.5
t47.5 -19.5q26 0 43 14.5t23.5 42t8.5 47t2 47.5v49h-78v76h163zM256 -69l-64 -167l-45 13l37 175z" />
    <glyph glyph-name="gcommaaccent" unicode="&#x123;" horiz-adv-x="349" 
d="M303 447v-477q0 -80 -31 -119t-109 -39q-57 0 -92 34.5t-35 91.5q0 2 0.5 7t0.5 8h80q0 -72 53 -72q32 0 41 20.5t9 57.5v96q-27 -62 -81 -62q-22 0 -39.5 9t-29 22.5t-19.5 35.5t-12 40t-6 44t-2.5 41t-0.5 37q0 33 1 55t6.5 59t16 59.5t32.5 40.5t53 18q30 0 47 -15
t34 -46v54h83zM221 229q0 150 -55 150q-9 0 -16.5 -4t-13 -13t-9 -18t-6 -23.5t-4 -24.5t-2 -26.5t-0.5 -23.5v-22v-16q0 -141 56 -141q16 0 26 8.5t14.5 27t6 28.5t2.5 30q1 23 1 68zM117 507l63 165l45 -13l-36 -173z" />
    <glyph glyph-name="Hcircumflex" unicode="&#x124;" horiz-adv-x="414" 
d="M363 0h-90v330h-132v-330h-90v667h90v-261h132v261h90v-667zM317 761l-41 -34l-69 74l-64 -74l-46 34l111 124z" />
    <glyph glyph-name="hcircumflex" unicode="&#x125;" horiz-adv-x="358" 
d="M311 0h-82v298q-1 19 -2 29t-5 25t-14.5 22.5t-26.5 7.5q-18 0 -29.5 -8t-16 -25t-5.5 -28.5t-1 -31.5v-289h-82v729h82v-334q19 30 39.5 44.5t52.5 14.5q28 0 46.5 -10t27.5 -29t12.5 -39t3.5 -46v-330zM195 787l-41 -34l-69 74l-64 -74l-46 34l111 124z" />
    <glyph glyph-name="Hbar" unicode="&#x126;" horiz-adv-x="414" 
d="M363 0h-90v330h-132v-330h-90v550h-48v64h48v53h90v-53h132v53h90v-53h48v-64h-48v-550zM273 550h-132v-144h132v144z" />
    <glyph glyph-name="hbar" unicode="&#x127;" horiz-adv-x="371" 
d="M324 0h-82v275q0 17 -1 28t-5 25.5t-14.5 22t-26.5 7.5q-19 0 -30.5 -8t-16 -25t-5.5 -28.5t-1 -31.5v-265h-82v521h-50v64h50v144h82v-144h106v-64h-106v-150q19 30 39.5 44.5t52.5 14.5q28 0 46.5 -10t27.5 -29t12.5 -39t3.5 -46v-306z" />
    <glyph glyph-name="Imacron" unicode="&#x12a;" horiz-adv-x="193" 
d="M141 0h-90v667h90v-667zM205 732h-224v62h224v-62z" />
    <glyph glyph-name="imacron" unicode="&#x12b;" horiz-adv-x="176" 
d="M129 0h-82v447h82v-447zM200 531h-224v62h224v-62z" />
    <glyph glyph-name="Iogonek" unicode="&#x12e;" horiz-adv-x="193" 
d="M53 667h90v-667q-21 -16 -33 -32q-17 -22 -17 -41q0 -11 8 -21q7 -9 24 -9q18 0 34 11v-51q-20 -12 -45 -12q-31 0 -51 17q-23 18 -23 48q0 27 18 51q17 22 40 39h-45v667z" />
    <glyph glyph-name="iogonek" unicode="&#x12f;" horiz-adv-x="176" 
d="M47 447h82v-447q-26 -32 -27 -34q-17 -24 -17 -40q0 -11 7 -20q8 -9 23 -9q18 0 39 11v-51q-20 -12 -45 -12q-33 0 -53 16q-24 19 -24 51q0 24 17 48q15 20 35 40h-37v447zM29 581q0 23 16.5 39.5t39.5 16.5t39.5 -16.5t16.5 -39.5t-16.5 -39.5t-39.5 -16.5t-39.5 16.5
t-16.5 39.5z" />
    <glyph glyph-name="Idotaccent" unicode="&#x130;" horiz-adv-x="193" 
d="M141 0h-90v667h90v-667zM150 773q0 -22 -15.5 -37t-37.5 -15t-37.5 15t-15.5 37t15.5 37.5t37.5 15.5t37.5 -15.5t15.5 -37.5z" />
    <glyph glyph-name="dotlessi" unicode="&#x131;" horiz-adv-x="176" 
d="M129 0h-82v447h82v-447z" />
    <glyph glyph-name="Jcircumflex" unicode="&#x134;" horiz-adv-x="259" 
d="M207 667v-518q0 -51 -10 -80q-27 -78 -122 -78q-44 0 -77 18v90q40 -23 60 -23q15 0 25.5 4t17 13.5t10 17t5 23.5t1.5 22v24v487h90zM265 761l-41 -34l-69 74l-64 -74l-46 34l111 124z" />
    <glyph glyph-name="jcircumflex" unicode="&#x135;" horiz-adv-x="176" 
d="M129 -188h-82v635h82v-635zM195 547l-41 -34l-69 74l-64 -74l-46 34l111 124z" />
    <glyph glyph-name="Kcommaaccent" unicode="&#x136;" horiz-adv-x="372" 
d="M367 0h-101l-125 327v-327h-90v667h90v-306l125 306h91l-135 -323zM250 -69l-64 -167l-45 13l37 175z" />
    <glyph glyph-name="kcommaaccent" unicode="&#x137;" horiz-adv-x="346" 
d="M342 0h-96l-117 218v-218h-82v729h82v-475l105 193h93l-119 -204zM226 -69l-63 -165l-45 13l36 173z" />
    <glyph glyph-name="Lacute" unicode="&#x139;" horiz-adv-x="293" 
d="M288 0h-237v667h90v-591h147v-76zM56 755l86 129l68 -42l-107 -115z" />
    <glyph glyph-name="lacute" unicode="&#x13a;" horiz-adv-x="176" 
d="M129 0h-82v729h82v-729zM44 791l86 129l68 -42l-107 -115z" />
    <glyph glyph-name="Lcommaaccent" unicode="&#x13b;" horiz-adv-x="293" 
d="M288 0h-237v667h90v-591h147v-76zM210 -69l-64 -167l-45 13l37 175z" />
    <glyph glyph-name="lcommaaccent" unicode="&#x13c;" horiz-adv-x="176" 
d="M129 0h-82v729h82v-729zM131 -69l-63 -165l-45 13l36 173z" />
    <glyph glyph-name="Lcaron" unicode="&#x13d;" horiz-adv-x="293" 
d="M288 0h-237v667h90v-591h147v-76zM313 667l-69 -189l-45 13l42 197z" />
    <glyph glyph-name="lcaron" unicode="&#x13e;" horiz-adv-x="273" 
d="M129 0h-82v729h82v-729zM283 667l-71 -189l-45 13l44 197z" />
    <glyph glyph-name="Ldot" unicode="&#x13f;" horiz-adv-x="293" 
d="M288 0h-237v667h90v-591h147v-76zM301 334q0 -22 -15.5 -37t-37.5 -15t-37.5 15t-15.5 37t15.5 37.5t37.5 15.5t37.5 -15.5t15.5 -37.5z" />
    <glyph glyph-name="ldot" unicode="&#x140;" horiz-adv-x="264" 
d="M129 0h-82v729h82v-729zM273 365q0 -22 -15.5 -37t-37.5 -15t-37.5 15t-15.5 37t15.5 37.5t37.5 15.5t37.5 -15.5t15.5 -37.5z" />
    <glyph glyph-name="Lslash" unicode="&#x141;" horiz-adv-x="293" 
d="M288 0h-237v230l-51 -56v88l51 56v349h90v-265l111 121v-88l-111 -121v-238h147v-76z" />
    <glyph glyph-name="lslash" unicode="&#x142;" horiz-adv-x="192" 
d="M138 729v-280l54 58v-79l-54 -58v-370h-83v292l-55 -59v79l55 59v358h83z" />
    <glyph glyph-name="Nacute" unicode="&#x143;" horiz-adv-x="413" 
d="M362 0h-84q-90 268 -110 331q-18 54 -25 82q-3 13 -10 47.5t-12 52.5q3 -22 8 -101q7 -114 11 -412h-89v667h84q5 -15 33 -96t37 -110t29.5 -91.5t33.5 -111t25 -98.5q-21 160 -21 254v253h90v-667zM163 755l86 129l68 -42l-107 -115z" />
    <glyph glyph-name="nacute" unicode="&#x144;" horiz-adv-x="358" 
d="M311 0h-82v290q-1 22 -2 33.5t-5 27.5t-14.5 23.5t-26.5 7.5q-18 0 -29.5 -8t-16 -25t-5.5 -28.5t-1 -31.5v-289h-82v447h82v-52q19 30 39.5 44.5t52.5 14.5q28 0 46.5 -10t27.5 -29t12.5 -39t3.5 -46v-330zM146 541l86 129l68 -42l-107 -115z" />
    <glyph glyph-name="Ncommaaccent" unicode="&#x145;" horiz-adv-x="413" 
d="M362 0h-84q-90 268 -110 331q-18 54 -25 82q-3 13 -10 47.5t-12 52.5q3 -22 8 -101q7 -114 11 -412h-89v667h84q5 -15 33 -96t37 -110t29.5 -91.5t33.5 -111t25 -98.5q-21 160 -21 254v253h90v-667zM256 -69l-64 -167l-45 13l37 175z" />
    <glyph glyph-name="ncommaaccent" unicode="&#x146;" horiz-adv-x="358" 
d="M311 0h-82v290q-1 22 -2 33.5t-5 27.5t-14.5 23.5t-26.5 7.5q-18 0 -29.5 -8t-16 -25t-5.5 -28.5t-1 -31.5v-289h-82v447h82v-52q19 30 39.5 44.5t52.5 14.5q28 0 46.5 -10t27.5 -29t12.5 -39t3.5 -46v-330zM231 -69l-63 -165l-45 13l36 173z" />
    <glyph glyph-name="Ncaron" unicode="&#x147;" horiz-adv-x="413" 
d="M362 0h-84q-90 268 -110 331q-18 54 -25 82q-3 13 -10 47.5t-12 52.5q3 -22 8 -101q7 -114 11 -412h-89v667h84q5 -15 33 -96t37 -110t29.5 -91.5t33.5 -111t25 -98.5q-21 160 -21 254v253h90v-667zM317 851l-109 -124l-111 124l46 34l64 -74l69 74z" />
    <glyph glyph-name="ncaron" unicode="&#x148;" horiz-adv-x="358" 
d="M311 0h-82v290q-1 22 -2 33.5t-5 27.5t-14.5 23.5t-26.5 7.5q-18 0 -29.5 -8t-16 -25t-5.5 -28.5t-1 -31.5v-289h-82v447h82v-52q19 30 39.5 44.5t52.5 14.5q28 0 46.5 -10t27.5 -29t12.5 -39t3.5 -46v-330zM300 637l-109 -124l-111 124l46 34l64 -74l69 74z" />
    <glyph glyph-name="Omacron" unicode="&#x14c;" horiz-adv-x="423" 
d="M385 321q0 -92 -10 -157q-14 -83 -49.5 -128t-112.5 -45q-93 0 -134 75q-41 74 -41 283q0 170 36 245q39 81 137 81q89 0 131 -71q43 -74 43 -283zM291 346q0 125 -14 185q-14 63 -66 63q-33 0 -52 -28q-27 -38 -27 -194q0 -155 9 -211q15 -87 71 -87q44 0 62 48
q17 48 17 224zM324 732h-224v62h224v-62z" />
    <glyph glyph-name="omacron" unicode="&#x14d;" horiz-adv-x="341" 
d="M311 223q0 -44 -4.5 -78t-18 -72t-43.5 -59t-75 -21q-36 0 -62.5 15t-41 37.5t-23 55.5t-11 60.5t-2.5 61.5t2 61.5t10.5 61t23 55.5t41.5 37.5t63 15.5q45 0 75 -21t43.5 -59t18 -72.5t4.5 -78.5zM225 197v54q0 128 -53 128t-53 -127v-54q0 -128 53 -128t53 127z
M283 531h-224v62h224v-62z" />
    <glyph glyph-name="Obreve" unicode="&#x14e;" horiz-adv-x="423" 
d="M385 321q0 -92 -10 -157q-14 -83 -49.5 -128t-112.5 -45q-93 0 -134 75q-41 74 -41 283q0 170 36 245q39 81 137 81q89 0 131 -71q43 -74 43 -283zM291 346q0 125 -14 185q-14 63 -66 63q-33 0 -52 -28q-27 -38 -27 -194q0 -155 9 -211q15 -87 71 -87q44 0 62 48
q17 48 17 224zM280 811h55q-5 -46 -39.5 -69.5t-83.5 -23.5t-83.5 23.5t-39.5 69.5h55q16 -35 68 -35t68 35z" />
    <glyph glyph-name="obreve" unicode="&#x14f;" horiz-adv-x="341" 
d="M311 223q0 -44 -4.5 -78t-18 -72t-43.5 -59t-75 -21q-36 0 -62.5 15t-41 37.5t-23 55.5t-11 60.5t-2.5 61.5t2 61.5t10.5 61t23 55.5t41.5 37.5t63 15.5q45 0 75 -21t43.5 -59t18 -72.5t4.5 -78.5zM225 197v54q0 128 -53 128t-53 -127v-54q0 -128 53 -128t53 127z
M239 606h55q-5 -46 -39.5 -69.5t-83.5 -23.5t-83.5 23.5t-39.5 69.5h55q16 -35 68 -35t68 35z" />
    <glyph glyph-name="Ohungarumlaut" unicode="&#x150;" horiz-adv-x="423" 
d="M385 321q0 -92 -10 -157q-14 -83 -49.5 -128t-112.5 -45q-93 0 -134 75q-41 74 -41 283q0 170 36 245q39 81 137 81q89 0 131 -71q43 -74 43 -283zM291 346q0 125 -14 185q-14 63 -66 63q-33 0 -52 -28q-27 -38 -27 -194q0 -155 9 -211q15 -87 71 -87q44 0 62 48
q17 48 17 224zM350 852l-77 -126l-39 21l61 138zM237 852l-77 -126l-40 21l61 138z" />
    <glyph glyph-name="ohungarumlaut" unicode="&#x151;" horiz-adv-x="341" 
d="M311 223q0 -44 -4.5 -78t-18 -72t-43.5 -59t-75 -21q-36 0 -62.5 15t-41 37.5t-23 55.5t-11 60.5t-2.5 61.5t2 61.5t10.5 61t23 55.5t41.5 37.5t63 15.5q45 0 75 -21t43.5 -59t18 -72.5t4.5 -78.5zM225 197v54q0 128 -53 128t-53 -127v-54q0 -128 53 -128t53 127z
M304 638l-77 -126l-39 21l61 138zM191 638l-77 -126l-40 21l61 138z" />
    <glyph glyph-name="OE" unicode="&#x152;" horiz-adv-x="564" 
d="M526 0h-232v52q-34 -61 -100 -61q-32 0 -58 14t-42 33t-27.5 52.5t-17 58.5t-8 65.5t-3 60t-0.5 54.5q0 161 25 242q15 48 48 76t81 28q67 0 98 -60v52h231v-76h-147v-212h135v-76h-135v-227h152v-76zM290 264v140q0 23 -0.5 34t-2 39t-6.5 44.5t-13 36t-22.5 29
t-33.5 9.5q-20 0 -34.5 -12.5t-22 -26.5t-13 -41t-6.5 -38.5t-3 -36.5q-3 -52 -3 -107q0 -53 3 -107q2 -25 3 -36t6.5 -38t13 -41t22 -26.5t34.5 -12.5q19 0 33 9.5t22 28.5t13.5 36.5t7 44t2 39t0.5 33.5z" />
    <glyph glyph-name="oe" unicode="&#x153;" horiz-adv-x="524" 
d="M494 207h-189q5 -92 23 -121q14 -22 36 -22q51 0 51 87h77q-3 -69 -34.5 -113.5t-96.5 -44.5q-35 0 -57 14.5t-40 46.5q-16 -33 -38 -47t-59 -14q-36 0 -62.5 16t-40.5 39t-22 57.5t-10 62t-2 61.5q0 122 37 174q37 51 103 51q69 0 95 -60q29 60 96 60q36 0 62.5 -17.5
t39.5 -41.5t20.5 -61.5t9 -64t1.5 -62.5zM307 264h102q-2 82 -21 106q-12 15 -31 15q-50 0 -50 -95v-26zM225 223q0 156 -54 156q-56 0 -56 -156t54 -156q56 0 56 156z" />
    <glyph glyph-name="Racute" unicode="&#x154;" horiz-adv-x="373" 
d="M355 0h-92l-122 311v-311h-90v667h119q64 0 97 -25q57 -43 57 -149q0 -37 -7 -69t-30 -62t-59 -38zM141 593v-222q46 0 65 16q31 26 31 90q0 57 -18 88q-17 28 -63 28h-15zM126 755l86 129l68 -42l-107 -115z" />
    <glyph glyph-name="racute" unicode="&#x155;" horiz-adv-x="236" 
d="M226 457v-86q-5 1 -15 1q-48 0 -65 -25.5t-17 -75.5v-271h-82v447h82v-56q20 34 40.5 49t56.5 17zM81 541l86 129l68 -42l-107 -115z" />
    <glyph glyph-name="Rcommaaccent" unicode="&#x156;" horiz-adv-x="373" 
d="M355 0h-92l-122 311v-311h-90v667h119q64 0 97 -25q57 -43 57 -149q0 -37 -7 -69t-30 -62t-59 -38zM141 593v-222q46 0 65 16q31 26 31 90q0 57 -18 88q-17 28 -63 28h-15zM244 -69l-64 -167l-45 13l37 175z" />
    <glyph glyph-name="rcommaaccent" unicode="&#x157;" horiz-adv-x="236" 
d="M226 457v-86q-5 1 -15 1q-48 0 -65 -25.5t-17 -75.5v-271h-82v447h82v-56q20 34 40.5 49t56.5 17zM176 -69l-63 -165l-45 13l36 173z" />
    <glyph glyph-name="Rcaron" unicode="&#x158;" horiz-adv-x="373" 
d="M355 0h-92l-122 311v-311h-90v667h119q64 0 97 -25q57 -43 57 -149q0 -37 -7 -69t-30 -62t-59 -38zM141 593v-222q46 0 65 16q31 26 31 90q0 57 -18 88q-17 28 -63 28h-15zM280 851l-109 -124l-111 124l46 34l64 -74l69 74z" />
    <glyph glyph-name="rcaron" unicode="&#x159;" horiz-adv-x="236" 
d="M226 457v-86q-5 1 -15 1q-48 0 -65 -25.5t-17 -75.5v-271h-82v447h82v-56q20 34 40.5 49t56.5 17zM240 637l-109 -124l-111 124l46 34l64 -74l69 74z" />
    <glyph glyph-name="Sacute" unicode="&#x15a;" horiz-adv-x="330" 
d="M274 653l-1 -88q-39 30 -73 30q-37 0 -59 -26t-22 -63q0 -34 19 -64t46.5 -56t55 -54.5t46.5 -70.5t19 -93q0 -74 -41.5 -125.5t-113.5 -51.5q-56 0 -98 32v89q47 -35 87 -35q38 0 58.5 26t20.5 65q0 38 -19.5 70t-46.5 57.5t-54.5 53t-47 67.5t-19.5 89q0 75 39 122.5
t112 47.5q49 0 92 -22zM141 755l86 129l68 -42l-107 -115z" />
    <glyph glyph-name="sacute" unicode="&#x15b;" horiz-adv-x="260" 
d="M219 438v-77q-28 22 -63 22q-21 0 -37 -14.5t-16 -35.5q0 -20 14 -37t34.5 -31.5t41 -31.5t34.5 -45t14 -63q0 -59 -34.5 -95.5t-93.5 -36.5q-38 0 -73 21v80q35 -27 68 -27q27 0 42 14.5t15 41.5q0 22 -14.5 41t-35 34t-41 32.5t-35 44t-14.5 60.5q0 54 33 88t87 34
q39 0 74 -19zM96 541l86 129l68 -42l-107 -115z" />
    <glyph glyph-name="Scircumflex" unicode="&#x15c;" horiz-adv-x="330" 
d="M274 653l-1 -88q-39 30 -73 30q-37 0 -59 -26t-22 -63q0 -34 19 -64t46.5 -56t55 -54.5t46.5 -70.5t19 -93q0 -74 -41.5 -125.5t-113.5 -51.5q-56 0 -98 32v89q47 -35 87 -35q38 0 58.5 26t20.5 65q0 38 -19.5 70t-46.5 57.5t-54.5 53t-47 67.5t-19.5 89q0 75 39 122.5
t112 47.5q49 0 92 -22zM295 761l-41 -34l-69 74l-64 -74l-46 34l111 124z" />
    <glyph glyph-name="scircumflex" unicode="&#x15d;" horiz-adv-x="260" 
d="M219 438v-77q-28 22 -63 22q-21 0 -37 -14.5t-16 -35.5q0 -20 14 -37t34.5 -31.5t41 -31.5t34.5 -45t14 -63q0 -59 -34.5 -95.5t-93.5 -36.5q-38 0 -73 21v80q35 -27 68 -27q27 0 42 14.5t15 41.5q0 22 -14.5 41t-35 34t-41 32.5t-35 44t-14.5 60.5q0 54 33 88t87 34
q39 0 74 -19zM250 547l-41 -34l-69 74l-64 -74l-46 34l111 124z" />
    <glyph glyph-name="Scedilla" unicode="&#x15e;" horiz-adv-x="330" 
d="M274 653l-1 -88q-39 30 -73 30q-37 0 -59 -26t-22 -63q0 -34 19 -64t46.5 -56t55 -54.5t46.5 -70.5t19 -93q0 -74 -41.5 -125.5t-113.5 -51.5q-56 0 -98 32v89q47 -35 87 -35q38 0 58.5 26t20.5 65q0 38 -19.5 70t-46.5 57.5t-54.5 53t-47 67.5t-19.5 89q0 75 39 122.5
t112 47.5q49 0 92 -22zM214 -72l-73 -118l-49 23l54 125z" />
    <glyph glyph-name="scedilla" unicode="&#x15f;" horiz-adv-x="260" 
d="M219 438v-77q-28 22 -63 22q-21 0 -37 -14.5t-16 -35.5q0 -20 14 -37t34.5 -31.5t41 -31.5t34.5 -45t14 -63q0 -59 -34.5 -95.5t-93.5 -36.5q-38 0 -73 21v80q35 -27 68 -27q27 0 42 14.5t15 41.5q0 22 -14.5 41t-35 34t-41 32.5t-35 44t-14.5 60.5q0 54 33 88t87 34
q39 0 74 -19zM176 -74l-76 -117l-38 20l55 126z" />
    <glyph glyph-name="Scaron" unicode="&#x160;" horiz-adv-x="330" 
d="M274 653l-1 -88q-39 30 -73 30q-37 0 -59 -26t-22 -63q0 -34 19 -64t46.5 -56t55 -54.5t46.5 -70.5t19 -93q0 -74 -41.5 -125.5t-113.5 -51.5q-56 0 -98 32v89q47 -35 87 -35q38 0 58.5 26t20.5 65q0 38 -19.5 70t-46.5 57.5t-54.5 53t-47 67.5t-19.5 89q0 75 39 122.5
t112 47.5q49 0 92 -22zM295 851l-109 -124l-111 124l46 34l64 -74l69 74z" />
    <glyph glyph-name="scaron" unicode="&#x161;" horiz-adv-x="260" 
d="M219 438v-77q-28 22 -63 22q-21 0 -37 -14.5t-16 -35.5q0 -20 14 -37t34.5 -31.5t41 -31.5t34.5 -45t14 -63q0 -59 -34.5 -95.5t-93.5 -36.5q-38 0 -73 21v80q35 -27 68 -27q27 0 42 14.5t15 41.5q0 22 -14.5 41t-35 34t-41 32.5t-35 44t-14.5 60.5q0 54 33 88t87 34
q39 0 74 -19zM255 637l-109 -124l-111 124l46 34l64 -74l69 74z" />
    <glyph glyph-name="Tcedilla" unicode="&#x162;" horiz-adv-x="288" 
d="M290 588h-102v-588h-88v588h-102v79h292v-79zM210 -72l-73 -118l-49 23l54 125z" />
    <glyph glyph-name="tcedilla" unicode="&#x163;" horiz-adv-x="196" 
d="M184 383h-45v-383h-82v383h-46v64h46v127h82v-127h45v-64zM155 -74l-76 -117l-38 20l55 126z" />
    <glyph glyph-name="Tcaron" unicode="&#x164;" horiz-adv-x="288" 
d="M188 588h102v79h-292v-79h102v-588h88v588zM255 851l-109 -124l-111 124l46 34l64 -74l69 74z" />
    <glyph glyph-name="tcaron" unicode="&#x165;" horiz-adv-x="278" 
d="M184 383h-45v-383h-82v383h-46v64h46v127h82v-127h45v-64zM288 667l-71 -189l-45 13l44 197z" />
    <glyph glyph-name="Utilde" unicode="&#x168;" horiz-adv-x="409" 
d="M358 667v-490q0 -95 -32 -140.5t-123 -45.5q-86 0 -119 47t-33 136v493h88v-490q0 -23 2 -37.5t8 -31t20.5 -24.5t36.5 -8q19 0 32 6.5t19 14t9 24.5t3.5 25.5t0.5 30.5v490h88zM266 815h49q0 -88 -66 -88q-17 0 -43 14t-39 14q-20 0 -20 -24h-54q4 88 67 88q20 0 48 -15
t40 -15q4 0 6.5 1t4 3t3 5t2 5.5t1 6t1.5 5.5z" />
    <glyph glyph-name="utilde" unicode="&#x169;" horiz-adv-x="359" 
d="M313 447v-302q0 -78 -30 -115.5t-107 -37.5q-70 0 -104 45q-25 33 -25 108v302h82v-268q0 -5 0.5 -15.5t0.5 -15.5q1 -25 2.5 -38t13.5 -26t34 -13q15 0 25 5.5t15.5 12.5t8 21t2.5 22t-0.5 25t-0.5 22v268h83zM241 601h49q0 -88 -66 -88q-16 0 -42 14t-40 14
q-20 0 -20 -24h-54q4 88 67 88q21 0 49 -15t39 -15q4 0 6.5 1t4 3t3 5t2 5.5t1 6t1.5 5.5z" />
    <glyph glyph-name="Umacron" unicode="&#x16a;" horiz-adv-x="409" 
d="M358 667v-490q0 -95 -32 -140.5t-123 -45.5q-86 0 -119 47t-33 136v493h88v-490q0 -23 2 -37.5t8 -31t20.5 -24.5t36.5 -8q19 0 32 6.5t19 14t9 24.5t3.5 25.5t0.5 30.5v490h88zM317 732h-224v62h224v-62z" />
    <glyph glyph-name="umacron" unicode="&#x16b;" horiz-adv-x="359" 
d="M313 447v-302q0 -78 -30 -115.5t-107 -37.5q-70 0 -104 45q-25 33 -25 108v302h82v-268q0 -5 0.5 -15.5t0.5 -15.5q1 -25 2.5 -38t13.5 -26t34 -13q15 0 25 5.5t15.5 12.5t8 21t2.5 22t-0.5 25t-0.5 22v268h83zM287 531h-224v62h224v-62z" />
    <glyph glyph-name="Ubreve" unicode="&#x16c;" horiz-adv-x="409" 
d="M358 667v-490q0 -95 -32 -140.5t-123 -45.5q-86 0 -119 47t-33 136v493h88v-490q0 -23 2 -37.5t8 -31t20.5 -24.5t36.5 -8q19 0 32 6.5t19 14t9 24.5t3.5 25.5t0.5 30.5v490h88zM273 811h55q-5 -46 -39.5 -69.5t-83.5 -23.5t-83.5 23.5t-39.5 69.5h55q16 -35 68 -35
t68 35z" />
    <glyph glyph-name="ubreve" unicode="&#x16d;" horiz-adv-x="359" 
d="M313 447v-302q0 -78 -30 -115.5t-107 -37.5q-70 0 -104 45q-25 33 -25 108v302h82v-268q0 -5 0.5 -15.5t0.5 -15.5q1 -25 2.5 -38t13.5 -26t34 -13q15 0 25 5.5t15.5 12.5t8 21t2.5 22t-0.5 25t-0.5 22v268h83zM248 606h55q-5 -46 -39.5 -69.5t-83.5 -23.5t-83.5 23.5
t-39.5 69.5h55q16 -35 68 -35t68 35z" />
    <glyph glyph-name="Uring" unicode="&#x16e;" horiz-adv-x="409" 
d="M358 667v-490q0 -95 -32 -140.5t-123 -45.5q-86 0 -119 47t-33 136v493h88v-490q0 -23 2 -37.5t8 -31t20.5 -24.5t36.5 -8q19 0 32 6.5t19 14t9 24.5t3.5 25.5t0.5 30.5v490h88zM120 799q0 36 24.5 60.5t60.5 24.5t60.5 -24.5t24.5 -60.5t-24.5 -60.5t-60.5 -24.5
t-60.5 24.5t-24.5 60.5zM165 799q0 -17 11.5 -28.5t28.5 -11.5t28.5 11.5t11.5 28.5t-11.5 28.5t-28.5 11.5t-28.5 -11.5t-11.5 -28.5z" />
    <glyph glyph-name="uring" unicode="&#x16f;" horiz-adv-x="359" 
d="M313 447v-302q0 -78 -30 -115.5t-107 -37.5q-70 0 -104 45q-25 33 -25 108v302h82v-268q0 -5 0.5 -15.5t0.5 -15.5q1 -25 2.5 -38t13.5 -26t34 -13q15 0 25 5.5t15.5 12.5t8 21t2.5 22t-0.5 25t-0.5 22v268h83zM95 600q0 36 24.5 60.5t60.5 24.5t60.5 -24.5t24.5 -60.5
t-24.5 -60.5t-60.5 -24.5t-60.5 24.5t-24.5 60.5zM140 600q0 -17 11.5 -28.5t28.5 -11.5t28.5 11.5t11.5 28.5t-11.5 28.5t-28.5 11.5t-28.5 -11.5t-11.5 -28.5z" />
    <glyph glyph-name="Uhungarumlaut" unicode="&#x170;" horiz-adv-x="409" 
d="M358 667v-490q0 -95 -32 -140.5t-123 -45.5q-86 0 -119 47t-33 136v493h88v-490q0 -23 2 -37.5t8 -31t20.5 -24.5t36.5 -8q19 0 32 6.5t19 14t9 24.5t3.5 25.5t0.5 30.5v490h88zM328 852l-77 -126l-39 21l61 138zM215 852l-77 -126l-40 21l61 138z" />
    <glyph glyph-name="uhungarumlaut" unicode="&#x171;" horiz-adv-x="359" 
d="M313 447v-302q0 -78 -30 -115.5t-107 -37.5q-70 0 -104 45q-25 33 -25 108v302h82v-268q0 -5 0.5 -15.5t0.5 -15.5q1 -25 2.5 -38t13.5 -26t34 -13q15 0 25 5.5t15.5 12.5t8 21t2.5 22t-0.5 25t-0.5 22v268h83zM308 638l-77 -126l-39 21l61 138zM195 638l-77 -126l-40 21
l61 138z" />
    <glyph glyph-name="Uogonek" unicode="&#x172;" horiz-adv-x="409" 
d="M358 667v-490q0 -62 -14 -95q-14 -34 -51 -69q-39 -36 -46 -45q-16 -20 -16 -40q0 -14 8 -22q8 -9 25 -9t33 11v-51q-23 -12 -46 -12q-32 0 -50 15q-23 20 -23 51q0 20 14 44q10 18 27 36h-9q-83 0 -120 37q-39 39 -39 149v490h88v-494q0 -62 17 -81q15 -16 49 -16
q33 0 48 16q17 19 17 81v494h88z" />
    <glyph glyph-name="uogonek" unicode="&#x173;" horiz-adv-x="359" 
d="M313 447v-306q0 -68 -26 -105q-14 -20 -43 -42q-24 -19 -35 -35q-12 -17 -12 -33q0 -11 7 -20q8 -9 23 -9q18 0 39 11v-51q-20 -12 -45 -12q-33 0 -53 16q-24 19 -24 51q0 22 17 48q10 15 29 34q-6 -1 -21 -1q-58 0 -88 32q-34 35 -34 116v306h83v-310q0 -39 15 -54
q12 -12 35 -12t35 12q15 15 15 54v310h83z" />
    <glyph glyph-name="Ydieresis" unicode="&#x178;" horiz-adv-x="341" 
d="M343 667l-116 -380v-287h-90v287l-139 380h95l54 -179q23 -76 33 -130q12 74 26 132l44 177h93zM290 771q0 -21 -14.5 -35.5t-35.5 -14.5t-35.5 14.5t-14.5 35.5t14.5 35.5t35.5 14.5t35.5 -14.5t14.5 -35.5zM142 771q0 -21 -14.5 -35.5t-35.5 -14.5t-35.5 14.5
t-14.5 35.5t14.5 35.5t35.5 14.5t35.5 -14.5t14.5 -35.5z" />
    <glyph glyph-name="Zacute" unicode="&#x179;" horiz-adv-x="334" 
d="M329 667l-201 -588h190v-79h-307l202 591h-178v76h294zM126 755l86 129l68 -42l-107 -115z" />
    <glyph glyph-name="zacute" unicode="&#x17a;" horiz-adv-x="298" 
d="M285 447l-150 -372h142v-75h-264l155 374h-143v73h260zM101 541l86 129l68 -42l-107 -115z" />
    <glyph glyph-name="Zdotaccent" unicode="&#x17b;" horiz-adv-x="334" 
d="M329 667l-201 -588h190v-79h-307l202 591h-178v76h294zM237 773q0 -22 -15.5 -37t-37.5 -15t-37.5 15t-15.5 37t15.5 37.5t37.5 15.5t37.5 -15.5t15.5 -37.5z" />
    <glyph glyph-name="zdotaccent" unicode="&#x17c;" horiz-adv-x="298" 
d="M285 447l-150 -372h142v-75h-264l155 374h-143v73h260zM209 565q0 -22 -15.5 -37t-37.5 -15t-37.5 15t-15.5 37t15.5 37.5t37.5 15.5t37.5 -15.5t15.5 -37.5z" />
    <glyph glyph-name="Zcaron" unicode="&#x17d;" horiz-adv-x="334" 
d="M329 667l-201 -588h190v-79h-307l202 591h-178v76h294zM285 851l-109 -124l-111 124l46 34l64 -74l69 74z" />
    <glyph glyph-name="zcaron" unicode="&#x17e;" horiz-adv-x="298" 
d="M285 447l-150 -372h142v-75h-264l155 374h-143v73h260zM265 637l-109 -124l-111 124l46 34l64 -74l69 74z" />
    <glyph glyph-name="uni018F" unicode="&#x18f;" horiz-adv-x="411" 
d="M38 351h243q-2 81 -7 135q-6 70 -32 94q-17 16 -44 16q-28 0 -44 -15q-23 -21 -32 -77l-84 35q17 63 51 97q39 39 108 39t110 -40q42 -40 54.5 -112t12.5 -177q0 -250 -69 -317q-39 -38 -107 -38q-64 0 -101 37q-36 37 -47.5 103t-11.5 170v50zM280 275h-157v-49
q0 -101 31 -133q18 -18 46 -18q27 0 43 15q20 19 29 79q6 41 8 106z" />
    <glyph glyph-name="florin" unicode="&#x192;" horiz-adv-x="380" 
d="M386 728l-17 -84q-17 11 -35 11q-9 0 -16 -3t-12 -9.5t-8.5 -12t-6.5 -16t-4 -16l-3 -16.5t-3 -14l-24 -121h69l-12 -61h-69l-59 -310q-5 -26 -6 -31.5t-6.5 -30.5t-8.5 -33t-11 -28.5t-14.5 -28.5t-18 -22t-23.5 -19.5t-28 -10.5t-35 -5q-27 0 -56 11l15 76q21 -7 37 -7
q17 0 28.5 8.5t19 26.5t10 28.5t6.5 31.5l66 344h-60l12 61h60l24 121q5 27 7 36.5t8.5 33.5t11.5 34t15.5 26t22.5 23t30 13t40 6q27 0 54 -12z" />
    <glyph glyph-name="uni01CF" unicode="&#x1cf;" horiz-adv-x="193" 
d="M141 0h-90v667h90v-667zM202 851l-109 -124l-111 124l46 34l64 -74l69 74z" />
    <glyph glyph-name="uni01D0" unicode="&#x1d0;" horiz-adv-x="176" 
d="M129 0h-82v447h82v-447zM198 637l-109 -124l-111 124l46 34l64 -74l69 74z" />
    <glyph glyph-name="uni01DD" unicode="&#x1dd;" horiz-adv-x="326" 
d="M30 248h188v4q0 94 -29 120q-12 11 -28 11q-18 0 -29 -11q-23 -21 -25 -76l-77 16q12 75 43 107q33 35 89 35q54 0 86 -32q51 -50 51 -197t-51 -199q-32 -33 -85 -33q-47 0 -78 30q-55 53 -55 194v31zM218 188h-104q2 -91 26 -115q10 -10 25 -10q17 0 28 12q24 25 25 113
z" />
    <glyph glyph-name="Gcaron" unicode="&#x1e6;" horiz-adv-x="412" 
d="M374 351v-26q0 -159 -19 -226q-30 -108 -141 -108q-79 0 -115.5 47t-50.5 132q-10 66 -10 160q0 155 24 236q33 109 148 109q68 0 104 -33.5t56 -102.5l-84 -35q-6 29 -11.5 45.5t-22.5 31.5t-43 15q-35 0 -54 -35q-24 -45 -24 -228q0 -118 12 -183q7 -36 21.5 -55.5
t47.5 -19.5q26 0 43 14.5t23.5 42t8.5 47t2 47.5v49h-78v76h163zM316 851l-109 -124l-111 124l46 34l64 -74l69 74z" />
    <glyph glyph-name="gcaron" unicode="&#x1e7;" horiz-adv-x="349" 
d="M303 447v-477q0 -80 -31 -119t-109 -39q-57 0 -92 34.5t-35 91.5q0 2 0.5 7t0.5 8h80q0 -72 53 -72q32 0 41 20.5t9 57.5v96q-27 -62 -81 -62q-22 0 -39.5 9t-29 22.5t-19.5 35.5t-12 40t-6 44t-2.5 41t-0.5 37q0 33 1 55t6.5 59t16 59.5t32.5 40.5t53 18q30 0 47 -15
t34 -46v54h83zM221 229q0 150 -55 150q-9 0 -16.5 -4t-13 -13t-9 -18t-6 -23.5t-4 -24.5t-2 -26.5t-0.5 -23.5v-22v-16q0 -141 56 -141q16 0 26 8.5t14.5 27t6 28.5t2.5 30q1 23 1 68zM275 637l-109 -124l-111 124l46 34l64 -74l69 74z" />
    <glyph glyph-name="AEacute" unicode="&#x1fc;" horiz-adv-x="511" 
d="M510 0h-232l-27 131h-138l-24 -131h-88l142 667h221l17 -76h-145l45 -212h132l18 -76h-132l51 -227h142zM239 199l-32 151q-13 64 -27 190q-2 -38 -18 -143q-15 -99 -36 -198h113zM211 755l86 129l68 -42l-107 -115z" />
    <glyph glyph-name="aeacute" unicode="&#x1fd;" horiz-adv-x="505" 
d="M396 153h79q-4 -75 -32 -117.5t-97 -42.5q-77 0 -106 70q-16 -37 -39 -53.5t-62 -16.5q-109 0 -109 144q0 63 25.5 107t84.5 44q45 0 70 -29q0 5 -0.5 21.5t-1 22t-2.5 18.5t-5 18t-8 13.5t-12.5 12t-19 6.5t-25.5 3q-43 0 -84 -26v84q48 22 90 22q74 0 106 -57
q34 57 96 57q30 0 53.5 -11.5t37 -33t22.5 -44t12.5 -55t4.5 -53.5t1 -51h-184v-18q0 -127 57 -127q48 0 48 92zM392 266v20q0 100 -50 100t-50 -99v-21h100zM216 142q0 81 -52 81q-51 0 -51 -77q0 -87 51 -87q52 0 52 83zM208 541l86 129l68 -42l-107 -115z" />
    <glyph glyph-name="Scommaaccent" unicode="&#x218;" horiz-adv-x="330" 
d="M274 653l-1 -88q-39 30 -73 30q-37 0 -59 -26t-22 -63q0 -34 19 -64t46.5 -56t55 -54.5t46.5 -70.5t19 -93q0 -74 -41.5 -125.5t-113.5 -51.5q-56 0 -98 32v89q47 -35 87 -35q38 0 58.5 26t20.5 65q0 38 -19.5 70t-46.5 57.5t-54.5 53t-47 67.5t-19.5 89q0 75 39 122.5
t112 47.5q49 0 92 -22zM206 -69l-64 -167l-45 13l37 175z" />
    <glyph glyph-name="scommaaccent" unicode="&#x219;" horiz-adv-x="260" 
d="M219 438v-77q-28 22 -63 22q-21 0 -37 -14.5t-16 -35.5q0 -20 14 -37t34.5 -31.5t41 -31.5t34.5 -45t14 -63q0 -59 -34.5 -95.5t-93.5 -36.5q-38 0 -73 21v80q35 -27 68 -27q27 0 42 14.5t15 41.5q0 22 -14.5 41t-35 34t-41 32.5t-35 44t-14.5 60.5q0 54 33 88t87 34
q39 0 74 -19zM181 -69l-63 -165l-45 13l36 173z" />
    <glyph glyph-name="Tcommaaccent" unicode="&#x21a;" horiz-adv-x="288" 
d="M290 588h-102v-588h-88v588h-102v79h292v-79zM180 -69l-64 -167l-45 13l37 175z" />
    <glyph glyph-name="tcommaaccent" unicode="&#x21b;" horiz-adv-x="196" 
d="M184 383h-45v-383h-82v383h-46v64h46v127h82v-127h45v-64zM136 -69l-63 -165l-45 13l36 173z" />
    <glyph glyph-name="uni0228" unicode="&#x228;" horiz-adv-x="321" 
d="M290 0h-239v667h239v-76h-149v-212h132v-76h-132v-227h149v-76zM237 -72l-73 -118l-49 23l54 125z" />
    <glyph glyph-name="uni0229" unicode="&#x229;" horiz-adv-x="326" 
d="M299 207h-188q0 -143 57 -143q51 0 51 87h77q-2 -59 -17 -90q-32 -68 -112 -68q-36 0 -62.5 15t-40.5 37t-22 55.5t-10 60t-2 61.5q0 43 4 76.5t16.5 72.5t41.5 61t73 22q36 0 62 -17.5t39.5 -42t21.5 -61.5t9.5 -64t1.5 -62zM111 267h104q-4 74 -18 96q-12 21 -34 21
q-46 0 -52 -110v-4v-3zM220 -74l-76 -117l-38 20l55 126z" />
    <glyph glyph-name="uni0237" unicode="&#x237;" horiz-adv-x="176" 
d="M129 -188h-82v635h82v-635z" />
    <glyph glyph-name="uni0259" unicode="&#x259;" horiz-adv-x="326" 
d="M30 248h188v4q0 94 -29 120q-12 11 -28 11q-18 0 -29 -11q-23 -21 -25 -76l-77 16q12 75 43 107q33 35 89 35q54 0 86 -32q51 -50 51 -197t-51 -199q-32 -33 -85 -33q-47 0 -78 30q-55 53 -55 194v31zM218 188h-104q2 -91 26 -115q10 -10 25 -10q17 0 28 12q24 25 25 113
z" />
    <glyph glyph-name="afii57929" unicode="&#x2bc;" horiz-adv-x="196" 
d="M163 667l-71 -189l-45 13l44 197z" />
    <glyph glyph-name="circumflex" unicode="&#x2c6;" 
d="M360 547l-41 -34l-69 74l-64 -74l-46 34l111 124z" />
    <glyph glyph-name="caron" unicode="&#x2c7;" 
d="M360 637l-109 -124l-111 124l46 34l64 -74l69 74z" />
    <glyph glyph-name="uni02C9" unicode="&#x2c9;" 
d="M362 531h-224v62h224v-62z" />
    <glyph glyph-name="breve" unicode="&#x2d8;" 
d="M318 606h55q-5 -46 -39.5 -69.5t-83.5 -23.5t-83.5 23.5t-39.5 69.5h55q16 -35 68 -35t68 35z" />
    <glyph glyph-name="dotaccent" unicode="&#x2d9;" 
d="M303 565q0 -22 -15.5 -37t-37.5 -15t-37.5 15t-15.5 37t15.5 37.5t37.5 15.5t37.5 -15.5t15.5 -37.5z" />
    <glyph glyph-name="ring" unicode="&#x2da;" 
d="M165 600q0 36 24.5 60.5t60.5 24.5t60.5 -24.5t24.5 -60.5t-24.5 -60.5t-60.5 -24.5t-60.5 24.5t-24.5 60.5zM210 600q0 -17 11.5 -28.5t28.5 -11.5t28.5 11.5t11.5 28.5t-11.5 28.5t-28.5 11.5t-28.5 -11.5t-11.5 -28.5z" />
    <glyph glyph-name="ogonek" unicode="&#x2db;" 
d="M405 -92v-51q-17 -12 -45 -12q-42 0 -65 21q-20 18 -20 48q0 22 12 46q12 22 26 40h45q-12 -18 -19 -32q-11 -22 -11 -39q0 -15 8 -23q9 -9 28 -9q18 0 41 11z" />
    <glyph glyph-name="tilde" unicode="&#x2dc;" 
d="M312 601h49q0 -88 -66 -88q-17 0 -43 14t-39 14q-20 0 -20 -24h-54q4 88 67 88q21 0 48.5 -15t39.5 -15q4 0 6.5 1t4 3t3 5t2 5.5t1 6t1.5 5.5z" />
    <glyph glyph-name="hungarumlaut" unicode="&#x2dd;" 
d="M388 638l-77 -126l-39 21l61 138zM275 638l-77 -126l-40 21l61 138z" />
    <glyph glyph-name="acutecomb" unicode="&#x301;" horiz-adv-x="2" 
d="M-211 541l86 129l68 -42l-107 -115z" />
    <glyph glyph-name="uni0394" unicode="&#x394;" horiz-adv-x="667" 
d="M641 0h-615l262 667h88zM522 75l-190 492l-189 -493z" />
    <glyph glyph-name="uni0394" unicode="&#x2206;" horiz-adv-x="667" 
d="M641 0h-615l262 667h88zM522 75l-190 492l-189 -493z" />
    <glyph glyph-name="uni03A9" unicode="&#x3a9;" horiz-adv-x="666" 
d="M638 0h-262v66q177 99 177 288q0 100 -61 177.5t-158 77.5q-100 0 -160.5 -76t-60.5 -179q0 -189 178 -288v-66h-263v74h173q-173 103 -173 290q0 132 87 225.5t218 93.5q132 0 218.5 -93t86.5 -226q0 -189 -172 -290h172v-74z" />
    <glyph glyph-name="uni03A9" unicode="&#x2126;" horiz-adv-x="666" 
d="M638 0h-262v66q177 99 177 288q0 100 -61 177.5t-158 77.5q-100 0 -160.5 -76t-60.5 -179q0 -189 178 -288v-66h-263v74h173q-173 103 -173 290q0 132 87 225.5t218 93.5q132 0 218.5 -93t86.5 -226q0 -189 -172 -290h172v-74z" />
    <glyph glyph-name="pi" unicode="&#x3c0;" horiz-adv-x="594" 
d="M565 374h-74v-374h-82v374h-223v-374h-82v374h-75v73h536v-73z" />
    <glyph glyph-name="afii10023" unicode="&#x401;" horiz-adv-x="323" 
d="M290 0h-239v667h239v-76h-149v-212h132v-76h-132v-227h149v-76zM154 760q0 -21 -14.5 -35.5t-35.5 -14.5t-35.5 14.5t-14.5 35.5t14.5 35.5t35.5 14.5t35.5 -14.5t14.5 -35.5zM292 760q0 -21 -14.5 -35.5t-35.5 -14.5t-35.5 14.5t-14.5 35.5t14.5 35.5t35.5 14.5
t35.5 -14.5t14.5 -35.5z" />
    <glyph glyph-name="afii10051" unicode="&#x402;" horiz-adv-x="443" 
d="M98 0v588h-88v79h299v-79h-121v-199q34 17 71 17q66 0 109 -41q55 -54 55 -166q0 -127 -57 -180q-30 -28 -79 -28q-36 0 -70 14l20 87q18 -18 40 -18q23 0 35 20q17 27 17 94q0 82 -34 115q-20 20 -50 20q-31 0 -57 -19v-304h-90z" />
    <glyph glyph-name="afii10052" unicode="&#x403;" horiz-adv-x="309" 
d="M291 591h-150v-591h-90v667h240v-76zM121 755l86 129l68 -42l-107 -115z" />
    <glyph glyph-name="afii10053" unicode="&#x404;" horiz-adv-x="369" 
d="M331 115v-93q-37 -32 -96 -32q-67 0 -113 42q-84 78 -84 323q0 204 76 277q45 44 119 44q58 0 98 -31v-93q-37 41 -82 41q-39 0 -65 -27q-49 -50 -49 -180h154v-76h-155q0 -55 12.5 -117.5t40.5 -89.5q26 -25 65 -25q52 0 79 37z" />
    <glyph glyph-name="afii10054" unicode="&#x405;" horiz-adv-x="330" 
d="M274 653l-1 -88q-39 30 -73 30q-37 0 -59 -26t-22 -63q0 -34 19 -64t46.5 -56t55 -54.5t46.5 -70.5t19 -93q0 -74 -41.5 -125.5t-113.5 -51.5q-56 0 -98 32v89q47 -35 87 -35q38 0 58.5 26t20.5 65q0 38 -19.5 70t-46.5 57.5t-54.5 53t-47 67.5t-19.5 89q0 75 39 122.5
t112 47.5q49 0 92 -22z" />
    <glyph glyph-name="afii10055" unicode="&#x406;" horiz-adv-x="193" 
d="M141 0h-90v667h90v-667z" />
    <glyph glyph-name="afii10056" unicode="&#x407;" horiz-adv-x="193" 
d="M141 0h-90v667h90v-667zM180 771q0 -21 -10.5 -35.5t-24.5 -14.5q-15 0 -25 14.5t-10 35.5t10 35.5t25 14.5q14 0 24.5 -14.5t10.5 -35.5zM84 771q0 -21 -10 -35.5t-25 -14.5t-25.5 14.5t-10.5 35.5t10.5 35.5t25.5 14.5t25 -14.5t10 -35.5z" />
    <glyph glyph-name="afii10057" unicode="&#x408;" horiz-adv-x="259" 
d="M207 667v-518q0 -51 -10 -80q-27 -78 -122 -78q-44 0 -77 18v90q40 -23 60 -23q15 0 25.5 4t17 13.5t10 17t5 23.5t1.5 22v24v487h90z" />
    <glyph glyph-name="afii10058" unicode="&#x409;" horiz-adv-x="614" 
d="M388 382h13q92 0 135 -44q46 -47 46 -151t-44 -148q-39 -39 -113 -39h-127v591h-113v-340q0 -92 -6 -126q-12 -69 -41 -99q-32 -33 -83 -33q-30 0 -51 9v91q14 -15 37 -15q20 0 33 13q17 17 21.5 52t4.5 99v425h288v-285zM388 306v-230h4q51 0 71 19q25 24 25 93
q0 72 -28 98q-22 20 -69 20h-3z" />
    <glyph glyph-name="afii10059" unicode="&#x40a;" horiz-adv-x="589" 
d="M363 388h13q87 0 132 -45q49 -49 49 -157q0 -103 -44 -147q-39 -39 -113 -39h-127v312h-132v-312h-90v667h90v-279h132v279h90v-279zM363 312v-236h4q51 0 71 19q25 23 25 95q0 75 -27 101q-22 21 -70 21h-3z" />
    <glyph glyph-name="afii10060" unicode="&#x40b;" horiz-adv-x="451" 
d="M98 0v588h-88v79h299v-79h-121v-192q33 10 71 10q60 0 99 -25q32 -21 42.5 -52.5t10.5 -82.5v-246h-91v240q0 48 -18 66t-57 18q-25 0 -57 -9v-315h-90z" />
    <glyph glyph-name="afii10061" unicode="&#x40c;" horiz-adv-x="372" 
d="M367 0h-101l-125 327v-327h-90v667h90v-306l125 306h91l-135 -323zM151 755l86 129l68 -42l-107 -115z" />
    <glyph glyph-name="afii10062" unicode="&#x40e;" horiz-adv-x="359" 
d="M8 667h94l41 -157q29 -115 40 -175q19 102 38 177l40 155h90l-183 -667h-88l61 213zM248 827l75 -30q-15 -45 -50 -68q-33 -23 -89 -23t-89 23q-35 23 -50 68l75 30q6 -25 21 -38q15 -14 43 -14t43 14q16 14 21 38z" />
    <glyph glyph-name="afii10145" unicode="&#x40f;" horiz-adv-x="410" 
d="M51 667h90v-591h128v591h90v-667h-111v-130h-86v130h-111v667z" />
    <glyph glyph-name="afii10017" unicode="&#x410;" horiz-adv-x="360" 
d="M359 0h-89l-25 130h-132l-25 -130h-87l145 667h71zM126 199h106q-40 223 -52 338q-10 -103 -54 -338z" />
    <glyph glyph-name="afii10018" unicode="&#x411;" horiz-adv-x="364" 
d="M51 667h245v-76h-155v-210h15q88 0 131 -44q45 -46 45 -151q0 -103 -44 -147q-39 -39 -113 -39h-124v667zM141 305v-229h6q48 0 68 19q24 23 24 92q0 73 -27 98q-23 20 -66 20h-5z" />
    <glyph glyph-name="afii10019" unicode="&#x412;" horiz-adv-x="364" 
d="M51 667h122q143 0 143 -178q0 -71 -25 -109q-17 -27 -59 -41q41 -15 59 -35q35 -37 35 -121q0 -183 -157 -183h-118v667zM136 373h6q53 0 70 29.5t17 86.5q0 105 -78 105h-15v-221zM136 302v-225q39 0 56 8q41 19 41 101q0 60 -19.5 88t-77.5 28z" />
    <glyph glyph-name="afii10020" unicode="&#x413;" horiz-adv-x="309" 
d="M291 591h-150v-591h-90v667h240v-76z" />
    <glyph glyph-name="afii10021" unicode="&#x414;" horiz-adv-x="443" 
d="M94 667h286v-591h53v-206h-82v130h-265v-130h-82v206q37 19 58 52q32 50 32 184v355zM178 591v-249q0 -131 -16 -184q-15 -49 -53 -82h181v515h-112z" />
    <glyph glyph-name="afii10022" unicode="&#x415;" horiz-adv-x="321" 
d="M290 0h-239v667h239v-76h-149v-212h132v-76h-132v-227h149v-76z" />
    <glyph glyph-name="afii10024" unicode="&#x416;" horiz-adv-x="516" 
d="M511 0h-93l-116 329v-329h-88v329l-116 -329h-93l132 344l-126 323h87l116 -308v308h88v-308l116 308h87l-126 -323z" />
    <glyph glyph-name="afii10025" unicode="&#x417;" horiz-adv-x="355" 
d="M96 383h10q51 0 77 23q28 24 28 78q0 56 -25 84q-22 24 -59 24q-49 0 -85 -45v93q44 35 103 35q68 0 107 -37q49 -47 49 -142q0 -77 -36 -115q-21 -22 -47 -28q32 -5 59 -29q44 -42 44 -128q0 -105 -58 -161q-45 -44 -120 -44q-64 0 -105 35v94q42 -43 94 -43q40 0 65 23
q31 29 31 94q0 63 -30 90q-25 23 -81 23h-21v76z" />
    <glyph glyph-name="afii10026" unicode="&#x418;" horiz-adv-x="410" 
d="M51 0v667h88v-273q0 -116 -19 -235q11 36 28 97.5t31 103.5l100 307h80v-667h-88v297q0 64 18 217q-49 -176 -51 -181l-107 -333h-80z" />
    <glyph glyph-name="afii10027" unicode="&#x419;" horiz-adv-x="410" 
d="M51 0v667h88v-273q0 -116 -19 -235q11 36 28 97.5t31 103.5l100 307h80v-667h-88v297q0 64 18 217q-49 -176 -51 -181l-107 -333h-80zM269 827l75 -30q-15 -45 -50 -68q-33 -23 -89 -23t-89 23q-35 23 -50 68l75 30q6 -25 21 -38q15 -14 43 -14t43 14q16 14 21 38z" />
    <glyph glyph-name="afii10028" unicode="&#x41a;" horiz-adv-x="372" 
d="M367 0h-101l-125 327v-327h-90v667h90v-306l125 306h91l-135 -323z" />
    <glyph glyph-name="afii10029" unicode="&#x41b;" horiz-adv-x="439" 
d="M100 667h288v-667h-90v591h-113v-340q0 -92 -6 -126q-12 -69 -41 -99q-32 -33 -83 -33q-30 0 -51 9v91q14 -15 37 -15q20 0 33 13q17 17 21.5 52t4.5 99v425z" />
    <glyph glyph-name="afii10030" unicode="&#x41c;" horiz-adv-x="504" 
d="M482 0h-87q-15 228 -17 277q0 15 -2 44.5t-2 44.5q-1 17 -0.5 31t0 31t-2.5 31q-9 -59 -85 -459h-60q-6 30 -23.5 110.5t-26 122t-20 107t-18.5 119.5l-26 -459h-84l55 667h77l58 -272q1 -8 5.5 -24t5.5 -24q13 -72 25 -162q0 2 15 94q2 12 5.5 36.5t5.5 36.5
q2 8 5.5 23.5t4.5 23.5l52 268h78z" />
    <glyph glyph-name="afii10031" unicode="&#x41d;" horiz-adv-x="414" 
d="M363 0h-90v330h-132v-330h-90v667h90v-261h132v261h90v-667z" />
    <glyph glyph-name="afii10032" unicode="&#x41e;" horiz-adv-x="423" 
d="M385 333q0 -66 -3 -111.5t-18.5 -103t-44.5 -86.5q-41 -41 -107 -41q-67 0 -108 41q-66 67 -66 299q0 49 1.5 83.5t7.5 80.5t20.5 81.5t36.5 57.5q41 41 108 41q66 0 107 -41t53.5 -119t12.5 -182zM132 317q0 -190 37 -227q16 -16 43 -16q26 0 42 16q37 37 37 227v50
q0 176 -37 211q-16 16 -42 16q-27 0 -43 -16q-37 -35 -37 -211v-50z" />
    <glyph glyph-name="afii10033" unicode="&#x41f;" horiz-adv-x="404" 
d="M353 0h-90v591h-122v-591h-90v667h302v-667z" />
    <glyph glyph-name="afii10034" unicode="&#x420;" horiz-adv-x="351" 
d="M51 667h118q63 0 98 -21q66 -40 66 -165q0 -110 -58 -155q-39 -30 -134 -30v-296h-90v667zM141 373h8q52 0 71 26t19 80q0 112 -86 112h-12v-218z" />
    <glyph glyph-name="afii10035" unicode="&#x421;" horiz-adv-x="337" 
d="M313 92v-82q-32 -19 -73 -19q-202 0 -202 331q0 354 200 354q39 0 75 -20v-81q-31 17 -58 17q-29 0 -51 -13t-34.5 -38t-20.5 -49t-11 -59.5t-4 -55.5t-1 -50q0 -248 127 -248q27 0 53 13z" />
    <glyph glyph-name="afii10036" unicode="&#x422;" horiz-adv-x="288" 
d="M290 588h-102v-588h-88v588h-102v79h292v-79z" />
    <glyph glyph-name="afii10037" unicode="&#x423;" horiz-adv-x="359" 
d="M8 667h94l41 -157q29 -115 40 -175q19 102 38 177l40 155h90l-183 -667h-88l61 213z" />
    <glyph glyph-name="afii10038" unicode="&#x424;" horiz-adv-x="526" 
d="M218 0v82q-73 8 -121 56q-67 66 -67 214q0 149 68 215q49 47 120 51v76h90v-76q71 -4 120 -51q68 -65 68 -210q0 -152 -67 -219q-49 -48 -121 -56v-82h-90zM302 542v-384q36 5 60 28q44 42 44 168q0 119 -40 160q-24 27 -64 28zM224 158v384q-40 -1 -64 -28
q-40 -41 -40 -160q0 -126 44 -168q24 -23 60 -28z" />
    <glyph glyph-name="afii10039" unicode="&#x425;" horiz-adv-x="332" 
d="M334 0h-90q-7 20 -21.5 60t-23 64.5t-18 59.5t-15.5 65q-3 -30 -27 -103q-25 -82 -46 -146h-95l127 339l-119 328h87q5 -13 20.5 -54.5t25 -67.5t20 -61t13.5 -58q8 37 19 74.5t29.5 93.5t23.5 73h90l-123 -328z" />
    <glyph glyph-name="afii10040" unicode="&#x426;" horiz-adv-x="432" 
d="M51 667h90v-591h128v591h90v-591h59v-206h-86v130h-281v667z" />
    <glyph glyph-name="afii10041" unicode="&#x427;" horiz-adv-x="405" 
d="M354 667v-667h-90v319q-33 -8 -72 -8q-64 0 -97 24q-30 21 -40 56t-10 89v187h91v-190q0 -51 20 -69q16 -15 55 -15q25 0 53 7v267h90z" />
    <glyph glyph-name="afii10042" unicode="&#x428;" horiz-adv-x="610" 
d="M51 667h88v-591h122v591h88v-591h122v591h88v-667h-508v667z" />
    <glyph glyph-name="afii10043" unicode="&#x429;" horiz-adv-x="640" 
d="M51 667h88v-591h122v591h88v-591h122v591h88v-591h67v-206h-86v130h-489v667z" />
    <glyph glyph-name="afii10044" unicode="&#x42a;" horiz-adv-x="412" 
d="M186 381h13q92 0 135 -44q46 -47 46 -152q0 -103 -44 -146q-39 -39 -113 -39h-127v588h-86v79h176v-286zM186 306v-230h4q51 0 71 19q25 24 25 93q0 72 -28 98q-22 20 -69 20h-3z" />
    <glyph glyph-name="afii10045" unicode="&#x42b;" horiz-adv-x="514" 
d="M462 0h-90v667h90v-667zM51 667h90v-285h10q91 0 135 -44q46 -47 46 -150q0 -105 -44 -149q-39 -39 -113 -39h-124v667zM141 306v-230h4q51 0 71 19q25 24 25 92q0 73 -28 99q-22 20 -69 20h-3z" />
    <glyph glyph-name="afii10046" unicode="&#x42c;" horiz-adv-x="367" 
d="M51 667h90v-285h13q92 0 135 -44q46 -47 46 -151t-44 -148q-39 -39 -113 -39h-127v667zM141 306v-230h4q51 0 71 19q25 24 25 93q0 72 -28 98q-22 20 -69 20h-3z" />
    <glyph glyph-name="afii10047" unicode="&#x42d;" horiz-adv-x="369" 
d="M38 22v93q27 -37 79 -37q40 0 65 25q28 28 40.5 90t12.5 117h-155v76h154q-1 132 -49 180q-27 27 -65 27q-45 0 -82 -41v93q41 31 99 31q73 0 118 -44q76 -74 76 -263q0 -253 -84 -335q-45 -44 -113 -44q-57 0 -96 32z" />
    <glyph glyph-name="afii10048" unicode="&#x42e;" horiz-adv-x="597" 
d="M559 333q0 -66 -3 -111.5t-18.5 -103t-44.5 -86.5q-41 -41 -107 -41q-67 0 -108 41q-38 38 -51 108.5t-13 177.5v7h-73v-325h-90v667h90v-266h74q0 170 63 233q41 41 108 41q66 0 107 -41t53.5 -119t12.5 -182zM306 317q0 -190 37 -227q16 -16 43 -16q26 0 42 16
q37 37 37 227v50q0 176 -37 211q-16 16 -42 16q-27 0 -43 -16q-37 -35 -37 -211v-50z" />
    <glyph glyph-name="afii10049" unicode="&#x42f;" horiz-adv-x="356" 
d="M20 0l109 309q-39 6 -66 33q-42 41 -42 135q0 111 52 158q16 15 38 22.5t36 8.5t39 1h119v-667h-90v304l-103 -304h-92zM215 593h-24q-35 0 -54 -16q-29 -26 -29 -98t31 -94q20 -16 62 -16h14v224z" />
    <glyph glyph-name="afii10065" unicode="&#x430;" horiz-adv-x="349" 
d="M302 0h-83v57q-14 -32 -32 -48t-50 -16q-25 0 -44.5 11.5t-30.5 34t-18 44t-10 53t-3.5 49.5t-0.5 44t1 43.5t3.5 47.5t10 50.5t18.5 41t30.5 31.5t44.5 11q51 0 81 -58v51h83v-447zM222 199v48q0 132 -53 132q-54 0 -54 -125v-61q0 -126 54 -126q53 0 53 132z" />
    <glyph glyph-name="afii10066" unicode="&#x431;" horiz-adv-x="353" 
d="M235 192v55q0 91 -25 116q-12 12 -28 12t-28 -12q-25 -25 -25 -116v-55q0 -85 25 -110q12 -12 28 -12t28 12q25 25 25 110zM219 565l-24 -12q-44 -21 -64 -64q-18 -39 -16 -99q8 26 26 42q23 22 59 22q43 0 73 -31q48 -52 48 -198q0 -144 -56 -199q-34 -33 -85 -33
q-53 0 -86 32q-24 24 -37 67.5t-15 78.5t-2 90q0 99 9 183q11 100 59 147q22 22 70 44q6 3 17.5 7.5t16.5 7l12 6t11.5 6.5t7.5 7q12 13 12 31h73q-4 -59 -38 -92q-8 -8 -18 -14.5t-17 -10.5t-19 -9.5t-17 -8.5z" />
    <glyph glyph-name="afii10067" unicode="&#x432;" horiz-adv-x="331" 
d="M47 447h110q72 0 103 -31q29 -29 29 -88q0 -47 -22 -72q-18 -20 -45 -24q30 -7 51 -28q28 -28 28 -79q0 -63 -35 -94q-33 -31 -95 -31h-124v447zM129 260h10q35 0 52 16q18 16 18 47q0 30 -17 45q-14 13 -49 13h-14v-121zM129 66h15q32 0 48 12q21 16 21 54q0 36 -22 55
q-18 15 -51 15h-11v-136z" />
    <glyph glyph-name="afii10068" unicode="&#x433;" horiz-adv-x="261" 
d="M249 374h-120v-374h-82v447h202v-73z" />
    <glyph glyph-name="afii10069" unicode="&#x434;" horiz-adv-x="355" 
d="M68 447h240v-373h39v-178h-74v104h-195v-104h-74v178q24 9 39 29q25 31 25 102v242zM226 74v299h-82v-158q0 -59 -10 -87q-9 -28 -33 -54h125z" />
    <glyph glyph-name="afii10070" unicode="&#x435;" horiz-adv-x="326" 
d="M299 207h-188q0 -143 57 -143q51 0 51 87h77q-2 -59 -17 -90q-32 -68 -112 -68q-36 0 -62.5 15t-40.5 37t-22 55.5t-10 60t-2 61.5q0 43 4 76.5t16.5 72.5t41.5 61t73 22q36 0 62 -17.5t39.5 -42t21.5 -61.5t9.5 -64t1.5 -62zM111 267h104q-4 74 -18 96q-12 21 -34 21
q-46 0 -52 -110v-4v-3z" />
    <glyph glyph-name="afii10072" unicode="&#x436;" horiz-adv-x="450" 
d="M446 0h-92l-89 204v-204h-80v204l-89 -204h-92l104 230l-103 217h93l87 -205v205h80v-205l87 205h93l-103 -217z" />
    <glyph glyph-name="afii10073" unicode="&#x437;" horiz-adv-x="293" 
d="M30 339v84q17 15 35 21q26 10 59 10q62 0 96 -34q32 -32 32 -86q0 -41 -19 -67q-16 -23 -43 -33q32 -10 51 -30q27 -29 27 -75q0 -65 -41 -103q-35 -33 -98 -33q-60 0 -99 28v87q14 -15 31 -25q21 -12 50 -12q33 0 50 17t17 45q0 32 -25 48q-18 12 -59 12h-18v70h18
q39 0 57 18q15 15 15 40q0 27 -18 43q-16 14 -41 14q-27 0 -47 -13q-14 -9 -30 -26z" />
    <glyph glyph-name="afii10074" unicode="&#x438;" horiz-adv-x="370" 
d="M47 447h82v-223q0 -24 -3 -81q6 25 25 75l92 229h80v-447h-82v222q0 40 3 79q-9 -37 -27 -82l-90 -219h-80v447z" />
    <glyph glyph-name="afii10075" unicode="&#x439;" horiz-adv-x="370" 
d="M47 447h82v-223q0 -24 -3 -81q6 25 25 75l92 229h80v-447h-82v222q0 40 3 79q-9 -37 -27 -82l-90 -219h-80v447zM242 617l69 -24q-14 -42 -44 -65q-31 -23 -82 -23t-82 23q-30 23 -44 65l69 24q5 -21 19 -33t38 -12t38 12t19 33z" />
    <glyph glyph-name="afii10076" unicode="&#x43a;" horiz-adv-x="338" 
d="M334 0h-96l-109 203v-203h-82v447h82v-203l105 203h97l-122 -217z" />
    <glyph glyph-name="afii10077" unicode="&#x43b;" horiz-adv-x="373" 
d="M326 447v-447h-82v373h-90v-176q0 -43 -2 -70t-11.5 -59.5t-28.5 -49.5q-25 -24 -69 -24q-19 0 -39 6v78q13 -8 26 -8q16 0 27 11q19 19 19 108v258h250z" />
    <glyph glyph-name="afii10078" unicode="&#x43c;" horiz-adv-x="426" 
d="M243 0h-60l-39 157q-19 77 -31 158q0 -58 -6 -154l-11 -161h-78l47 446h80l39 -184q3 -16 11.5 -55.5t17.5 -81.5q9 42 17.5 81.5t11.5 55.5l39 184h80l47 -446h-78l-11 161q-6 96 -6 154q-12 -81 -31 -158z" />
    <glyph glyph-name="afii10079" unicode="&#x43d;" horiz-adv-x="358" 
d="M129 447v-171h100v171h82v-447h-82v202h-100v-202h-82v447h82z" />
    <glyph glyph-name="afii10080" unicode="&#x43e;" horiz-adv-x="341" 
d="M225 192v59q0 91 -25 116q-12 12 -28 12t-28 -12q-25 -25 -25 -116v-59q0 -85 25 -110q12 -12 28 -12t28 12q25 25 25 110zM311 223q0 -146 -55 -198q-33 -32 -85 -32q-53 0 -86 32q-55 52 -55 198q0 147 55 199q33 32 86 32q52 0 85 -32q55 -52 55 -199z" />
    <glyph glyph-name="afii10081" unicode="&#x43f;" horiz-adv-x="352" 
d="M47 0v447h258v-447h-82v373h-94v-373h-82z" />
    <glyph glyph-name="afii10082" unicode="&#x440;" horiz-adv-x="349" 
d="M129 447v-58q14 32 32.5 48.5t50.5 16.5q25 0 44.5 -11.5t30.5 -34t18 -44t10 -53t3.5 -49.5t0.5 -44q0 -32 -1 -54t-7 -57.5t-16.5 -57.5t-32.5 -39t-53 -17q-30 0 -47.5 14t-32.5 43v-238h-82v635h82zM233 193v61q0 125 -54 125q-52 0 -52 -133v-46q0 -133 52 -133
q54 0 54 126z" />
    <glyph glyph-name="afii10083" unicode="&#x441;" horiz-adv-x="253" 
d="M229 88v-77q-31 -18 -66 -18q-133 0 -133 228q0 43 4 77t16.5 73t41.5 61t73 22q33 0 64 -16v-84q-16 21 -41 21q-68 0 -68 -148q0 -156 67 -156q22 0 42 17z" />
    <glyph glyph-name="afii10084" unicode="&#x442;" horiz-adv-x="262" 
d="M254 374h-82v-374h-82v374h-82v73h246v-73z" />
    <glyph glyph-name="afii10085" unicode="&#x443;" horiz-adv-x="326" 
d="M323 447l-185 -635h-87l71 224l-119 411h94l65 -312l77 312h84z" />
    <glyph glyph-name="afii10086" unicode="&#x444;" horiz-adv-x="458" 
d="M188 -188v184q-65 5 -107 49q-53 57 -53 177q0 128 53 181q42 42 107 48v216h82v-216q65 -6 107 -48q53 -55 53 -180q0 -123 -53 -178q-42 -44 -107 -49v-184h-82zM264 377v-307q31 0 53 20q35 33 35 135q0 98 -34 131q-23 21 -54 21zM194 70v307q-31 0 -54 -21
q-34 -33 -34 -133q0 -99 35 -133q22 -20 53 -20z" />
    <glyph glyph-name="afii10087" unicode="&#x445;" horiz-adv-x="332" 
d="M329 0h-99q-1 3 -18 38.5t-25 54t-18 46t-12 42.5q-2 -18 -11 -44.5t-17 -45.5t-21.5 -50t-17.5 -41h-87l112 236l-112 211h98q51 -111 63 -153q8 38 57 153h87l-101 -211z" />
    <glyph glyph-name="afii10088" unicode="&#x446;" horiz-adv-x="367" 
d="M47 447h82v-373h98v373h82v-373h48v-178h-76v104h-234v447z" />
    <glyph glyph-name="afii10089" unicode="&#x447;" horiz-adv-x="337" 
d="M208 0v195q-31 -11 -66 -11q-54 0 -82 27q-30 28 -30 96v140h80v-131q0 -33 13 -46q12 -12 39 -12t46 9v180h82v-447h-82z" />
    <glyph glyph-name="afii10090" unicode="&#x448;" horiz-adv-x="532" 
d="M47 447h82v-373h96v373h82v-373h96v373h82v-447h-438v447z" />
    <glyph glyph-name="afii10091" unicode="&#x449;" horiz-adv-x="543" 
d="M47 447h82v-373h96v373h82v-373h96v373h82v-373h48v-178h-76v104h-410v447z" />
    <glyph glyph-name="afii10092" unicode="&#x44a;" horiz-adv-x="357" 
d="M160 276h16q82 0 121 -40q35 -35 35 -104q0 -66 -36 -100q-34 -32 -105 -32h-113v374h-68v73h150v-171zM160 70h20q35 0 50 14q16 16 16 50q0 36 -18 54t-58 18h-10v-136z" />
    <glyph glyph-name="afii10093" unicode="&#x44b;" horiz-adv-x="460" 
d="M413 0h-82v447h82v-447zM129 447v-171h14q82 0 121 -40q35 -35 35 -102q0 -68 -36 -102q-34 -32 -105 -32h-111v447h82zM129 70h20q35 0 50 14q16 16 16 50q0 36 -18 54t-58 18h-10v-136z" />
    <glyph glyph-name="afii10094" unicode="&#x44c;" horiz-adv-x="326" 
d="M129 447v-171h16q82 0 121 -40q35 -35 35 -102q0 -68 -36 -102q-34 -32 -105 -32h-113v447h82zM129 70h20q35 0 50 14q16 16 16 50q0 36 -18 54t-58 18h-10v-136z" />
    <glyph glyph-name="afii10095" unicode="&#x44d;" horiz-adv-x="297" 
d="M36 15v87q11 -13 24 -21q16 -10 40 -10q28 0 45 16q32 30 32 105h-109v74h108q-2 62 -31 91q-18 18 -46 18q-21 0 -41 -13q-11 -8 -22 -21v89q31 24 80 24q60 0 96 -37q55 -57 55 -186q0 -147 -58 -204q-35 -34 -94 -34q-49 0 -79 22z" />
    <glyph glyph-name="afii10096" unicode="&#x44e;" horiz-adv-x="492" 
d="M376 192v59q0 91 -25 116q-12 12 -28 12t-28 -12q-25 -25 -25 -116v-59q0 -84 25 -110q10 -12 28 -12q16 0 28 12q25 25 25 110zM462 223q0 -145 -55 -198q-34 -32 -88 -32q-52 0 -84 32q-51 51 -51 171h-55v-196h-82v447h82v-177h57q0 103 51 152q33 32 84 32
q53 0 86 -32q55 -52 55 -199z" />
    <glyph glyph-name="afii10097" unicode="&#x44f;" horiz-adv-x="323" 
d="M20 0l88 179q-36 7 -59 34q-25 30 -25 85q0 72 37 111q37 38 119 38h96v-447h-82v183l-83 -183h-91zM194 236v139h-18q-33 0 -49 -16q-19 -17 -19 -56q0 -36 19 -52q19 -15 50 -15h17z" />
    <glyph glyph-name="afii10071" unicode="&#x451;" horiz-adv-x="326" 
d="M299 207h-188q0 -143 57 -143q51 0 51 87h77q-2 -59 -17 -90q-32 -68 -112 -68q-36 0 -62.5 15t-40.5 37t-22 55.5t-10 60t-2 61.5q0 43 4 76.5t16.5 72.5t41.5 61t73 22q36 0 62 -17.5t39.5 -42t21.5 -61.5t9.5 -64t1.5 -62zM111 267h104q-4 74 -18 96q-12 21 -34 21
q-46 0 -52 -110v-4v-3zM287 563q0 -21 -14.5 -35.5t-35.5 -14.5t-35.5 14.5t-14.5 35.5t14.5 35.5t35.5 14.5t35.5 -14.5t14.5 -35.5zM139 563q0 -21 -14.5 -35.5t-35.5 -14.5t-35.5 14.5t-14.5 35.5t14.5 35.5t35.5 14.5t35.5 -14.5t14.5 -35.5z" />
    <glyph glyph-name="afii10099" unicode="&#x452;" horiz-adv-x="371" 
d="M60 729h82v-144h106v-64h-106v-150q16 26 34 41q24 18 59 18q37 0 59 -20q30 -28 30 -104v-350q0 -83 -36 -117q-29 -27 -75 -27q-24 0 -52 10v77q14 -10 34 -10q19 0 31 10q16 14 16 66v320q0 56 -17 72q-13 11 -31 11q-21 0 -34 -13q-18 -19 -18 -80v-275h-82v521h-50
v64h50v144z" />
    <glyph glyph-name="afii10100" unicode="&#x453;" horiz-adv-x="261" 
d="M249 374h-120v-374h-82v447h202v-73zM101 541l86 129l68 -42l-107 -115z" />
    <glyph glyph-name="afii10101" unicode="&#x454;" horiz-adv-x="297" 
d="M261 102v-87q-30 -22 -79 -22q-59 0 -94 34q-58 57 -58 196q0 137 55 194q36 37 94 37q50 0 82 -24v-89q-11 13 -22 21q-20 13 -42 13q-27 0 -45 -18q-29 -29 -31 -91h108v-74h-109q0 -75 32 -105q17 -16 45 -16q24 0 40 10q13 8 24 21z" />
    <glyph glyph-name="afii10102" unicode="&#x455;" horiz-adv-x="260" 
d="M219 438v-77q-28 22 -63 22q-21 0 -37 -14.5t-16 -35.5q0 -20 14 -37t34.5 -31.5t41 -31.5t34.5 -45t14 -63q0 -59 -34.5 -95.5t-93.5 -36.5q-38 0 -73 21v80q35 -27 68 -27q27 0 42 14.5t15 41.5q0 22 -14.5 41t-35 34t-41 32.5t-35 44t-14.5 60.5q0 54 33 88t87 34
q39 0 74 -19z" />
    <glyph glyph-name="afii10103" unicode="&#x456;" horiz-adv-x="176" 
d="M140 581q0 -23 -16.5 -39.5t-38.5 -16.5q-23 0 -39.5 16.5t-16.5 39.5t16.5 39.5t39.5 16.5q22 0 38.5 -16.5t16.5 -39.5zM129 0h-82v447h82v-447z" />
    <glyph glyph-name="afii10104" unicode="&#x457;" horiz-adv-x="176" 
d="M129 0h-82v447h82v-447zM166 587q0 -21 -9.5 -35.5t-23.5 -14.5t-24 14.5t-10 35.5t10 35.5t24 14.5t23.5 -14.5t9.5 -35.5zM77 587q0 -21 -9.5 -35.5t-23.5 -14.5t-24 14.5t-10 35.5t10 35.5t24 14.5t23.5 -14.5t9.5 -35.5z" />
    <glyph glyph-name="afii10105" unicode="&#x458;" horiz-adv-x="176" 
d="M140 581q0 -23 -16.5 -39.5t-38.5 -16.5q-23 0 -39.5 16.5t-16.5 39.5t16.5 39.5t39.5 16.5q22 0 38.5 -16.5t16.5 -39.5zM129 -188h-82v635h82v-635z" />
    <glyph glyph-name="afii10106" unicode="&#x459;" horiz-adv-x="523" 
d="M326 276h16q82 0 121 -40q35 -35 35 -99q0 -71 -36 -105q-34 -32 -105 -32h-113v373h-90v-176q0 -43 -2 -70t-11.5 -59.5t-28.5 -49.5q-25 -24 -69 -24q-19 0 -39 6v78q13 -8 26 -8q16 0 27 11q19 19 19 108v258h250v-171zM326 70h20q35 0 50 14q16 16 16 50q0 36 -18 54
t-58 18h-10v-136z" />
    <glyph glyph-name="afii10107" unicode="&#x45a;" horiz-adv-x="508" 
d="M311 447v-171h16q82 0 121 -40q35 -35 35 -102q0 -68 -36 -102q-34 -32 -105 -32h-113v206h-100v-206h-82v447h82v-171h100v171h82zM311 70h20q35 0 50 14q16 16 16 50q0 36 -18 54t-58 18h-10v-136z" />
    <glyph glyph-name="afii10108" unicode="&#x45b;" horiz-adv-x="371" 
d="M324 0h-82v275q0 17 -1 28t-5 25.5t-14.5 22t-26.5 7.5q-19 0 -30.5 -8t-16 -25t-5.5 -28.5t-1 -31.5v-265h-82v521h-50v64h50v144h82v-144h106v-64h-106v-150q19 30 39.5 44.5t52.5 14.5q28 0 46.5 -10t27.5 -29t12.5 -39t3.5 -46v-306z" />
    <glyph glyph-name="afii10109" unicode="&#x45c;" horiz-adv-x="338" 
d="M334 0h-96l-109 203v-203h-82v447h82v-203l105 203h97l-122 -217zM131 541l86 129l68 -42l-107 -115z" />
    <glyph glyph-name="afii10110" unicode="&#x45e;" horiz-adv-x="326" 
d="M323 447l-185 -635h-87l71 224l-119 411h94l65 -312l77 312h84zM225 617l69 -24q-14 -42 -44 -65q-31 -23 -82 -23t-82 23q-30 23 -44 65l69 24q5 -21 19 -33t38 -12t38 12t19 33z" />
    <glyph glyph-name="afii10193" unicode="&#x45f;" horiz-adv-x="356" 
d="M47 447h82v-373h98v373h82v-447h-93v-104h-76v104h-93v447z" />
    <glyph glyph-name="afii10146" unicode="&#x462;" horiz-adv-x="403" 
d="M87 0v524h-72v75h72v95h90v-95h111v-75h-111v-142h13q92 0 135 -44q46 -47 46 -151t-44 -148q-39 -39 -113 -39h-127zM177 306v-230h4q51 0 71 19q25 24 25 93q0 72 -28 98q-22 20 -72 20z" />
    <glyph glyph-name="afii10194" unicode="&#x463;" horiz-adv-x="345" 
d="M66 0v379h-56v68h56v220h82v-220h88v-68h-88v-103h16q82 0 121 -40q35 -35 35 -102q0 -68 -36 -102q-34 -32 -105 -32h-113zM148 70h20q35 0 50 14q16 16 16 50q0 36 -18 54t-58 18h-10v-136z" />
    <glyph glyph-name="afii10147" unicode="&#x472;" horiz-adv-x="423" 
d="M385 330q0 -110 -13.5 -184.5t-52.5 -113.5q-41 -41 -107 -41q-67 0 -108 41q-66 66 -66 299q0 107 12.5 184.5t53.5 118.5t108 41q66 0 107 -41q38 -39 52 -113.5t14 -190.5zM132 386h159q1 51 -8 111.5t-29 80.5q-16 16 -42 16q-27 0 -43 -16q-37 -36 -37 -192z
M291 310h-159q-2 -181 37 -220q16 -16 43 -16q26 0 42 16q39 39 37 220z" />
    <glyph glyph-name="afii10195" unicode="&#x473;" horiz-adv-x="341" 
d="M118 192q0 -83 26 -110q11 -12 28 -12t28 11q26 24 26 111h-108zM118 266h108q-4 79 -26 101q-12 12 -28 12t-28 -12q-21 -21 -26 -101zM311 223q0 -145 -55 -198q-33 -32 -85 -32q-53 0 -86 32q-55 53 -55 195q0 149 55 202q33 32 86 32q52 0 85 -32q24 -23 37.5 -62
t15.5 -67t2 -70z" />
    <glyph glyph-name="afii10148" unicode="&#x474;" horiz-adv-x="327" 
d="M329 667l-131 -667h-71l-129 667h89q42 -258 61 -388q12 -76 16 -114q2 27 15 108q3 17 10.5 68.5t12.5 79.5l43 246h84z" />
    <glyph glyph-name="afii10196" unicode="&#x475;" horiz-adv-x="300" 
d="M297 447l-117 -447h-56l-121 447h89q53 -237 60 -338q2 8 13 82q6 39 14 79t21 99t17 78h80z" />
    <glyph glyph-name="afii10050" unicode="&#x490;" horiz-adv-x="341" 
d="M51 667l186 1v125h86v-202h-182v-591h-90v667z" />
    <glyph glyph-name="afii10098" unicode="&#x491;" horiz-adv-x="284" 
d="M47 0v447h149v100h76v-173h-143v-374h-82z" />
    <glyph glyph-name="uni0492" unicode="&#x492;" horiz-adv-x="323" 
d="M305 591h-150v-211h126v-76h-126v-304h-90v304h-50v76h50v287h240v-76z" />
    <glyph glyph-name="uni0493" unicode="&#x493;" horiz-adv-x="268" 
d="M256 374h-120v-122h93v-73h-93v-179h-82v179h-44v73h44v195h202v-73z" />
    <glyph glyph-name="uni0494" unicode="&#x494;" horiz-adv-x="396" 
d="M291 591h-150v-202q34 17 71 17q66 0 109 -41q55 -54 55 -166q0 -127 -57 -180q-30 -28 -79 -28q-36 0 -70 14l20 87q18 -18 40 -18q23 0 35 20q17 27 17 94q0 82 -34 115q-20 20 -50 20q-31 0 -57 -19v-304h-90v667h240v-76z" />
    <glyph glyph-name="uni0495" unicode="&#x495;" horiz-adv-x="321" 
d="M249 374h-120v-106h6q75 0 115 -41q46 -47 46 -169q0 -136 -61 -196q-46 -46 -115 -50v86q30 3 49 22q39 37 39 136q0 94 -30 120q-17 15 -49 15v-191h-82v447h202v-73z" />
    <glyph glyph-name="uni0496" unicode="&#x496;" horiz-adv-x="546" 
d="M379 344l103 -268h59v-206h-86v130h-37l-116 329v-329h-88v329l-116 -329h-93l132 344l-126 323h87l116 -308v308h88v-308l116 308h87z" />
    <glyph glyph-name="uni0497" unicode="&#x497;" horiz-adv-x="466" 
d="M5 447h93l87 -205v205h80v-205l87 205h93l-103 -217l72 -156h48v-178h-76v104h-32l-89 204v-204h-80v204l-89 -204h-92l104 230z" />
    <glyph glyph-name="uni0498" unicode="&#x498;" horiz-adv-x="355" 
d="M96 383h10q51 0 77 23q28 24 28 78q0 56 -25 84q-22 24 -59 24q-49 0 -85 -45v93q44 35 103 35q68 0 107 -37q49 -47 49 -142q0 -77 -36 -115q-21 -22 -47 -28q35 -5 61 -31q42 -42 42 -124q0 -87 -39 -143q-33 -48 -90 -59v-126h-86v125q-39 5 -68 31v94q39 -43 94 -43
q40 0 65 23q31 29 31 94q0 63 -30 90q-25 23 -81 23h-21v76z" />
    <glyph glyph-name="uni0499" unicode="&#x499;" horiz-adv-x="293" 
d="M30 339v84q17 15 35 21q26 10 59 10q62 0 96 -34q32 -32 32 -86q0 -41 -19 -67q-16 -23 -43 -33q32 -10 51 -30q27 -29 27 -76q0 -63 -41 -102q-25 -25 -63 -30v-100h-76v101q-32 3 -58 24v87q18 -18 31 -25q21 -12 47 -12q36 0 53 17t17 45q0 32 -25 48q-18 12 -59 12
h-18v70h18q39 0 57 18q15 15 15 40q0 27 -18 43q-16 14 -41 14q-27 0 -47 -13q-14 -9 -30 -26z" />
    <glyph glyph-name="uni049A" unicode="&#x49a;" horiz-adv-x="397" 
d="M51 667h90v-306l125 306h91l-135 -323l114 -268h59v-206h-86v130h-43l-125 327v-327h-90v667z" />
    <glyph glyph-name="uni049B" unicode="&#x49b;" horiz-adv-x="346" 
d="M47 447h82v-203l105 203h97l-122 -217l85 -156h48v-178h-76v104h-28l-109 203v-203h-82v447z" />
    <glyph glyph-name="uni049C" unicode="&#x49c;" horiz-adv-x="464" 
d="M141 324v-324h-90v667h90v-267h40v143h63v-173l115 297h92l-123 -308l131 -359h-98l-117 338v-175h-63v161h-40z" />
    <glyph glyph-name="uni049D" unicode="&#x49d;" horiz-adv-x="392" 
d="M129 204v-204h-82v447h82v-173h30v113h60v-129l74 189h93l-93 -208l95 -239h-92l-77 211v-128h-60v121h-30z" />
    <glyph glyph-name="uni04A0" unicode="&#x4a0;" horiz-adv-x="440" 
d="M435 0h-101l-125 327v-327h-90v591h-114v76h204v-306l125 306h91l-135 -323z" />
    <glyph glyph-name="uni04A1" unicode="&#x4a1;" horiz-adv-x="396" 
d="M392 0h-96l-109 203v-203h-82v374h-100v73h182v-203l105 203h97l-122 -217z" />
    <glyph glyph-name="uni04A2" unicode="&#x4a2;" horiz-adv-x="436" 
d="M51 667h90v-261h132v261h90v-591h59v-206h-86v130h-63v330h-132v-330h-90v667z" />
    <glyph glyph-name="uni04A3" unicode="&#x4a3;" horiz-adv-x="369" 
d="M129 447v-171h100v171h82v-373h48v-178h-76v104h-54v202h-100v-202h-82v447h82z" />
    <glyph glyph-name="uni04A4" unicode="&#x4a4;" horiz-adv-x="504" 
d="M51 667h90v-261h132v261h221v-76h-131v-591h-90v330h-132v-330h-90v667z" />
    <glyph glyph-name="uni04A5" unicode="&#x4a5;" horiz-adv-x="414" 
d="M129 447v-171h100v171h180v-73h-98v-374h-82v202h-100v-202h-82v447h82z" />
    <glyph glyph-name="uni04AA" unicode="&#x4aa;" horiz-adv-x="337" 
d="M313 92v-82q-16 -11 -31 -14v-126h-86v126q-44 8 -78 41q-80 78 -80 285q0 227 78 306q48 48 122 48q39 0 75 -20v-81q-31 17 -58 17q-43 0 -70 -30q-52 -56 -52 -235q0 -163 51 -216q30 -32 76 -32q30 0 53 13z" />
    <glyph glyph-name="uni04AB" unicode="&#x4ab;" horiz-adv-x="253" 
d="M229 88v-77q-15 -10 -32 -14v-101h-76v105q-29 10 -50 36q-41 53 -41 192q0 141 51 192q33 33 87 33q31 0 61 -16v-84q-14 21 -41 21q-24 0 -40 -18q-28 -31 -28 -130q0 -110 33 -142q14 -14 34 -14q25 0 42 17z" />
    <glyph glyph-name="uni04AE" unicode="&#x4ae;" horiz-adv-x="341" 
d="M343 667l-116 -380v-287h-90v287l-139 380h95l54 -179q23 -76 33 -130q12 74 26 132l44 177h93z" />
    <glyph glyph-name="uni04AF" unicode="&#x4af;" horiz-adv-x="324" 
d="M3 447h88l71 -283l71 283h88l-120 -390v-245h-78v245z" />
    <glyph glyph-name="uni04B0" unicode="&#x4b0;" horiz-adv-x="341" 
d="M343 667l-116 -380v-27h93v-70h-93v-190h-90v190h-93v70h93v27l-139 380h95l54 -179q26 -86 34 -130q11 68 24 127q8 35 31 126l14 56h93z" />
    <glyph glyph-name="uni04B1" unicode="&#x4b1;" horiz-adv-x="324" 
d="M3 447h88l71 -265l71 265h88l-120 -364v-19h92v-64h-92v-188h-78v188h-92v64h92v19z" />
    <glyph glyph-name="uni04B2" unicode="&#x4b2;" horiz-adv-x="363" 
d="M93 667q5 -13 20.5 -54.5t25 -67.5t20 -61t13.5 -58q8 37 19 74.5t29.5 93.5t23.5 73h90l-123 -328l95 -263h53v-206h-86v130h-29q-7 20 -21.5 60t-23 64.5t-18 59.5t-15.5 65q-3 -30 -27 -103q-25 -82 -46 -146h-95l127 339l-119 328h87z" />
    <glyph glyph-name="uni04B3" unicode="&#x4b3;" horiz-adv-x="339" 
d="M3 447h98q51 -111 63 -153q8 38 57 153h87l-101 -211l81 -162h48v-178h-76v104h-33q-5 13 -23 53.5t-31 74.5t-16 53q-2 -18 -11 -44.5t-17 -45.5t-21.5 -50t-17.5 -41h-87l112 236z" />
    <glyph glyph-name="uni04B6" unicode="&#x4b6;" horiz-adv-x="427" 
d="M354 667v-591h59v-206h-86v130h-63v319q-33 -8 -72 -8q-64 0 -97 24q-30 21 -40 56t-10 89v187h91v-190q0 -51 20 -69q16 -15 55 -15q25 0 53 7v267h90z" />
    <glyph glyph-name="uni04B7" unicode="&#x4b7;" horiz-adv-x="348" 
d="M262 0h-54v195q-31 -11 -66 -11q-54 0 -82 27q-30 28 -30 96v140h80v-131q0 -33 13 -46q12 -12 39 -12t46 9v180h82v-373h48v-178h-76v104z" />
    <glyph glyph-name="uni04B8" unicode="&#x4b8;" horiz-adv-x="429" 
d="M378 667v-667h-90v319q-18 -5 -40 -6v-142h-63v140q-51 0 -86 22q-54 35 -54 147v187h91v-197q0 -43 13 -59q12 -16 36 -16v148h63v-150q19 0 40 7v267h90z" />
    <glyph glyph-name="uni04B9" unicode="&#x4b9;" horiz-adv-x="367" 
d="M238 0v195q-17 -7 -30 -8v-96h-60v94q-55 -5 -90 30q-28 28 -28 91v141h80v-138q0 -30 13 -42q8 -7 25 -9v133h60v-132q17 2 30 8v180h82v-447h-82z" />
    <glyph glyph-name="uni04BA" unicode="&#x4ba;" horiz-adv-x="404" 
d="M51 0v667h90v-271q33 10 72 10q61 0 98 -25q32 -21 42.5 -52.5t10.5 -82.5v-246h-91v240q0 48 -18 66t-57 18q-25 0 -57 -9v-315h-90z" />
    <glyph glyph-name="uni04BB" unicode="&#x4bb;" horiz-adv-x="358" 
d="M311 0h-82v298q-1 19 -2 29t-5 25t-14.5 22.5t-26.5 7.5q-18 0 -29.5 -8t-16 -25t-5.5 -28.5t-1 -31.5v-289h-82v729h82v-334q19 30 39.5 44.5t52.5 14.5q28 0 46.5 -10t27.5 -29t12.5 -39t3.5 -46v-330z" />
    <glyph glyph-name="uni04C0" unicode="&#x4c0;" horiz-adv-x="176" 
d="M129 0h-82v667h82v-667z" />
    <glyph glyph-name="uni04C1" unicode="&#x4c1;" horiz-adv-x="516" 
d="M511 0h-93l-116 329v-329h-88v329l-116 -329h-93l132 344l-126 323h87l116 -308v308h88v-308l116 308h87l-126 -323zM322 827l75 -30q-15 -45 -50 -68q-33 -23 -89 -23t-89 23q-35 23 -50 68l75 30q6 -25 21 -38q15 -14 43 -14t43 14q16 14 21 38z" />
    <glyph glyph-name="uni04C2" unicode="&#x4c2;" horiz-adv-x="450" 
d="M446 0h-92l-89 204v-204h-80v204l-89 -204h-92l104 230l-103 217h93l87 -205v205h80v-205l87 205h93l-103 -217zM282 617l69 -24q-14 -42 -44 -65q-31 -23 -82 -23t-82 23q-30 23 -44 65l69 24q5 -21 19 -33t38 -12t38 12t19 33z" />
    <glyph glyph-name="uni04C3" unicode="&#x4c3;" horiz-adv-x="402" 
d="M51 667h90v-323l125 323h91l-115 -280q47 -8 78 -40q50 -53 50 -181v-88q0 -155 -54 -207q-32 -31 -83 -31q-33 0 -65 14l20 87q18 -18 38 -18q22 0 35 20q19 29 19 122v93q0 33 -1 51.5t-9 44t-23 39.5q-22 20 -53 20q-25 0 -53 -13v-300h-90v667z" />
    <glyph glyph-name="uni04C4" unicode="&#x4c4;" horiz-adv-x="335" 
d="M47 447h82v-217l105 217h97l-116 -202q29 -9 48 -29q42 -42 42 -147q0 -146 -61 -207q-46 -46 -115 -50v86q30 3 49 22q39 36 39 149q0 77 -29 104q-20 18 -59 18v-191h-82v447z" />
    <glyph glyph-name="uni04C7" unicode="&#x4c7;" horiz-adv-x="414" 
d="M51 667h90v-261h132v261h90v-697q0 -51 -10 -80q-27 -78 -122 -78q-44 0 -77 18v90q38 -22 60 -22q17 0 29 7t17.5 15.5t8.5 25t3.5 26.5t0.5 29v329h-132v-330h-90v667z" />
    <glyph glyph-name="uni04C8" unicode="&#x4c8;" horiz-adv-x="358" 
d="M129 447v-171h100v171h82v-491q0 -83 -36 -117q-29 -27 -75 -27q-24 0 -52 10v77q14 -10 34 -10q19 0 31 10q16 14 16 66v237h-100v-202h-82v447h82z" />
    <glyph glyph-name="uni04D0" unicode="&#x4d0;" horiz-adv-x="360" 
d="M359 0h-89l-25 130h-132l-25 -130h-87l145 667h71zM126 199h106q-40 223 -52 338q-10 -103 -54 -338zM244 827l75 -30q-15 -45 -50 -68q-33 -23 -89 -23t-89 23q-35 23 -50 68l75 30q6 -25 21 -38q15 -14 43 -14t43 14q16 14 21 38z" />
    <glyph glyph-name="uni04D1" unicode="&#x4d1;" horiz-adv-x="349" 
d="M302 0h-83v57q-14 -32 -32 -48t-50 -16q-25 0 -44.5 11.5t-30.5 34t-18 44t-10 53t-3.5 49.5t-0.5 44t1 43.5t3.5 47.5t10 50.5t18.5 41t30.5 31.5t44.5 11q51 0 81 -58v51h83v-447zM222 199v48q0 132 -53 132q-54 0 -54 -125v-61q0 -126 54 -126q53 0 53 132zM231 617
l69 -24q-14 -42 -44 -65q-31 -23 -82 -23t-82 23q-30 23 -44 65l69 24q5 -21 19 -33t38 -12t38 12t19 33z" />
    <glyph glyph-name="uni04D2" unicode="&#x4d2;" horiz-adv-x="360" 
d="M359 0h-89l-25 130h-132l-25 -130h-87l145 667h71zM126 199h106q-40 223 -52 338q-10 -103 -54 -338zM299 771q0 -21 -14.5 -35.5t-35.5 -14.5t-35.5 14.5t-14.5 35.5t14.5 35.5t35.5 14.5t35.5 -14.5t14.5 -35.5zM151 771q0 -21 -14.5 -35.5t-35.5 -14.5t-35.5 14.5
t-14.5 35.5t14.5 35.5t35.5 14.5t35.5 -14.5t14.5 -35.5z" />
    <glyph glyph-name="uni04D3" unicode="&#x4d3;" horiz-adv-x="349" 
d="M302 0h-83v57q-14 -32 -32 -48t-50 -16q-25 0 -44.5 11.5t-30.5 34t-18 44t-10 53t-3.5 49.5t-0.5 44t1 43.5t3.5 47.5t10 50.5t18.5 41t30.5 31.5t44.5 11q51 0 81 -58v51h83v-447zM222 199v48q0 132 -53 132q-54 0 -54 -125v-61q0 -126 54 -126q53 0 53 132zM294 563
q0 -21 -14.5 -35.5t-35.5 -14.5t-35.5 14.5t-14.5 35.5t14.5 35.5t35.5 14.5t35.5 -14.5t14.5 -35.5zM146 563q0 -21 -14.5 -35.5t-35.5 -14.5t-35.5 14.5t-14.5 35.5t14.5 35.5t35.5 14.5t35.5 -14.5t14.5 -35.5z" />
    <glyph glyph-name="uni04D4" unicode="&#x4d4;" horiz-adv-x="511" 
d="M510 0h-232l-27 131h-138l-24 -131h-88l142 667h221l17 -76h-145l45 -212h132l18 -76h-132l51 -227h142zM239 199l-32 151q-13 64 -27 190q-2 -38 -18 -143q-15 -99 -36 -198h113z" />
    <glyph glyph-name="uni04D5" unicode="&#x4d5;" horiz-adv-x="505" 
d="M396 153h79q-4 -75 -32 -117.5t-97 -42.5q-77 0 -106 70q-16 -37 -39 -53.5t-62 -16.5q-109 0 -109 144q0 63 25.5 107t84.5 44q45 0 70 -29q0 5 -0.5 21.5t-1 22t-2.5 18.5t-5 18t-8 13.5t-12.5 12t-19 6.5t-25.5 3q-43 0 -84 -26v84q48 22 90 22q74 0 106 -57
q34 57 96 57q30 0 53.5 -11.5t37 -33t22.5 -44t12.5 -55t4.5 -53.5t1 -51h-184v-18q0 -127 57 -127q48 0 48 92zM392 266v20q0 100 -50 100t-50 -99v-21h100zM216 142q0 81 -52 81q-51 0 -51 -77q0 -87 51 -87q52 0 52 83z" />
    <glyph glyph-name="uni04D6" unicode="&#x4d6;" horiz-adv-x="321" 
d="M290 0h-239v667h239v-76h-149v-212h132v-76h-132v-227h149v-76zM233 827l75 -30q-15 -45 -50 -68q-33 -23 -89 -23t-89 23q-35 23 -50 68l75 30q6 -25 21 -38q15 -14 43 -14t43 14q16 14 21 38z" />
    <glyph glyph-name="uni04D7" unicode="&#x4d7;" horiz-adv-x="326" 
d="M299 207h-188q0 -143 57 -143q51 0 51 87h77q-2 -59 -17 -90q-32 -68 -112 -68q-36 0 -62.5 15t-40.5 37t-22 55.5t-10 60t-2 61.5q0 43 4 76.5t16.5 72.5t41.5 61t73 22q36 0 62 -17.5t39.5 -42t21.5 -61.5t9.5 -64t1.5 -62zM111 267h104q-4 74 -18 96q-12 21 -34 21
q-46 0 -52 -110v-4v-3zM220 617l69 -24q-14 -42 -44 -65q-31 -23 -82 -23t-82 23q-30 23 -44 65l69 24q5 -21 19 -33t38 -12t38 12t19 33z" />
    <glyph glyph-name="uni04D8" unicode="&#x4d8;" horiz-adv-x="411" 
d="M38 351h243q-2 81 -7 135q-6 70 -32 94q-17 16 -44 16q-28 0 -44 -15q-23 -21 -32 -77l-84 35q17 63 51 97q39 39 108 39t110 -40q42 -40 54.5 -112t12.5 -177q0 -250 -69 -317q-39 -38 -107 -38q-64 0 -101 37q-36 37 -47.5 103t-11.5 170v50zM280 275h-157v-49
q0 -101 31 -133q18 -18 46 -18q27 0 43 15q20 19 29 79q6 41 8 106z" />
    <glyph glyph-name="afii10846" unicode="&#x4d9;" horiz-adv-x="326" 
d="M30 248h188v4q0 94 -29 120q-12 11 -28 11q-18 0 -29 -11q-23 -21 -25 -76l-77 16q12 75 43 107q33 35 89 35q54 0 86 -32q51 -50 51 -197t-51 -199q-32 -33 -85 -33q-47 0 -78 30q-55 53 -55 194v31zM218 188h-104q2 -91 26 -115q10 -10 25 -10q17 0 28 12q24 25 25 113
z" />
    <glyph glyph-name="uni04DA" unicode="&#x4da;" horiz-adv-x="411" 
d="M38 351h243q-2 81 -7 135q-6 70 -32 94q-17 16 -44 16q-28 0 -44 -15q-23 -21 -32 -77l-84 35q17 63 51 97q39 39 108 39t110 -40q42 -40 54.5 -112t12.5 -177q0 -250 -69 -317q-39 -38 -107 -38q-64 0 -101 37q-36 37 -47.5 103t-11.5 170v50zM280 275h-157v-49
q0 -101 31 -133q18 -18 46 -18q27 0 43 15q20 19 29 79q6 41 8 106zM320 771q0 -21 -14.5 -35.5t-35.5 -14.5t-35.5 14.5t-14.5 35.5t14.5 35.5t35.5 14.5t35.5 -14.5t14.5 -35.5zM172 771q0 -21 -14.5 -35.5t-35.5 -14.5t-35.5 14.5t-14.5 35.5t14.5 35.5t35.5 14.5
t35.5 -14.5t14.5 -35.5z" />
    <glyph glyph-name="uni04DB" unicode="&#x4db;" horiz-adv-x="326" 
d="M30 248h188v4q0 94 -29 120q-12 11 -28 11q-18 0 -29 -11q-23 -21 -25 -76l-77 16q12 75 43 107q33 35 89 35q54 0 86 -32q51 -50 51 -197t-51 -199q-32 -33 -85 -33q-47 0 -78 30q-55 53 -55 194v31zM218 188h-104q2 -91 26 -115q10 -10 25 -10q17 0 28 12q24 25 25 113
zM289 563q0 -21 -14.5 -35.5t-35.5 -14.5t-35.5 14.5t-14.5 35.5t14.5 35.5t35.5 14.5t35.5 -14.5t14.5 -35.5zM141 563q0 -21 -14.5 -35.5t-35.5 -14.5t-35.5 14.5t-14.5 35.5t14.5 35.5t35.5 14.5t35.5 -14.5t14.5 -35.5z" />
    <glyph glyph-name="uni04DC" unicode="&#x4dc;" horiz-adv-x="516" 
d="M511 0h-93l-116 329v-329h-88v329l-116 -329h-93l132 344l-126 323h87l116 -308v308h88v-308l116 308h87l-126 -323zM377 771q0 -21 -14.5 -35.5t-35.5 -14.5t-35.5 14.5t-14.5 35.5t14.5 35.5t35.5 14.5t35.5 -14.5t14.5 -35.5zM229 771q0 -21 -14.5 -35.5t-35.5 -14.5
t-35.5 14.5t-14.5 35.5t14.5 35.5t35.5 14.5t35.5 -14.5t14.5 -35.5z" />
    <glyph glyph-name="uni04DD" unicode="&#x4dd;" horiz-adv-x="450" 
d="M446 0h-92l-89 204v-204h-80v204l-89 -204h-92l104 230l-103 217h93l87 -205v205h80v-205l87 205h93l-103 -217zM344 563q0 -21 -14.5 -35.5t-35.5 -14.5t-35.5 14.5t-14.5 35.5t14.5 35.5t35.5 14.5t35.5 -14.5t14.5 -35.5zM196 563q0 -21 -14.5 -35.5t-35.5 -14.5
t-35.5 14.5t-14.5 35.5t14.5 35.5t35.5 14.5t35.5 -14.5t14.5 -35.5z" />
    <glyph glyph-name="uni04DE" unicode="&#x4de;" horiz-adv-x="355" 
d="M96 383h10q51 0 77 23q28 24 28 78q0 56 -25 84q-22 24 -59 24q-49 0 -85 -45v93q44 35 103 35q68 0 107 -37q49 -47 49 -142q0 -77 -36 -115q-21 -22 -47 -28q32 -5 59 -29q44 -42 44 -128q0 -105 -58 -161q-45 -44 -120 -44q-64 0 -105 35v94q42 -43 94 -43q40 0 65 23
q31 29 31 94q0 63 -30 90q-25 23 -81 23h-21v76zM274 771q0 -21 -14.5 -35.5t-35.5 -14.5t-35.5 14.5t-14.5 35.5t14.5 35.5t35.5 14.5t35.5 -14.5t14.5 -35.5zM126 771q0 -21 -14.5 -35.5t-35.5 -14.5t-35.5 14.5t-14.5 35.5t14.5 35.5t35.5 14.5t35.5 -14.5t14.5 -35.5z
" />
    <glyph glyph-name="uni04DF" unicode="&#x4df;" horiz-adv-x="293" 
d="M30 339v84q17 15 35 21q26 10 59 10q62 0 96 -34q32 -32 32 -86q0 -41 -19 -67q-16 -23 -43 -33q32 -10 51 -30q27 -29 27 -75q0 -65 -41 -103q-35 -33 -98 -33q-60 0 -99 28v87q14 -15 31 -25q21 -12 50 -12q33 0 50 17t17 45q0 32 -25 48q-18 12 -59 12h-18v70h18
q39 0 57 18q15 15 15 40q0 27 -18 43q-16 14 -41 14q-27 0 -47 -13q-14 -9 -30 -26zM249 563q0 -21 -14.5 -35.5t-35.5 -14.5t-35.5 14.5t-14.5 35.5t14.5 35.5t35.5 14.5t35.5 -14.5t14.5 -35.5zM101 563q0 -21 -14.5 -35.5t-35.5 -14.5t-35.5 14.5t-14.5 35.5t14.5 35.5
t35.5 14.5t35.5 -14.5t14.5 -35.5z" />
    <glyph glyph-name="uni04E2" unicode="&#x4e2;" horiz-adv-x="410" 
d="M51 0v667h88v-273q0 -116 -19 -235q11 36 28 97.5t31 103.5l100 307h80v-667h-88v297q0 64 18 217q-49 -176 -51 -181l-107 -333h-80zM317 732h-224v62h224v-62z" />
    <glyph glyph-name="uni04E3" unicode="&#x4e3;" horiz-adv-x="370" 
d="M47 447h82v-223q0 -24 -3 -81q6 25 25 75l92 229h80v-447h-82v222q0 40 3 79q-9 -37 -27 -82l-90 -219h-80v447zM292 531h-224v62h224v-62z" />
    <glyph glyph-name="uni04E4" unicode="&#x4e4;" horiz-adv-x="410" 
d="M51 0v667h88v-273q0 -116 -19 -235q11 36 28 97.5t31 103.5l100 307h80v-667h-88v297q0 64 18 217q-49 -176 -51 -181l-107 -333h-80zM329 771q0 -21 -14.5 -35.5t-35.5 -14.5t-35.5 14.5t-14.5 35.5t14.5 35.5t35.5 14.5t35.5 -14.5t14.5 -35.5zM181 771
q0 -21 -14.5 -35.5t-35.5 -14.5t-35.5 14.5t-14.5 35.5t14.5 35.5t35.5 14.5t35.5 -14.5t14.5 -35.5z" />
    <glyph glyph-name="uni04E5" unicode="&#x4e5;" horiz-adv-x="370" 
d="M47 447h82v-223q0 -24 -3 -81q6 25 25 75l92 229h80v-447h-82v222q0 40 3 79q-9 -37 -27 -82l-90 -219h-80v447zM304 563q0 -21 -14.5 -35.5t-35.5 -14.5t-35.5 14.5t-14.5 35.5t14.5 35.5t35.5 14.5t35.5 -14.5t14.5 -35.5zM156 563q0 -21 -14.5 -35.5t-35.5 -14.5
t-35.5 14.5t-14.5 35.5t14.5 35.5t35.5 14.5t35.5 -14.5t14.5 -35.5z" />
    <glyph glyph-name="uni04E6" unicode="&#x4e6;" horiz-adv-x="423" 
d="M385 333q0 -66 -3 -111.5t-18.5 -103t-44.5 -86.5q-41 -41 -107 -41q-67 0 -108 41q-66 67 -66 299q0 49 1.5 83.5t7.5 80.5t20.5 81.5t36.5 57.5q41 41 108 41q66 0 107 -41t53.5 -119t12.5 -182zM132 317q0 -190 37 -227q16 -16 43 -16q26 0 42 16q37 37 37 227v50
q0 176 -37 211q-16 16 -42 16q-27 0 -43 -16q-37 -35 -37 -211v-50zM331 771q0 -21 -14.5 -35.5t-35.5 -14.5t-35.5 14.5t-14.5 35.5t14.5 35.5t35.5 14.5t35.5 -14.5t14.5 -35.5zM183 771q0 -21 -14.5 -35.5t-35.5 -14.5t-35.5 14.5t-14.5 35.5t14.5 35.5t35.5 14.5
t35.5 -14.5t14.5 -35.5z" />
    <glyph glyph-name="uni04E7" unicode="&#x4e7;" horiz-adv-x="341" 
d="M225 192v59q0 91 -25 116q-12 12 -28 12t-28 -12q-25 -25 -25 -116v-59q0 -85 25 -110q12 -12 28 -12t28 12q25 25 25 110zM311 223q0 -146 -55 -198q-33 -32 -85 -32q-53 0 -86 32q-55 52 -55 198q0 147 55 199q33 32 86 32q52 0 85 -32q55 -52 55 -199zM290 563
q0 -21 -14.5 -35.5t-35.5 -14.5t-35.5 14.5t-14.5 35.5t14.5 35.5t35.5 14.5t35.5 -14.5t14.5 -35.5zM142 563q0 -21 -14.5 -35.5t-35.5 -14.5t-35.5 14.5t-14.5 35.5t14.5 35.5t35.5 14.5t35.5 -14.5t14.5 -35.5z" />
    <glyph glyph-name="uni04E8" unicode="&#x4e8;" horiz-adv-x="423" 
d="M385 330q0 -110 -13.5 -184.5t-52.5 -113.5q-41 -41 -107 -41q-67 0 -108 41q-66 66 -66 299q0 107 12.5 184.5t53.5 118.5t108 41q66 0 107 -41q38 -39 52 -113.5t14 -190.5zM132 386h159q1 51 -8 111.5t-29 80.5q-16 16 -42 16q-27 0 -43 -16q-37 -36 -37 -192z
M291 310h-159q-2 -181 37 -220q16 -16 43 -16q26 0 42 16q39 39 37 220z" />
    <glyph glyph-name="uni04E9" unicode="&#x4e9;" horiz-adv-x="341" 
d="M118 192q0 -83 26 -110q11 -12 28 -12t28 11q26 24 26 111h-108zM118 266h108q-4 79 -26 101q-12 12 -28 12t-28 -12q-21 -21 -26 -101zM311 223q0 -145 -55 -198q-33 -32 -85 -32q-53 0 -86 32q-55 53 -55 195q0 149 55 202q33 32 86 32q52 0 85 -32q24 -23 37.5 -62
t15.5 -67t2 -70z" />
    <glyph glyph-name="uni04EA" unicode="&#x4ea;" horiz-adv-x="423" 
d="M385 330q0 -110 -13.5 -184.5t-52.5 -113.5q-41 -41 -107 -41q-67 0 -108 41q-66 66 -66 299q0 107 12.5 184.5t53.5 118.5t108 41q66 0 107 -41q38 -39 52 -113.5t14 -190.5zM132 386h159q1 51 -8 111.5t-29 80.5q-16 16 -42 16q-27 0 -43 -16q-37 -36 -37 -192z
M291 310h-159q-2 -181 37 -220q16 -16 43 -16q26 0 42 16q39 39 37 220zM333 771q0 -21 -14.5 -35.5t-35.5 -14.5t-35.5 14.5t-14.5 35.5t14.5 35.5t35.5 14.5t35.5 -14.5t14.5 -35.5zM185 771q0 -21 -14.5 -35.5t-35.5 -14.5t-35.5 14.5t-14.5 35.5t14.5 35.5t35.5 14.5
t35.5 -14.5t14.5 -35.5z" />
    <glyph glyph-name="uni04EB" unicode="&#x4eb;" horiz-adv-x="341" 
d="M118 192q0 -83 26 -110q11 -12 28 -12t28 11q26 24 26 111h-108zM118 266h108q-4 79 -26 101q-12 12 -28 12t-28 -12q-21 -21 -26 -101zM311 223q0 -145 -55 -198q-33 -32 -85 -32q-53 0 -86 32q-55 53 -55 195q0 149 55 202q33 32 86 32q52 0 85 -32q24 -23 37.5 -62
t15.5 -67t2 -70zM295 563q0 -21 -14.5 -35.5t-35.5 -14.5t-35.5 14.5t-14.5 35.5t14.5 35.5t35.5 14.5t35.5 -14.5t14.5 -35.5zM147 563q0 -21 -14.5 -35.5t-35.5 -14.5t-35.5 14.5t-14.5 35.5t14.5 35.5t35.5 14.5t35.5 -14.5t14.5 -35.5z" />
    <glyph glyph-name="uni04EE" unicode="&#x4ee;" horiz-adv-x="359" 
d="M8 667h94l41 -157q29 -115 40 -175q19 102 38 177l40 155h90l-183 -667h-88l61 213zM296 732h-224v62h224v-62z" />
    <glyph glyph-name="uni04EF" unicode="&#x4ef;" horiz-adv-x="326" 
d="M323 447l-185 -635h-87l71 224l-119 411h94l65 -312l77 312h84zM275 531h-224v62h224v-62z" />
    <glyph glyph-name="uni04F0" unicode="&#x4f0;" horiz-adv-x="359" 
d="M8 667h94l41 -157q29 -115 40 -175q19 102 38 177l40 155h90l-183 -667h-88l61 213zM309 771q0 -21 -14.5 -35.5t-35.5 -14.5t-35.5 14.5t-14.5 35.5t14.5 35.5t35.5 14.5t35.5 -14.5t14.5 -35.5zM161 771q0 -21 -14.5 -35.5t-35.5 -14.5t-35.5 14.5t-14.5 35.5
t14.5 35.5t35.5 14.5t35.5 -14.5t14.5 -35.5z" />
    <glyph glyph-name="uni04F1" unicode="&#x4f1;" horiz-adv-x="326" 
d="M323 447l-185 -635h-87l71 224l-119 411h94l65 -312l77 312h84zM291 563q0 -21 -14.5 -35.5t-35.5 -14.5t-35.5 14.5t-14.5 35.5t14.5 35.5t35.5 14.5t35.5 -14.5t14.5 -35.5zM143 563q0 -21 -14.5 -35.5t-35.5 -14.5t-35.5 14.5t-14.5 35.5t14.5 35.5t35.5 14.5
t35.5 -14.5t14.5 -35.5z" />
    <glyph glyph-name="uni04F2" unicode="&#x4f2;" horiz-adv-x="359" 
d="M8 667h94l41 -157q29 -115 40 -175q19 102 38 177l40 155h90l-183 -667h-88l61 213zM322 852l-77 -126l-39 21l61 138zM209 852l-77 -126l-40 21l61 138z" />
    <glyph glyph-name="uni04F3" unicode="&#x4f3;" horiz-adv-x="326" 
d="M323 447l-185 -635h-87l71 224l-119 411h94l65 -312l77 312h84zM303 638l-77 -126l-39 21l61 138zM190 638l-77 -126l-40 21l61 138z" />
    <glyph glyph-name="uni04F4" unicode="&#x4f4;" horiz-adv-x="405" 
d="M354 667v-667h-90v319q-33 -8 -72 -8q-64 0 -97 24q-30 21 -40 56t-10 89v187h91v-190q0 -51 20 -69q16 -15 55 -15q25 0 53 7v267h90zM329 771q0 -21 -14.5 -35.5t-35.5 -14.5t-35.5 14.5t-14.5 35.5t14.5 35.5t35.5 14.5t35.5 -14.5t14.5 -35.5zM181 771
q0 -21 -14.5 -35.5t-35.5 -14.5t-35.5 14.5t-14.5 35.5t14.5 35.5t35.5 14.5t35.5 -14.5t14.5 -35.5z" />
    <glyph glyph-name="uni04F5" unicode="&#x4f5;" horiz-adv-x="337" 
d="M208 0v195q-31 -11 -66 -11q-54 0 -82 27q-30 28 -30 96v140h80v-131q0 -33 13 -46q12 -12 39 -12t46 9v180h82v-447h-82zM288 563q0 -21 -14.5 -35.5t-35.5 -14.5t-35.5 14.5t-14.5 35.5t14.5 35.5t35.5 14.5t35.5 -14.5t14.5 -35.5zM140 563q0 -21 -14.5 -35.5
t-35.5 -14.5t-35.5 14.5t-14.5 35.5t14.5 35.5t35.5 14.5t35.5 -14.5t14.5 -35.5z" />
    <glyph glyph-name="uni04F8" unicode="&#x4f8;" horiz-adv-x="514" 
d="M462 0h-90v667h90v-667zM51 667h90v-285h10q91 0 135 -44q46 -47 46 -150q0 -105 -44 -149q-39 -39 -113 -39h-124v667zM141 306v-230h4q51 0 71 19q25 24 25 92q0 73 -28 99q-22 20 -69 20h-3zM376 771q0 -21 -14.5 -35.5t-35.5 -14.5t-35.5 14.5t-14.5 35.5t14.5 35.5
t35.5 14.5t35.5 -14.5t14.5 -35.5zM228 771q0 -21 -14.5 -35.5t-35.5 -14.5t-35.5 14.5t-14.5 35.5t14.5 35.5t35.5 14.5t35.5 -14.5t14.5 -35.5z" />
    <glyph glyph-name="uni04F9" unicode="&#x4f9;" horiz-adv-x="460" 
d="M413 0h-82v447h82v-447zM129 447v-171h14q82 0 121 -40q35 -35 35 -102q0 -68 -36 -102q-34 -32 -105 -32h-111v447h82zM129 70h20q35 0 50 14q16 16 16 50q0 36 -18 54t-58 18h-10v-136zM354 563q0 -21 -14.5 -35.5t-35.5 -14.5t-35.5 14.5t-14.5 35.5t14.5 35.5
t35.5 14.5t35.5 -14.5t14.5 -35.5zM206 563q0 -21 -14.5 -35.5t-35.5 -14.5t-35.5 14.5t-14.5 35.5t14.5 35.5t35.5 14.5t35.5 -14.5t14.5 -35.5z" />
    <glyph glyph-name="uni1E9E" unicode="&#x1e9e;" horiz-adv-x="385" 
d="M52 0v505q0 29 1 43.5t9 39t25 43.5q39 43 104 44q69 1 109 -37q23 -22 30 -55.5t7 -85.5l-74 -110q40 -11 61 -42q23 -36 23 -126q0 -137 -40 -185q-18 -22 -44.5 -28t-72.5 -6h-3v78q33 0 48 16q6 6 9.5 16.5t5.5 19.5t3 24.5t1 22.5v24.5v20.5q0 71 -17 96
q-16 23 -50 25v54l61 100q2 62 -12 82q-13 20 -43 20q-26 0 -40 -19q-16 -21 -16 -78v-502h-85z" />
    <glyph glyph-name="uni2010" unicode="&#x2010;" horiz-adv-x="255" 
d="M205 295v-78h-155v78h155z" />
    <glyph glyph-name="uni2011" unicode="&#x2011;" horiz-adv-x="255" 
d="M205 295v-78h-155v78h155z" />
    <glyph glyph-name="figuredash" unicode="&#x2012;" horiz-adv-x="550" 
d="M480 302h-410v70h410v-70z" />
    <glyph glyph-name="endash" unicode="&#x2013;" horiz-adv-x="550" 
d="M480 221h-410v70h410v-70z" />
    <glyph glyph-name="emdash" unicode="&#x2014;" horiz-adv-x="820" 
d="M750 291v-70h-680v70h680z" />
    <glyph glyph-name="afii00208" unicode="&#x2015;" horiz-adv-x="820" 
d="M750 291v-70h-680v70h680z" />
    <glyph glyph-name="quoteleft" unicode="&#x2018;" horiz-adv-x="197" 
d="M40 492l78 215l46 -13l-52 -223z" />
    <glyph glyph-name="quoteright" unicode="&#x2019;" horiz-adv-x="197" 
d="M164 667l-78 -215l-46 13l52 223z" />
    <glyph glyph-name="quotesinglbase" unicode="&#x201a;" horiz-adv-x="197" 
d="M157 72l-78 -215l-46 13l52 223z" />
    <glyph glyph-name="quotedblleft" unicode="&#x201c;" horiz-adv-x="319" 
d="M40 492l78 215l46 -13l-52 -223zM162 492l78 215l46 -13l-52 -223z" />
    <glyph glyph-name="quotedblright" unicode="&#x201d;" horiz-adv-x="319" 
d="M286 667l-78 -215l-46 13l52 223zM164 667l-78 -215l-46 13l52 223z" />
    <glyph glyph-name="quotedblbase" unicode="&#x201e;" horiz-adv-x="318" 
d="M278 72l-78 -215l-46 13l52 223zM157 72l-78 -215l-46 13l52 223z" />
    <glyph glyph-name="dagger" unicode="&#x2020;" horiz-adv-x="380" 
d="M323 459h-91v-642h-83v642h-92v73h92v197h83v-197h91v-73z" />
    <glyph glyph-name="daggerdbl" unicode="&#x2021;" horiz-adv-x="380" 
d="M323 124h-91v-307h-83v307h-92v73h92v257h-92v74h92v201h83v-201h91v-74h-91v-257h91v-73z" />
    <glyph glyph-name="bullet" unicode="&#x2022;" horiz-adv-x="1000" 
d="M638 340q0 -57 -40 -98.5t-97 -41.5t-97.5 41.5t-40.5 98.5t40.5 98.5t97.5 41.5t97 -41.5t40 -98.5z" />
    <glyph glyph-name="ellipsis" unicode="&#x2026;" horiz-adv-x="560" 
d="M520 47q0 -22 -15.5 -38t-37.5 -16q-23 0 -38.5 15.5t-15.5 38.5q0 22 16 37.5t38 15.5t37.5 -15.5t15.5 -37.5zM333 47q0 -22 -15.5 -38t-37.5 -16t-37.5 16t-15.5 38t15.5 37.5t37.5 15.5t37.5 -15.5t15.5 -37.5zM147 47q0 -23 -15.5 -38.5t-38.5 -15.5q-22 0 -37.5 16
t-15.5 38t15.5 37.5t37.5 15.5t38 -15.5t16 -37.5z" />
    <glyph glyph-name="perthousand" unicode="&#x2030;" horiz-adv-x="752" 
d="M223 497q0 -34 -3 -59.5t-12.5 -52.5t-30 -41.5t-51.5 -14.5t-51 14.5t-28.5 42t-11.5 52.5t-3 59q0 29 1.5 50t7 46t15 41t27.5 26.5t43 10.5q31 0 51.5 -14.5t30 -42t12.5 -54t3 -63.5zM164 476v49q0 92 -36 92t-36 -82v-65q0 -87 36 -87t36 93zM427 667l-291 -667h-55
l291 667h55zM483 163q0 -34 -3 -59.5t-12.5 -52.5t-30 -41.5t-51.5 -14.5t-51 14.5t-28.5 42t-11.5 52.5t-3 59q0 29 1.5 50t7 46t15 41t27.5 26.5t43 10.5q31 0 51.5 -14.5t30 -42t12.5 -54t3 -63.5zM424 142v49q0 92 -36 92t-36 -82v-65q0 -87 36 -87t36 93zM720 163
q0 -34 -3 -59.5t-12.5 -52.5t-30 -41.5t-51.5 -14.5t-51 14.5t-28.5 42t-11.5 52.5t-3 59q0 29 1.5 50t7 46t15 41t27.5 26.5t43 10.5q31 0 51.5 -14.5t30 -42t12.5 -54t3 -63.5zM661 142v49q0 92 -36 92t-36 -82v-65q0 -87 36 -87t36 93z" />
    <glyph glyph-name="guilsinglleft" unicode="&#x2039;" horiz-adv-x="221" 
d="M187 405l-101 -171l92 -177l-39 -21l-106 198l115 196z" />
    <glyph glyph-name="guilsinglright" unicode="&#x203a;" horiz-adv-x="221" 
d="M187 234l-105 -198l-39 21l92 177l-102 171l40 25z" />
    <glyph glyph-name="fraction" unicode="&#x2044;" horiz-adv-x="126" 
d="M256 667l-331 -667h-55l331 667h55z" />
    <glyph glyph-name="Euro" unicode="&#x20ac;" horiz-adv-x="380" 
d="M371 10q-32 -19 -73 -19q-174 0 -199 249h-98l28 66h67q0 45 1 67h-97l29 67h73q29 236 194 236q39 0 75 -20v-81q-32 17 -58 17q-96 0 -116 -152h149l-29 -67h-125q-1 -15 -1 -46v-21h90l-28 -66h-58q20 -161 123 -161q27 0 53 13v-82z" />
    <glyph glyph-name="uni20B4" unicode="&#x20b4;" horiz-adv-x="380" 
d="M85 567v86q32 12 43 15q32 8 68 8q62 0 95 -33q37 -38 37 -106q0 -59 -34 -106h61v-62h-96l-40 -52h136v-61h-170q-40 -50 -40 -106q0 -39 22 -58q18 -15 51 -15q24 0 52 11q23 9 41 24v-89q-32 -17 -52 -23q-34 -10 -70 -10q-58 0 -93 37q-38 40 -38 114q0 66 35 115
h-59v61h93l40 52h-133v62h170q36 43 36 89q0 38 -19 57q-18 18 -53 18q-24 0 -48 -10q-19 -7 -35 -18z" />
    <glyph glyph-name="uni20B6" unicode="&#x20b6;" horiz-adv-x="380" 
d="M198 667q63 0 98 -21q66 -40 66 -165q0 -107 -58 -152q-39 -30 -134 -30v-52h110v-61h-110v-186h-90v186h-66v62h66v51h-66v74h66v294h118zM170 373h8q52 0 71 26t19 80q0 112 -86 112h-12v-218z" />
    <glyph glyph-name="uni20B6" unicode="&#x20cf;" horiz-adv-x="380" 
d="M198 667q63 0 98 -21q66 -40 66 -165q0 -107 -58 -152q-39 -30 -134 -30v-52h110v-61h-110v-186h-90v186h-66v62h66v51h-66v74h66v294h118zM170 373h8q52 0 71 26t19 80q0 112 -86 112h-12v-218z" />
    <glyph glyph-name="uni20B6" unicode="&#x20ce;" horiz-adv-x="380" 
d="M198 667q63 0 98 -21q66 -40 66 -165q0 -107 -58 -152q-39 -30 -134 -30v-52h110v-61h-110v-186h-90v186h-66v62h66v51h-66v74h66v294h118zM170 373h8q52 0 71 26t19 80q0 112 -86 112h-12v-218z" />
    <glyph glyph-name="uni20B6" unicode="&#x20cd;" horiz-adv-x="380" 
d="M198 667q63 0 98 -21q66 -40 66 -165q0 -107 -58 -152q-39 -30 -134 -30v-52h110v-61h-110v-186h-90v186h-66v62h66v51h-66v74h66v294h118zM170 373h8q52 0 71 26t19 80q0 112 -86 112h-12v-218z" />
    <glyph glyph-name="uni20B6" unicode="&#x20cc;" horiz-adv-x="380" 
d="M198 667q63 0 98 -21q66 -40 66 -165q0 -107 -58 -152q-39 -30 -134 -30v-52h110v-61h-110v-186h-90v186h-66v62h66v51h-66v74h66v294h118zM170 373h8q52 0 71 26t19 80q0 112 -86 112h-12v-218z" />
    <glyph glyph-name="uni20B6" unicode="&#x20cb;" horiz-adv-x="380" 
d="M198 667q63 0 98 -21q66 -40 66 -165q0 -107 -58 -152q-39 -30 -134 -30v-52h110v-61h-110v-186h-90v186h-66v62h66v51h-66v74h66v294h118zM170 373h8q52 0 71 26t19 80q0 112 -86 112h-12v-218z" />
    <glyph glyph-name="uni20B6" unicode="&#x20ca;" horiz-adv-x="380" 
d="M198 667q63 0 98 -21q66 -40 66 -165q0 -107 -58 -152q-39 -30 -134 -30v-52h110v-61h-110v-186h-90v186h-66v62h66v51h-66v74h66v294h118zM170 373h8q52 0 71 26t19 80q0 112 -86 112h-12v-218z" />
    <glyph glyph-name="uni20B6" unicode="&#x20c9;" horiz-adv-x="380" 
d="M198 667q63 0 98 -21q66 -40 66 -165q0 -107 -58 -152q-39 -30 -134 -30v-52h110v-61h-110v-186h-90v186h-66v62h66v51h-66v74h66v294h118zM170 373h8q52 0 71 26t19 80q0 112 -86 112h-12v-218z" />
    <glyph glyph-name="uni20B6" unicode="&#x20c8;" horiz-adv-x="380" 
d="M198 667q63 0 98 -21q66 -40 66 -165q0 -107 -58 -152q-39 -30 -134 -30v-52h110v-61h-110v-186h-90v186h-66v62h66v51h-66v74h66v294h118zM170 373h8q52 0 71 26t19 80q0 112 -86 112h-12v-218z" />
    <glyph glyph-name="uni20B6" unicode="&#x20c7;" horiz-adv-x="380" 
d="M198 667q63 0 98 -21q66 -40 66 -165q0 -107 -58 -152q-39 -30 -134 -30v-52h110v-61h-110v-186h-90v186h-66v62h66v51h-66v74h66v294h118zM170 373h8q52 0 71 26t19 80q0 112 -86 112h-12v-218z" />
    <glyph glyph-name="uni20B6" unicode="&#x20c6;" horiz-adv-x="380" 
d="M198 667q63 0 98 -21q66 -40 66 -165q0 -107 -58 -152q-39 -30 -134 -30v-52h110v-61h-110v-186h-90v186h-66v62h66v51h-66v74h66v294h118zM170 373h8q52 0 71 26t19 80q0 112 -86 112h-12v-218z" />
    <glyph glyph-name="uni20B6" unicode="&#x20c5;" horiz-adv-x="380" 
d="M198 667q63 0 98 -21q66 -40 66 -165q0 -107 -58 -152q-39 -30 -134 -30v-52h110v-61h-110v-186h-90v186h-66v62h66v51h-66v74h66v294h118zM170 373h8q52 0 71 26t19 80q0 112 -86 112h-12v-218z" />
    <glyph glyph-name="uni20B6" unicode="&#x20c4;" horiz-adv-x="380" 
d="M198 667q63 0 98 -21q66 -40 66 -165q0 -107 -58 -152q-39 -30 -134 -30v-52h110v-61h-110v-186h-90v186h-66v62h66v51h-66v74h66v294h118zM170 373h8q52 0 71 26t19 80q0 112 -86 112h-12v-218z" />
    <glyph glyph-name="uni20B6" unicode="&#x20c3;" horiz-adv-x="380" 
d="M198 667q63 0 98 -21q66 -40 66 -165q0 -107 -58 -152q-39 -30 -134 -30v-52h110v-61h-110v-186h-90v186h-66v62h66v51h-66v74h66v294h118zM170 373h8q52 0 71 26t19 80q0 112 -86 112h-12v-218z" />
    <glyph glyph-name="uni20B6" unicode="&#x20c2;" horiz-adv-x="380" 
d="M198 667q63 0 98 -21q66 -40 66 -165q0 -107 -58 -152q-39 -30 -134 -30v-52h110v-61h-110v-186h-90v186h-66v62h66v51h-66v74h66v294h118zM170 373h8q52 0 71 26t19 80q0 112 -86 112h-12v-218z" />
    <glyph glyph-name="uni20B6" unicode="&#x20c1;" horiz-adv-x="380" 
d="M198 667q63 0 98 -21q66 -40 66 -165q0 -107 -58 -152q-39 -30 -134 -30v-52h110v-61h-110v-186h-90v186h-66v62h66v51h-66v74h66v294h118zM170 373h8q52 0 71 26t19 80q0 112 -86 112h-12v-218z" />
    <glyph glyph-name="uni20B6" unicode="&#x20c0;" horiz-adv-x="380" 
d="M198 667q63 0 98 -21q66 -40 66 -165q0 -107 -58 -152q-39 -30 -134 -30v-52h110v-61h-110v-186h-90v186h-66v62h66v51h-66v74h66v294h118zM170 373h8q52 0 71 26t19 80q0 112 -86 112h-12v-218z" />
    <glyph glyph-name="uni20B6" unicode="&#x20bf;" horiz-adv-x="380" 
d="M198 667q63 0 98 -21q66 -40 66 -165q0 -107 -58 -152q-39 -30 -134 -30v-52h110v-61h-110v-186h-90v186h-66v62h66v51h-66v74h66v294h118zM170 373h8q52 0 71 26t19 80q0 112 -86 112h-12v-218z" />
    <glyph glyph-name="uni20B6" unicode="&#x20be;" horiz-adv-x="380" 
d="M198 667q63 0 98 -21q66 -40 66 -165q0 -107 -58 -152q-39 -30 -134 -30v-52h110v-61h-110v-186h-90v186h-66v62h66v51h-66v74h66v294h118zM170 373h8q52 0 71 26t19 80q0 112 -86 112h-12v-218z" />
    <glyph glyph-name="uni20B6" unicode="&#x20bd;" horiz-adv-x="380" 
d="M198 667q63 0 98 -21q66 -40 66 -165q0 -107 -58 -152q-39 -30 -134 -30v-52h110v-61h-110v-186h-90v186h-66v62h66v51h-66v74h66v294h118zM170 373h8q52 0 71 26t19 80q0 112 -86 112h-12v-218z" />
    <glyph glyph-name="uni20B6" unicode="&#x20bc;" horiz-adv-x="380" 
d="M198 667q63 0 98 -21q66 -40 66 -165q0 -107 -58 -152q-39 -30 -134 -30v-52h110v-61h-110v-186h-90v186h-66v62h66v51h-66v74h66v294h118zM170 373h8q52 0 71 26t19 80q0 112 -86 112h-12v-218z" />
    <glyph glyph-name="uni20B6" unicode="&#x20bb;" horiz-adv-x="380" 
d="M198 667q63 0 98 -21q66 -40 66 -165q0 -107 -58 -152q-39 -30 -134 -30v-52h110v-61h-110v-186h-90v186h-66v62h66v51h-66v74h66v294h118zM170 373h8q52 0 71 26t19 80q0 112 -86 112h-12v-218z" />
    <glyph glyph-name="uni20B6" unicode="&#x20ba;" horiz-adv-x="380" 
d="M198 667q63 0 98 -21q66 -40 66 -165q0 -107 -58 -152q-39 -30 -134 -30v-52h110v-61h-110v-186h-90v186h-66v62h66v51h-66v74h66v294h118zM170 373h8q52 0 71 26t19 80q0 112 -86 112h-12v-218z" />
    <glyph glyph-name="uni20B6" unicode="&#x20b9;" horiz-adv-x="380" 
d="M198 667q63 0 98 -21q66 -40 66 -165q0 -107 -58 -152q-39 -30 -134 -30v-52h110v-61h-110v-186h-90v186h-66v62h66v51h-66v74h66v294h118zM170 373h8q52 0 71 26t19 80q0 112 -86 112h-12v-218z" />
    <glyph glyph-name="uni20B6" unicode="&#x20b7;" horiz-adv-x="380" 
d="M198 667q63 0 98 -21q66 -40 66 -165q0 -107 -58 -152q-39 -30 -134 -30v-52h110v-61h-110v-186h-90v186h-66v62h66v51h-66v74h66v294h118zM170 373h8q52 0 71 26t19 80q0 112 -86 112h-12v-218z" />
    <glyph glyph-name="uni20B8" unicode="&#x20b8;" horiz-adv-x="380" 
d="M336 478h-101v-478h-88v478h-104v79h293v-79zM336 598h-293v69h293v-69z" />
    <glyph glyph-name="afii61352" unicode="&#x2116;" horiz-adv-x="645" 
d="M362 0h-84q-90 268 -110 331q-18 54 -25 82q-3 13 -10 47.5t-12 52.5q3 -22 8 -101q7 -114 11 -412h-89v667h84q5 -15 33 -96t37 -110t29.5 -91.5t33.5 -111t25 -98.5q-21 160 -21 254v253h90v-667zM606 513q0 -155 -92 -155q-96 0 -96 157t95 157q93 0 93 -159zM603 256
h-182v64h182v-64zM543 514q0 99 -30 99q-33 0 -33 -100q0 -97 32 -97q31 0 31 98z" />
    <glyph glyph-name="uni2117" unicode="&#x2117;" horiz-adv-x="757" 
d="M294 535h94q61 0 87 -26q27 -27 27 -82q0 -61 -29 -89q-26 -24 -81 -24h-28v-182h-70v403zM364 368h12q31 0 43 10q15 12 15 50q0 34 -12 46t-43 12h-15v-118zM724 333q0 -141 -101 -244q-102 -102 -245 -102q-142 0 -244 102q-101 103 -101 244t101 244q102 102 244 102
q143 0 245 -102q101 -103 101 -244zM378 630q-119 0 -205 -86q-86 -88 -86 -211t86 -211q86 -86 205 -86q120 0 206 86q86 88 86 211t-86 211q-86 86 -206 86z" />
    <glyph glyph-name="trademark" unicode="&#x2122;" horiz-adv-x="496" 
d="M486 287h-61l-15 223l-47 -223h-44q-37 155 -50 228l-15 -228h-59l35 380h53q47 -190 57 -253q3 23 19 100l33 153h55zM185 616h-63v-329h-62v329h-65v51h190v-51z" />
    <glyph glyph-name="partialdiff" unicode="&#x2202;" 
d="M73 592l11 72q82 -11 143 -34t113 -71q129 -119 129 -310q0 -110 -59.5 -184.5t-166.5 -74.5q-93 0 -158 66t-65 159q0 90 59.5 154.5t148.5 64.5q86 0 143 -69q-28 61 -33 68q-36 65 -110.5 107t-154.5 52zM381 218q0 65 -39 106t-104 41q-58 0 -96 -46t-38 -106
q0 -61 40 -105.5t100 -44.5q61 0 99 46.5t38 108.5z" />
    <glyph glyph-name="product" unicode="&#x220f;" horiz-adv-x="704" 
d="M667 -250h-244v74h82v852h-306v-852h81v-74h-243v74h80v852h-80v74h630v-74h-79v-852h79v-74z" />
    <glyph glyph-name="summation" unicode="&#x2211;" horiz-adv-x="667" 
d="M611 -250h-584v83l248 436l-248 399v82h574v-230h-74l-7 156h-401l251 -407l-252 -445h411l5 156h77v-230z" />
    <glyph glyph-name="minus" unicode="&#x2212;" 
d="M467 296h-434v76h434v-76z" />
    <glyph glyph-name="uni2215" unicode="&#x2215;" horiz-adv-x="397" 
d="M410 729l-396 -912h-71l397 912h70z" />
    <glyph glyph-name="uni2219" unicode="&#x2219;" horiz-adv-x="208" 
d="M168 334q0 -26 -19 -45t-45 -19t-45 19t-19 45t19 45t45 19t45 -19t19 -45z" />
    <glyph glyph-name="radical" unicode="&#x221a;" horiz-adv-x="667" 
d="M667 753h-194l-207 -753h-103l-78 295h-85v73h152q6 -20 17.5 -60t16.5 -60q7 -24 13.5 -71t12.5 -69h6q24 128 80 334l105 385h264v-74z" />
    <glyph glyph-name="infinity" unicode="&#x221e;" horiz-adv-x="667" 
d="M649 339q0 -68 -43 -111t-110 -43q-92 0 -161 101q-70 -101 -163 -101q-69 0 -111.5 43.5t-42.5 112.5q0 67 43.5 110.5t110.5 43.5q90 0 160 -100q70 100 164 100q68 0 110.5 -44t42.5 -112zM565 340q0 35 -23 58t-57 23q-58 0 -111 -81q53 -82 112 -82q34 0 56.5 24
t22.5 58zM293 340q-54 81 -112 81q-35 0 -57 -23.5t-22 -58.5t23 -58t57 -23q56 0 111 82z" />
    <glyph glyph-name="integral" unicode="&#x222b;" 
d="M413 739l-17 -72q-28 10 -48 10q-10 0 -18.5 -2t-14 -6.5t-10 -9t-7 -13t-4 -13.5t-2 -16t-0.5 -15.5v-16.5v-15v-609v-41q0 -86 -29.5 -127.5t-113.5 -41.5q-32 0 -62 10l17 72q27 -10 47 -10q14 0 24.5 4t16.5 12.5t10 16.5t5 22.5t1.5 22.5t0 24t-0.5 21v621
q0 76 9 104q13 39 46.5 59t77.5 20q28 0 72 -11z" />
    <glyph glyph-name="approxequal" unicode="&#x2248;" 
d="M442 495l49 -29q-57 -115 -147 -115q-35 0 -101.5 31t-100.5 31q-48 0 -85 -70l-48 31q25 55 57 87t83 32q36 0 105 -31.5t100 -31.5t50 16.5t38 48.5zM442 322l49 -28q-55 -116 -147 -116q-35 0 -103 31.5t-99 31.5q-48 0 -85 -70l-48 30q26 56 57 87.5t82 31.5
q37 0 106.5 -31.5t99.5 -31.5q31 0 50 16.5t38 48.5z" />
    <glyph glyph-name="notequal" unicode="&#x2260;" 
d="M467 212h-239l-54 -111h-66l53 111h-127v74h160l43 88h-204v74h238l54 111l67 1l-54 -112h129v-74h-163l-42 -88h205v-74z" />
    <glyph glyph-name="lessequal" unicode="&#x2264;" 
d="M467 149l-434 198v70l434 199v-78l-347 -156l346 -156zM467 46h-434v74h434v-74z" />
    <glyph glyph-name="greaterequal" unicode="&#x2265;" 
d="M467 347l-434 -198v77l347 156l-346 156l-1 78l434 -199v-70zM467 46h-434v74h434v-74z" />
    <glyph glyph-name="dotmath" unicode="&#x22c5;" horiz-adv-x="208" 
d="M168 334q0 -26 -19 -45t-45 -19t-45 19t-19 45t19 45t45 19t45 -19t19 -45z" />
    <glyph glyph-name="lozenge" unicode="&#x25ca;" horiz-adv-x="667" 
d="M593 334l-260 -360l-259 360l259 359zM498 334l-165 226l-164 -226l164 -226z" />
    <glyph glyph-name="openbullet" unicode="&#x25e6;" 
d="M394 528q0 -59 -42.5 -100t-101.5 -41t-101.5 41t-42.5 100q0 58 43 99t101 41t101 -41t43 -99zM342 527q0 37 -27 63.5t-65 26.5q-37 0 -64.5 -26t-27.5 -63q0 -38 27 -64t65 -26q37 0 64.5 26t27.5 63z" />
    <glyph glyph-name="uniF400" unicode="&#xf400;" horiz-adv-x="2" 
d="M-211 541l86 129l68 -42l-107 -115z" />
    <glyph glyph-name="uniF401" unicode="&#xf401;" horiz-adv-x="2" 
d="M-221 755l86 129l68 -42l-107 -115z" />
    <glyph glyph-name="uniF406" unicode="&#xf406;" 
d="M318 811h55q-5 -46 -39.5 -69.5t-83.5 -23.5t-83.5 23.5t-39.5 69.5h55q16 -35 68 -35t68 35z" />
    <glyph glyph-name="uniF407" unicode="&#xf407;" 
d="M332 -72l-73 -118l-49 23l54 125z" />
    <glyph glyph-name="uniF408" unicode="&#xf408;" 
d="M360 761l-41 -34l-69 74l-64 -74l-46 34l111 124z" />
    <glyph glyph-name="uniF409" unicode="&#xf409;" horiz-adv-x="189" 
d="M156 -69l-64 -167l-45 13l37 175z" />
    <glyph glyph-name="uniF40A" unicode="&#xf40a;" horiz-adv-x="196" 
d="M163 667l-69 -189l-45 13l42 197z" />
    <glyph glyph-name="uniF40B" unicode="&#xf40b;" 
d="M303 773q0 -22 -15.5 -37t-37.5 -15t-37.5 15t-15.5 37t15.5 37.5t37.5 15.5t37.5 -15.5t15.5 -37.5z" />
    <glyph glyph-name="uniF40C" unicode="&#xf40c;" 
d="M165 799q0 36 24.5 60.5t60.5 24.5t60.5 -24.5t24.5 -60.5t-24.5 -60.5t-60.5 -24.5t-60.5 24.5t-24.5 60.5zM210 799q0 -17 11.5 -28.5t28.5 -11.5t28.5 11.5t11.5 28.5t-11.5 28.5t-28.5 11.5t-28.5 -11.5t-11.5 -28.5z" />
    <glyph glyph-name="uniF40D" unicode="&#xf40d;" 
d="M312 815h49q0 -88 -66 -88q-17 0 -43 14t-39 14q-20 0 -20 -24h-54q4 88 67 88q21 0 48.5 -15t39.5 -15q4 0 6.5 1t4 3t3 5t2 5.5t1 6t1.5 5.5z" />
    <glyph glyph-name="uniF40E" unicode="&#xf40e;" 
d="M405 -95v-51q-23 -9 -48 -9q-35 0 -58.5 18t-23.5 51q0 40 48 86h48q-43 -41 -43 -72t34 -31q21 0 43 8z" />
    <glyph glyph-name="uniF4C6" unicode="&#xf4c6;" horiz-adv-x="405" 
d="M354 667v-697q0 -51 -10 -80q-27 -78 -122 -78q-44 0 -77 18v90q38 -22 60 -22q17 0 29 7t17.5 15.5t8.5 25t3.5 26.5t0.5 29v318q-33 -8 -72 -8q-64 0 -97 24q-30 21 -40 56t-10 89v187h91v-190q0 -51 20 -69q16 -15 55 -15q25 0 53 7v267h90z" />
    <glyph glyph-name="uniF4C7" unicode="&#xf4c7;" horiz-adv-x="337" 
d="M208 -35v230q-31 -11 -66 -11q-54 0 -82 27q-30 28 -30 96v140h80v-131q0 -33 13 -46q12 -12 39 -12t46 9v180h82v-491q0 -83 -36 -117q-29 -27 -75 -27q-24 0 -52 10v77q14 -10 34 -10q19 0 31 10q16 14 16 66z" />
    <glyph glyph-name="uniF4CC" unicode="&#xf4cc;" horiz-adv-x="359" 
d="M8 667h94l41 -157q29 -115 40 -175q19 102 38 177l40 155h90l-183 -667h-88l61 213zM140 755l86 129l68 -42l-107 -115z" />
    <glyph glyph-name="uniF4CD" unicode="&#xf4cd;" horiz-adv-x="326" 
d="M323 447l-185 -635h-87l71 224l-119 411h94l65 -312l77 312h84zM124 541l86 129l68 -42l-107 -115z" />
    <glyph glyph-name="dollar.fitted" unicode="&#xf5f5;" horiz-adv-x="333" 
d="M315 575l-69 -33q-16 62 -77 62q-38 0 -56 -26t-18 -66q0 -41 19 -68q17 -24 54.5 -48t75 -49.5t54.5 -54.5q24 -40 24 -107q0 -84 -33 -135q-25 -41 -93 -57v-84h-60v84q-48 7 -75 29.5t-45 74.5l73 35q11 -32 27.5 -45.5t49.5 -13.5q71 0 71 100q0 47 -21 75
q-14 18 -64 49q-52 33 -78.5 55.5t-44.5 60.5t-18 91q0 69 32.5 117.5t92.5 53.5v76h60v-76q93 -11 119 -100z" />
    <glyph glyph-name="Euro.fitted" unicode="&#xf5f6;" horiz-adv-x="398" 
d="M376 10q-32 -19 -73 -19q-174 0 -199 249h-98l28 66h67q0 45 1 67h-97l29 67h73q29 236 194 236q39 0 75 -20v-81q-32 17 -58 17q-96 0 -116 -152h149l-29 -67h-125q-1 -15 -1 -46v-21h90l-28 -66h-58q20 -161 123 -161q27 0 53 13v-82z" />
    <glyph glyph-name="cent.fitted" unicode="&#xf5f7;" horiz-adv-x="216" 
d="M200 187v-73q-16 -10 -34 -13v-78h-60v78q-36 9 -60 48q-36 52 -36 181q0 126 36 183q19 31 60 48v92h60v-92q13 -3 34 -11v-79q-15 12 -33 12q-24 0 -39.5 -15t-21 -43t-7 -46t-1.5 -45q0 -156 67 -156q15 0 35 9z" />
    <glyph glyph-name="sterling.fitted" unicode="&#xf5f8;" horiz-adv-x="361" 
d="M271 96l73 -23q-11 -35 -32 -56q-26 -26 -64 -26q-24 0 -56 15l-24 11q-37 17 -53 17q-13 0 -21 -9q-7 -9 -10 -20l-68 27q9 35 28 56q21 23 52 23q6 0 16 -2q17 31 17 70q0 54 -34 113h-76v61h53q-37 84 -37 150q0 81 47 128q46 44 118 44q62 0 98 -34q38 -37 40 -98
l-70 -33q0 53 -21 75q-16 18 -49 18q-35 0 -58 -23q-24 -25 -24 -70q0 -35 13 -78q6 -21 30 -79h99v-61h-81q24 -61 24 -103q0 -57 -23 -98l14 -7q36 -18 47 -18q13 0 22 11q6 6 10 19z" />
    <glyph glyph-name="yen.fitted" unicode="&#xf5f9;" horiz-adv-x="375" 
d="M363 256h-123v-256h-90v256h-135v61h124l-19 52h-105v62h82l-86 236h96l43 -146q39 -131 44 -163q11 74 69 309h93l-72 -236h79v-62h-97l-16 -52h113v-61z" />
    <glyph glyph-name="florin.fitted" unicode="&#xf5fa;" horiz-adv-x="415" 
d="M411 728l-17 -84q-17 11 -35 11q-9 0 -16 -3t-12 -9.5t-8.5 -12t-6.5 -16t-4 -16l-3 -16.5t-3 -14l-24 -121h69l-12 -61h-69l-59 -310q-5 -26 -6 -31.5t-6.5 -30.5t-8.5 -33t-11 -28.5t-14.5 -28.5t-18 -22t-23.5 -19.5t-28 -10.5t-35 -5q-27 0 -56 11l15 76q21 -7 37 -7
q17 0 28.5 8.5t19 26.5t10 28.5t6.5 31.5l66 344h-60l12 61h60l24 121q5 27 7 36.5t8.5 33.5t11.5 34t15.5 26t22.5 23t30 13t40 6q27 0 54 -12z" />
    <glyph glyph-name="uni20B4.fitted" unicode="&#xf5fb;" horiz-adv-x="362" 
d="M71 567v86q32 12 43 15q32 8 68 8q62 0 95 -33q37 -38 37 -106q0 -59 -34 -106h61v-62h-96l-40 -52h136v-61h-170q-40 -50 -40 -106q0 -39 22 -58q18 -15 51 -15q24 0 52 11q23 9 41 24v-89q-32 -17 -52 -23q-34 -10 -70 -10q-58 0 -93 37q-38 40 -38 114q0 66 35 115
h-59v61h93l40 52h-133v62h170q36 43 36 89q0 38 -19 57q-18 18 -53 18q-24 0 -48 -10q-19 -7 -35 -18z" />
    <glyph glyph-name="uni20B6.fitted" unicode="&#xf5fc;" horiz-adv-x="378" 
d="M202 667q63 0 98 -21q66 -40 66 -165q0 -107 -58 -152q-39 -30 -134 -30v-52h110v-61h-110v-186h-90v186h-66v62h66v51h-66v74h66v294h118zM174 373h8q52 0 71 26t19 80q0 112 -86 112h-12v-218z" />
    <glyph glyph-name="uni20B8.fitted" unicode="&#xf5fd;" horiz-adv-x="309" 
d="M301 478h-101v-478h-88v478h-104v79h293v-79zM301 598h-293v69h293v-69z" />
    <glyph glyph-name="uniF639" unicode="&#xf639;" horiz-adv-x="351" 
d="M330 363q0 -70 -0.5 -101.5t-8 -91.5t-23.5 -96q-35 -82 -119 -82q-31 0 -55.5 13t-40 31.5t-26.5 48.5t-16.5 55.5t-8.5 62t-3.5 57t-0.5 51.5v20v57.5t3 62t8 66.5t16 59t27 52.5t40.5 33t56.5 13.5q35 0 62 -15t43 -43.5t26 -57t14 -70t5 -66t1 -60.5zM238 332
q0 65 -2 98q-4 165 -58 165t-58 -165q-2 -33 -2 -98q0 -69 2 -103q4 -159 58 -159t58 159q2 34 2 103z" />
    <glyph glyph-name="uniF63A" unicode="&#xf63a;" horiz-adv-x="334" 
d="M26 450v26q0 47 4.5 78t19 61t45 45t77.5 15q145 0 145 -163q0 -114 -110 -318q-55 -101 -62 -117h165v-77h-293q13 29 94 197q80 164 100 228q16 52 16 90q0 33 -13.5 57.5t-44.5 24.5q-14 0 -24.5 -5.5t-16.5 -17t-9.5 -21t-4.5 -28t-1.5 -27t0.5 -27.5t1 -21h-88z" />
    <glyph glyph-name="uniF63B" unicode="&#xf63b;" horiz-adv-x="330" 
d="M30 488v16q0 82 27.5 126.5t104.5 44.5q79 0 110 -45.5t31 -128.5q0 -85 -24 -121q-15 -22 -50 -36q43 -14 61 -44q21 -36 21 -113q0 -93 -35 -144t-123 -51q-136 0 -136 158q0 11 1 17h84q0 -3 -0.5 -10t-0.5 -11q0 -30 14 -52.5t42 -22.5q22 0 36 12t19.5 35t6.5 38
t1 40q0 53 -16 83.5t-64 30.5q-7 0 -23 -2v78q65 0 83.5 22t18.5 89q0 100 -53 100q-18 0 -29.5 -9.5t-15.5 -28.5t-5 -31.5t-1 -33.5v-6h-85z" />
    <glyph glyph-name="uniF63C" unicode="&#xf63c;" horiz-adv-x="327" 
d="M312 169h-42v-169h-84v169h-182v76l182 422h84v-430h42v-68zM186 237v276l-117 -276h117z" />
    <glyph glyph-name="uniF63D" unicode="&#xf63d;" horiz-adv-x="320" 
d="M152 589l-22 -167q174 0 174 -191q0 -100 -44.5 -169.5t-139.5 -69.5q-45 0 -106 28l22 79q45 -24 78 -24q50 0 72.5 46t22.5 102q0 128 -110 128q-25 0 -54 -8l38 324h212v-78h-143z" />
    <glyph glyph-name="uniF63E" unicode="&#xf63e;" horiz-adv-x="315" 
d="M150 667h95q-13 -30 -62 -129q-31 -64 -68 -158q36 30 72 30q62 0 92 -60q22 -44 22 -153q0 -35 -2.5 -61t-11 -54.5t-23.5 -47t-41.5 -30.5t-62.5 -12q-39 0 -66.5 14.5t-42.5 35t-23.5 53.5t-10.5 60.5t-2 64.5q0 82 20 163.5t44 135.5t71 148zM215 199q0 69 -12 99
q-13 30 -44 30q-32 0 -43 -30q-13 -34 -13 -97q0 -131 56 -131t56 129z" />
    <glyph glyph-name="uniF63F" unicode="&#xf63f;" horiz-adv-x="319" 
d="M315 667l-202 -667h-96l185 591h-185v76h298z" />
    <glyph glyph-name="uniF640" unicode="&#xf640;" horiz-adv-x="326" 
d="M307 187q0 -195 -144 -195q-45 0 -75 17t-44 48.5t-19.5 64.5t-5.5 76q0 90 28 130q17 23 51 34q-37 15 -52 43q-21 38 -21 106q0 87 38 130q31 34 105 34t103.5 -43.5t29.5 -121.5q0 -67 -21 -105q-15 -28 -51 -43q34 -12 50 -34q28 -38 28 -141zM212 504q0 93 -49 93
t-49 -93q0 -103 49 -103t49 103zM218 196q0 117 -55 117q-20 0 -32.5 -13t-16.5 -38.5t-5 -38.5t-1 -38q0 -114 55 -114q10 0 18.5 3.5t14 11t10 14t6.5 19.5t3.5 19.5t2 21.5t0.5 18.5v17.5z" />
    <glyph glyph-name="uniF641" unicode="&#xf641;" horiz-adv-x="314" 
d="M162 0h-96q14 30 42.5 87t50.5 103.5t39 89.5q-33 -27 -68 -27q-56 0 -88 49q-28 44 -28 149q0 37 2 63.5t10 59t23 53t42.5 34.5t65.5 14t65.5 -14.5t42.5 -35.5t23 -54t10 -60t2 -64q0 -96 -23 -176.5t-72 -181.5q-28 -60 -43 -89zM212 465q0 128 -56 128
q-11 0 -19.5 -4t-14 -12.5t-9.5 -16t-6.5 -21.5t-4 -21.5t-2 -24t-0.5 -20v-17.5q0 -123 56 -123q11 0 19.5 3.5t14 12t9.5 15.5t6.5 20.5t4 20.5t2 23t0.5 19.5v17.5z" />
    <glyph glyph-name="uniF6BA" unicode="&#xf6ba;" horiz-adv-x="255" 
d="M205 376v-78h-155v78h155z" />
    <glyph glyph-name="uniF6BB" unicode="&#xf6bb;" horiz-adv-x="550" 
d="M480 302h-410v70h410v-70z" />
    <glyph glyph-name="uniF6BC" unicode="&#xf6bc;" horiz-adv-x="820" 
d="M750 372v-70h-680v70h680z" />
    <glyph glyph-name="uniF6C3" unicode="&#xf6c3;" horiz-adv-x="194" 
d="M161 -69l-63 -165l-45 13l36 173z" />
    <glyph glyph-name="uniF6C9" unicode="&#xf6c9;" 
d="M206 755l86 129l68 -42l-107 -115z" />
    <glyph glyph-name="uniF6CA" unicode="&#xf6ca;" 
d="M360 851l-109 -124l-111 124l46 34l64 -74l69 74z" />
    <glyph glyph-name="uniF6CB" unicode="&#xf6cb;" horiz-adv-x="490" 
d="M369 771q0 -21 -14.5 -35.5t-35.5 -14.5t-35.5 14.5t-14.5 35.5t14.5 35.5t35.5 14.5t35.5 -14.5t14.5 -35.5zM221 771q0 -21 -14.5 -35.5t-35.5 -14.5t-35.5 14.5t-14.5 35.5t14.5 35.5t35.5 14.5t35.5 -14.5t14.5 -35.5z" />
    <glyph glyph-name="uniF6CE" unicode="&#xf6ce;" 
d="M294 755l-47 -28l-107 115l68 42z" />
    <glyph glyph-name="uniF6CF" unicode="&#xf6cf;" 
d="M388 852l-77 -126l-39 21l61 138zM275 852l-77 -126l-40 21l61 138z" />
    <glyph glyph-name="uniF6D0" unicode="&#xf6d0;" 
d="M362 732h-224v62h224v-62z" />
    <glyph glyph-name="uniF6D1" unicode="&#xf6d1;" horiz-adv-x="388" 
d="M258 827l75 -30q-15 -45 -50 -68q-33 -23 -89 -23t-89 23q-35 23 -50 68l75 30q6 -25 21 -38q15 -14 43 -14t43 14q16 14 21 38z" />
    <glyph glyph-name="uniF6D4" unicode="&#xf6d4;" horiz-adv-x="346" 
d="M230 617l69 -24q-14 -42 -44 -65q-31 -23 -82 -23t-82 23q-30 23 -44 65l69 24q5 -21 19 -33t38 -12t38 12t19 33z" />
    <glyph glyph-name="uniF6DC" unicode="&#xf6dc;" horiz-adv-x="184" 
d="M159 0h-86v590h-66v77h152v-667z" />
    <glyph glyph-name="uniF6DE" unicode="&#xf6de;" horiz-adv-x="615" 
d="M562 291v-70h-510v70h510z" />
    <glyph glyph-name="nbspace" horiz-adv-x="233" 
 />
    <glyph glyph-name="hyphenminus" horiz-adv-x="255" 
d="M205 295v-78h-155v78h155z" />
    <glyph glyph-name="dotlessi1" horiz-adv-x="176" 
d="M129 0h-82v447h82v-447z" />
    </font>
</defs>
</svg>
